<?xml version="1.0" standalone="no"?>
<!DOCTYPE svg PUBLIC "-//W3C//DTD SVG 1.1//EN" "http://www.w3.org/Graphics/SVG/1.1/DTD/svg11.dtd" >
<svg>
<metadata>
Created by FontForge 20120731 at Thu Feb 28 12:50:04 2013
 By Jenkins
</metadata>
<defs>
<font id="VoyagerGrotesqueLight" horiz-adv-x="560" >
  <font-face 
    font-family="Voyager Grotesque Light"
    font-weight="300"
    font-stretch="normal"
    units-per-em="1000"
    panose-1="0 0 0 0 0 0 0 0 0 0"
    ascent="750"
    descent="-250"
    cap-height="731"
    bbox="-4.33333 -78 738 807"
    underline-thickness="50"
    underline-position="-50"
    unicode-range="U+0020-201D"
  />
<missing-glyph horiz-adv-x="500" 
 />
    <glyph glyph-name=".notdef" horiz-adv-x="500" 
 />
    <glyph glyph-name=".null" horiz-adv-x="0" 
 />
    <glyph glyph-name="nonmarkingreturn" horiz-adv-x="500" 
 />
    <glyph glyph-name="space" unicode=" " horiz-adv-x="273" 
 />
    <glyph glyph-name="space" unicode="&#xa0;" horiz-adv-x="273" 
 />
    <glyph glyph-name="E" unicode="E" horiz-adv-x="546" 
d="M446 731v-31h-350q-6 0 -12.5 -4t-9.5 -9l-35 -61q-4 -6 -6 -14t-2 -14v-172q0 -6 4.5 -10.5t10.5 -4.5h320q6 0 8 -4t-2 -9l-3 -6q-9 -12 -24 -12h-299q-6 0 -10.5 -4.5t-4.5 -10.5v-319q0 -6 4.5 -10.5t10.5 -4.5h400v-31h-431q-6 0 -10.5 4.5t-4.5 10.5v591
q0 6 2 14.5t5 13.5l49 84q3 6 9.5 9.5t12.5 3.5h368z" />
    <glyph glyph-name="F" unicode="F" horiz-adv-x="510" 
d="M56 718q3 6 9.5 9.5t12.5 3.5h332v-31h-314q-6 0 -12.5 -4t-9.5 -9l-36 -61q-3 -5 -5 -13.5t-2 -14.5v-171q0 -6 4.5 -10.5t10.5 -4.5h270q6 0 12.5 -4t9.5 -9l2 -5q7 -13 -8 -13h-286q-6 0 -10.5 -4.5t-4.5 -10.5v-366h-31v606q0 16 7 28l49 84v0z" />
    <glyph glyph-name="G" unicode="G" horiz-adv-x="582" 
d="M474 634q3 -5 5.5 -13.5t2.5 -14.5v-28h-31v20q0 6 -2.5 14t-5.5 14l-35 61q-3 5 -10 9t-13 4h-289q-6 0 -12.5 -4t-9.5 -9l-35 -61q-4 -6 -6 -14t-2 -14v-464q0 -6 2 -14.5t6 -13.5l35 -62q3 -5 9.5 -9t12.5 -4h289q6 0 13 4t10 9l35 62q3 5 5.5 13.5t2.5 14.5v236
q0 6 -4.5 10.5t-10.5 4.5h-141q-6 0 -12.5 4t-10.5 9l-4 5q-7 13 7 13h192q6 0 10.5 -4.5t4.5 -10.5v-275q0 -7 -2.5 -15t-5.5 -13l-48 -85q-3 -5 -10 -9t-13 -4h-325q-6 0 -12.5 4t-9.5 9l-49 85q-7 12 -7 28v480q0 6 2 14.5t5 13.5l49 84q3 6 9.5 9.5t12.5 3.5h325
q6 0 13 -3.5t10 -9.5l48 -84v0z" />
    <glyph glyph-name="A" unicode="A" horiz-adv-x="586" 
d="M479 355q3 -5 5 -13.5t2 -14.5v-327h-31v253q0 6 -4.5 10.5t-10.5 4.5h-343q-15 0 -8 13l3 5q7 14 23 14h325q6 0 10.5 4t4.5 11v3q0 6 -2.5 14.5t-5.5 13.5l-196 341q-8 11 -16 0l-196 -341q-3 -5 -5.5 -13.5t-2.5 -14.5v-318h-31v327q0 6 2 14.5t6 13.5l209 363
q4 6 10.5 9.5t12.5 3.5h6q6 0 13 -3.5t10 -9.5l210 -363v0z" />
    <glyph glyph-name="B" unicode="B" horiz-adv-x="582" 
d="M15 0q-6 0 -10.5 4.5t-4.5 10.5v701q0 7 4.5 11t10.5 4h371q6 0 12.5 -3.5t9.5 -9.5l49 -84q3 -5 5 -13.5t2 -14.5v-101q0 -6 -2 -14.5t-5 -13.5l-40 -69q-7 -13 0 -26l58 -99q3 -5 5 -13.5t2 -14.5v-129q0 -16 -7 -28l-49 -85q-3 -5 -9.5 -9t-12.5 -4h-389zM31 46
q0 -6 4.5 -10.5t10.5 -4.5h339q16 0 23 13l36 62q3 5 5 13.5t2 14.5v113q0 6 -2 14.5t-5 13.5l-53 92q-4 5 -10.5 9t-12.5 4h-222q-6 0 -13 3.5t-10 8.5l-4 6q-4 5 -1.5 9t8.5 4h242q6 0 12.5 4t9.5 9l36 61q7 14 7 29v83q0 15 -7 29l-36 61q-3 5 -9.5 9t-12.5 4h-322
q-6 0 -10.5 -4.5t-4.5 -10.5v-639z" />
    <glyph glyph-name="C" unicode="C" horiz-adv-x="536" 
d="M450 151h31v-25q0 -15 -7 -29l-49 -84q-3 -5 -9.5 -9t-12.5 -4h-325q-6 0 -12.5 4t-9.5 9l-49 84q-7 14 -7 29v480q0 6 2 14.5t5 13.5l49 84q3 6 9.5 9.5t12.5 3.5h325q6 0 12.5 -3.5t9.5 -9.5l49 -84q3 -5 5 -13.5t2 -14.5v-29h-31v21q0 14 -7 28l-35 61q-4 5 -10.5 9
t-12.5 4h-289q-6 0 -12.5 -4t-9.5 -9l-35 -61q-4 -5 -6 -13.5t-2 -14.5v-464q0 -6 2 -14.5t5 -13.5l36 -62q3 -5 9.5 -9t12.5 -4h289q6 0 12.5 4t9.5 9l36 62q3 5 5 13.5t2 14.5v17z" />
    <glyph glyph-name="D" unicode="D" horiz-adv-x="515" 
d="M471 635q3 -5 5 -13.5t2 -14.5v-482q0 -6 -2 -14.5t-5 -13.5l-48 -84q-7 -13 -23 -13h-385q-6 0 -10.5 4.5t-4.5 10.5v702q0 6 4.5 10t10.5 4h385q16 0 23 -12zM448 598q0 7 -2.5 15t-5.5 13l-35 61q-3 6 -9.5 9.5t-12.5 3.5h-337q-6 0 -10.5 -4t-4.5 -11v-639
q0 -6 4.5 -10.5t10.5 -4.5h337q6 0 12.5 4t9.5 9l35 61q3 5 5.5 13.5t2.5 14.5v465z" />
    <glyph glyph-name="H" unicode="H" horiz-adv-x="595" 
d="M475 731v-731h-31v731h31zM400 393q4 -5 1.5 -8.5t-8.5 -3.5h-348q-6 0 -10 -4.5t-4 -10.5v-366h-31v731h31v-305q0 -6 4 -10.5t10 -4.5h330q6 0 12.5 -4t10.5 -9z" />
    <glyph glyph-name="I" unicode="I" horiz-adv-x="294" 
d="M5 0q-14 0 -7 13l3 5q3 5 9.5 9t12.5 4h57q6 0 10.5 4.5t4.5 10.5v639q0 7 -4.5 11t-10.5 4h-62q-6 0 -8.5 4t0.5 9l3 5q3 6 9.5 9.5t12.5 3.5h179q16 0 7 -12l-3 -6q-4 -5 -10.5 -9t-12.5 -4h-54q-6 0 -10.5 -4t-4.5 -11v-639q0 -6 4.5 -10.5t10.5 -4.5h67q6 0 8.5 -4
t-1.5 -9l-3 -5q-3 -5 -9.5 -9t-12.5 -4h-185z" />
    <glyph glyph-name="J" unicode="J" horiz-adv-x="485" 
d="M360 731q6 0 10.5 -4t4.5 -10v-594q0 -6 -2.5 -14t-5.5 -13l-47 -83q-3 -5 -9.5 -9t-12.5 -4h-221q-6 0 -12.5 4t-9.5 9l-48 83q-3 5 -5 13t-2 14v28h31v-19q0 -6 2 -14.5t5 -13.5l35 -60q3 -5 9.5 -9t12.5 -4h185q6 0 12.5 4t9.5 9l35 60q3 5 5 13.5t2 14.5v554
q0 6 -4 10.5t-11 4.5h-86q-6 0 -12.5 4t-9.5 9l-3 5q-3 5 -0.5 8.5t8.5 3.5h134v0z" />
    <glyph glyph-name="K" unicode="K" horiz-adv-x="582" 
d="M31 731v-731h-31v731h31zM474 97q3 -5 5.5 -13t2.5 -15v-69h-32v61q0 6 -2 14.5t-5 13.5l-160 277q-3 5 -9.5 9t-12.5 4h-130q-6 0 -12.5 3.5t-9.5 9.5l-3 5q-7 13 7 13h145q16 0 23 13l125 216q7 12 7 28v64h31v-73q0 -6 -2 -14.5t-5 -13.5l-128 -221q-7 -13 0 -26z" />
    <glyph glyph-name="L" unicode="L" horiz-adv-x="468" 
d="M337 150h31v-135q0 -6 -4.5 -10.5t-10.5 -4.5h-276q-6 0 -12.5 4t-9.5 9l-48 83q-3 5 -5 13t-2 14v608h31v-599q0 -16 7 -28l35 -60q3 -5 9.5 -9t12.5 -4h227q6 0 10.5 4.5t4.5 10.5v104z" />
    <glyph glyph-name="M" unicode="M" horiz-adv-x="671" 
d="M536 731q6 0 10.5 -4t4.5 -11v-716h-31v683q0 13 -8 2l-211 -366q-7 -14 0 -26l21 -38q7 -13 -7 -13h-6q-16 0 -23 13l-248 430q-7 14 -7 -2v-683h-31v716q0 7 4.5 11t10.5 4h18q6 0 12.5 -3.5t9.5 -9.5l213 -368q3 -6 7.5 -6t7.5 6l213 368q3 6 9.5 9.5t13.5 3.5h17v0z
" />
    <glyph glyph-name="N" unicode="N" horiz-adv-x="584" 
d="M467 616q3 -5 5 -13t2 -14v-574q0 -6 -4 -10.5t-11 -4.5h-14q-6 0 -12.5 4t-9.5 9l-385 667q-7 12 -7 -2v-678h-31v710q0 6 4.5 10.5t10.5 4.5h17q6 0 12.5 -4t9.5 -9l382 -661q3 -5 5.5 -4.5t2.5 6.5v528q0 6 -2.5 14t-5.5 13l-65 111q-4 5 -1.5 8.5t8.5 3.5h6
q6 0 12.5 -3.5t9.5 -8.5l61 -103v0z" />
    <glyph glyph-name="Ntilde" unicode="&#xd1;" horiz-adv-x="589" 
d="M472 637l-49 83q-3 5 -9.5 9t-12.5 4h-6q-14 0 -7 -13l53 -92q7 -12 7 -28v-546q0 -14 -7 -2l-386 668q-7 13 -23 13h-17q-6 0 -10.5 -4.5t-4.5 -10.5v-718h31v685q0 14 7 2l389 -674q3 -5 9.5 -9t12.5 -4h15q6 0 10.5 4.5t4.5 10.5v594q0 14 -7 28zM165 776
q-16 0 -23 13l-3 5q-3 5 -0.5 9t8.5 4h155q6 0 12.5 -4t9.5 -9l3 -5q7 -13 -7 -13h-155z" />
    <glyph glyph-name="O" unicode="O" horiz-adv-x="587" 
d="M78 0q-6 0 -12.5 4t-10.5 9l-48 84q-3 5 -5 13t-2 14v483q0 6 2 14.5t5 13.5l48 84q9 12 23 12h322q6 0 12.5 -3.5t9.5 -8.5l48 -84q3 -5 5 -13.5t2 -14.5v-483q0 -6 -2 -14t-5 -13l-48 -84q-3 -5 -9.5 -9t-12.5 -4h-322zM38 627q-7 -14 -7 -28v-466q0 -6 2 -14.5
t5 -13.5l35 -61q7 -13 23 -13h286q6 0 12.5 4t9.5 9l35 61q3 5 5.5 13.5t2.5 14.5v466q0 6 -2.5 14t-5.5 14l-35 60q-3 6 -9.5 9.5t-12.5 3.5h-286q-7 0 -13.5 -3.5t-9.5 -9.5z" />
    <glyph glyph-name="P" unicode="P" horiz-adv-x="585" 
d="M485 521q0 -7 -2.5 -15t-5.5 -13l-48 -84q-3 -6 -10 -9.5t-13 -3.5h-165q-14 0 -23 12l-4 6q-7 13 7 13h167q16 0 23 13l35 61q3 5 5.5 13.5t2.5 14.5l-1 69q0 6 -2 14.5t-5 13.5l-35 61q-7 13 -23 13h-338q-6 0 -10.5 -4.5t-4.5 -10.5v-685h-31v716q0 7 4.5 11t10.5 4
h387q6 0 12.5 -3.5t10.5 -9.5l48 -84q7 -12 7 -28z" />
    <glyph glyph-name="R" unicode="R" horiz-adv-x="580" 
d="M473 100q3 -5 5 -13.5t2 -14.5v-72h-31v64q0 6 -2 14.5t-5 13.5l-178 307q-7 13 7 13h113q6 0 13 4t10 9l35 61q3 5 5 13.5t2 14.5v84q0 6 -2 14.5t-5 13.5l-35 61q-4 5 -10.5 9t-12.5 4h-338q-6 0 -10.5 -4.5t-4.5 -10.5v-685h-31v716q0 7 4.5 11t10.5 4h387
q6 0 12.5 -3.5t9.5 -9.5l49 -84q7 -12 7 -28v-100q0 -6 -2 -14.5t-5 -13.5l-48 -84q-4 -5 -10.5 -9t-12.5 -4h-77q-14 0 -7 -13l155 -268v0z" />
    <glyph glyph-name="S" unicode="S" horiz-adv-x="572" 
d="M475 316q3 -5 5 -13.5t2 -14.5v-162q0 -16 -7 -28l-49 -85q-3 -5 -9.5 -9t-12.5 -4h-325q-6 0 -13 4t-10 9l-48 85q-3 5 -5.5 13t-2.5 15v28h31v-20q0 -6 2.5 -14.5t5.5 -13.5l35 -61q3 -6 9.5 -9.5t13.5 -3.5h289q6 0 12.5 3.5t9.5 9.5l36 61q3 5 5 13.5t2 14.5v145
q0 15 -7 29l-36 61q-3 5 -9.5 9t-12.5 4h-307q-16 0 -23 13l-49 85q-3 5 -5 13.5t-2 14.5v98q0 6 2 14.5t6 13.5l48 84q3 6 9.5 9.5t13.5 3.5h289q16 0 23 -13l48 -84q4 -5 6 -13.5t2 -14.5v-28h-31v19q0 7 -2.5 15t-5.5 13l-35 62q-7 13 -23 13h-253q-16 0 -23 -13l-35 -62
q-3 -5 -5.5 -13t-2.5 -15v-81q0 -6 2 -14.5t6 -13.5l35 -61q3 -5 9.5 -9t12.5 -4h308q6 0 12.5 -4t9.5 -10l49 -84v0z" />
    <glyph glyph-name="T" unicode="T" 
d="M191 0q-2 0 -1.5 0.5t2.5 -0.5h-1zM473 678q3 -5 5 -13.5t2 -14.5v-72h-31v64q0 6 -2 14.5t-5 13.5l-10 17q-3 6 -10 9.5t-13 3.5h-143q-6 0 -10.5 -4t-4.5 -11v-685h-31v608q0 32 -1 50.5t-3.5 27.5t-5 11.5t-5.5 2.5h-134q-7 0 -13.5 -3.5t-9.5 -9.5l-10 -17
q-3 -5 -5 -13.5t-2 -14.5v-64h-31v72q0 6 2 14.5t5 13.5l23 40q4 6 10.5 9.5t12.5 3.5h374q6 0 12.5 -3.5t9.5 -9.5z" />
    <glyph glyph-name="U" unicode="U" horiz-adv-x="617" 
d="M466 731h31v-606q0 -6 -2 -14.5t-5 -13.5l-49 -84q-3 -5 -9.5 -9t-12.5 -4h-323q-6 0 -12.5 4t-9.5 9l-49 84q-3 5 -5 13.5t-2 14.5v606h31v-598q0 -14 7 -28l35 -61q4 -5 10.5 -9t12.5 -4h287q6 0 12.5 4t10.5 9l35 61q7 14 7 28v598z" />
    <glyph glyph-name="V" unicode="V" horiz-adv-x="580" 
d="M449 731h31v-331q0 -6 -2 -14.5t-5 -13.5l-208 -359q-3 -5 -9.5 -9t-12.5 -4h-6q-6 0 -12.5 4t-9.5 9l-208 359q-3 5 -5 13.5t-2 14.5v331h31v-323q0 -14 7 -28l195 -336q7 -12 15 0l194 336q7 14 7 28v323z" />
    <glyph glyph-name="W" unicode="W" horiz-adv-x="838" 
d="M707 731h31v-331q0 -6 -2 -14.5t-5 -13.5l-200 -346q-3 -5 -6.5 -11t-5.5 -8q-2 -3 -7.5 -5t-11.5 -2h-8q-6 0 -12.5 4t-10.5 9l-93 163q-7 12 -14 0l-87 -150q-3 -5 -6 -11t-5 -8q-2 -3 -7.5 -5t-11.5 -2h-7q-6 0 -12.5 4t-9.5 9l-209 359q-3 5 -5 13.5t-2 14.5v331h15
h16v-323q0 -6 2 -14.5t6 -13.5l194 -337q8 -13 16 0l95 164q7 13 0 26l-80 139q-4 5 -6 13.5t-2 14.5v61h31v-53q0 -6 2.5 -14.5t5.5 -13.5l67 -116q7 -12 15 0l66 116q4 5 6 13.5t2 14.5v53h31v-61q0 -6 -2 -14.5t-5 -13.5l-80 -139q-4 -5 -4 -13t4 -13l95 -164q7 -13 15 0
l194 337q4 5 6 13.5t2 14.5v323z" />
    <glyph glyph-name="X" unicode="X" horiz-adv-x="578" 
d="M447 731h31v-103q0 -6 -2.5 -13.5t-7.5 -12.5l-198 -226q-5 -5 -5 -11.5t5 -11.5l198 -226q5 -5 7.5 -12.5t2.5 -13.5v-101h-31v90q0 6 -2.5 13.5t-6.5 12.5l-189 214q-9 11 -20 0l-188 -214q-5 -5 -7.5 -12.5t-2.5 -13.5v-90h-31v101q0 6 2.5 13.5t7.5 12.5l199 226
q9 12 0 23l-199 226q-5 5 -7.5 12.5t-2.5 13.5v103h31v-91q0 -6 2.5 -13.5t7.5 -12.5l188 -215q5 -5 10.5 -5t9.5 5l189 215q4 5 6.5 12.5t2.5 13.5v91z" />
    <glyph glyph-name="Y" unicode="Y" horiz-adv-x="530" 
d="M429 731h31v-101q0 -6 -3 -13.5t-7 -12.5l-195 -221q-4 -5 -7 -12.5t-3 -14.5v-356h-31v356q0 7 -2.5 14.5t-6.5 12.5l-195 221q-5 5 -7.5 12.5t-2.5 13.5v101h31v-89q0 -6 2.5 -13.5t7.5 -12.5l179 -204q4 -5 9.5 -5t10.5 5l179 204q4 5 7 12.5t3 13.5v89z" />
    <glyph glyph-name="Z" unicode="Z" horiz-adv-x="579" 
d="M0 86q0 6 2.5 14t6.5 13l430 518q4 5 6.5 12.5t2.5 13.5v28q0 15 -14 15l-312 1q-6 0 -13.5 -3t-11.5 -8l-23 -25q-5 -5 -12 -8t-13 -3h-11q-15 0 -5 12l48 54q11 11 25 11h358q15 0 15 -15v-71q0 -6 -2.5 -13.5t-6.5 -12.5l-430 -518q-9 -11 -9 -27v-28q0 -6 4.5 -10.5
t10.5 -4.5h314q6 0 13 3t12 8l23 24q11 11 25 11h11q16 0 5 -11l-48 -55q-5 -5 -12 -8t-13 -3h-361q-6 0 -10.5 4.5t-4.5 10.5v71z" />
    <glyph glyph-name="Q" unicode="Q" horiz-adv-x="580" 
d="M472 634q3 -5 5.5 -13t2.5 -14v-482q0 -6 -2.5 -14.5t-5.5 -13.5l-48 -84q-7 -13 -23 -13h-30q-14 0 -7 -13l29 -52q7 -13 -7 -13h-6q-6 0 -12.5 4t-9.5 9l-30 52q-3 5 -9.5 9t-12.5 4h-228q-6 0 -12.5 4t-9.5 9l-49 84q-3 5 -5 13.5t-2 14.5v482q0 6 2 14t5 13l49 84
q3 6 9.5 9.5t12.5 3.5h323q16 0 23 -13zM449 598q0 6 -2.5 14.5t-5.5 13.5l-35 61q-3 5 -9.5 9t-12.5 4h-288q-6 0 -12.5 -4t-9.5 -9l-36 -61q-3 -5 -5 -13.5t-2 -14.5v-465q0 -6 2 -14t5 -13l36 -62q3 -5 9.5 -9t12.5 -4h192q14 0 7 13l-48 85q-7 13 7 13h6q6 0 12.5 -4
t10.5 -9l48 -85q3 -5 9.5 -9t12.5 -4h31q6 0 12.5 4t9.5 9l35 62q3 5 5.5 13t2.5 14v465z" />
    <glyph glyph-name="zero" unicode="0" horiz-adv-x="550" 
d="M473 634q7 -12 7 -28v-481q0 -6 -2 -14.5t-5 -13.5l-49 -84q-3 -5 -9.5 -9t-12.5 -4h-324q-6 0 -12.5 4t-9.5 9l-49 84q-3 5 -5 13.5t-2 14.5v481q0 16 7 28l49 84q3 6 9.5 9.5t12.5 3.5h324q6 0 12.5 -3.5t9.5 -9.5zM31 134q0 -16 7 -28l1 -1q3 -5 7.5 -5t7.5 5l356 550
q3 5 3.5 12.5t-2.5 12.5l-4 7q-4 5 -10.5 9t-12.5 4h-288q-6 0 -12.5 -4t-9.5 -9l-36 -61q-3 -5 -5 -13.5t-2 -14.5v-464zM449 598q0 6 -2 14.5t-5 13.5l-2 3q-7 12 -16 1l-357 -548q-3 -5 -3.5 -12.5t3.5 -12.5l7 -13q3 -5 9.5 -9t12.5 -4h288q6 0 12.5 4t10.5 9l35 62
q7 12 7 28v464z" />
    <glyph glyph-name="one" unicode="1" horiz-adv-x="271" 
d="M156 731q15 0 15 -15v-716h-31v685q0 6 -4 10.5t-11 4.5h-29q-6 0 -12.5 -4t-9.5 -9l-36 -61q-7 -12 -7 -22v-9h-31v13q0 5 2 13t5 13l49 84q3 6 9.5 9.5t12.5 3.5h78v0z" />
    <glyph glyph-name="two" unicode="2" horiz-adv-x="561" 
d="M79 0q-16 0 -23 13l-48 84q-4 6 -6 14t-2 14v162q0 6 2 14.5t5 13.5l49 85q3 5 9.5 9t12.5 4h307q6 0 12.5 4t9.5 9l36 61q3 5 4.5 13.5t0.5 14.5l-10 83q-1 6 -3.5 14.5t-5.5 13.5l-35 61q-3 5 -10 9t-13 4h-234q-6 0 -12.5 4t-9.5 9l-3 5q-7 13 7 13h270q6 0 12.5 -3.5
t10.5 -9.5l48 -84q3 -5 5.5 -13.5t3.5 -14.5l11 -99q0 -7 -1.5 -15t-4.5 -13l-49 -85q-3 -5 -9.5 -9t-12.5 -4h-307q-6 0 -12.5 -4t-9.5 -9l-36 -61q-3 -5 -5 -13.5t-2 -14.5v-145q0 -6 2 -14.5t6 -13.5l35 -62q3 -5 9.5 -9t12.5 -4h370q15 0 15 -15v-1q0 -6 -4 -10.5
t-11 -4.5h-387z" />
    <glyph glyph-name="three" unicode="3" 
d="M473 285q3 -5 5 -13.5t2 -14.5v-132q0 -6 -2 -14.5t-5 -13.5l-49 -84q-3 -5 -9.5 -9t-12.5 -4h-402v31h384q6 0 12.5 4t9.5 9l36 62q7 12 7 28v115q0 6 -2 14t-5 13l-53 92q-3 5 -9.5 9t-12.5 4h-226v31h225q16 0 23 13l35 61q3 5 5.5 13.5t2.5 14.5v84q0 6 -2.5 14.5
t-5.5 13.5l-35 61q-7 13 -23 13h-217q-6 0 -12.5 4t-9.5 9l-3 5q-7 13 7 13h253q6 0 13 -3.5t10 -9.5l48 -84q3 -5 5.5 -13t2.5 -15v-100q0 -6 -2.5 -14.5t-5.5 -13.5l-39 -69q-7 -12 0 -26l57 -98v0z" />
    <glyph glyph-name="four" unicode="4" horiz-adv-x="568" 
d="M468 731v-731h-31v366q0 6 -4.5 10.5t-10.5 4.5h-397q-6 0 -12.5 3.5t-9.5 8.5q-7 13 0 26l173 299q3 6 9.5 9.5t12.5 3.5h7q13 0 7 -13l-170 -293q-7 -13 8 -13h372q6 0 10.5 4t4.5 11v304h31z" />
    <glyph glyph-name="five" unicode="5" 
d="M473 315q7 -14 7 -28v-162q0 -6 -2 -14.5t-5 -13.5l-49 -84q-3 -5 -9.5 -9t-12.5 -4h-324q-6 0 -12.5 4t-9.5 9l-48 84q-3 5 -5.5 13.5t-2.5 14.5v28h31v-19q0 -7 2.5 -15t5.5 -13l35 -62q3 -5 9.5 -9t12.5 -4h288q6 0 12.5 4t9.5 9l36 62q7 12 7 28v144q0 16 -7 28
l-35 62q-4 5 -10.5 9t-12.5 4h-369q-6 0 -10.5 4t-4.5 11v210q0 16 7 28l49 84q3 6 9.5 9.5t12.5 3.5h288q14 0 8 -13l-3 -5q-3 -5 -10 -9t-13 -4h-252q-6 0 -12.5 -4t-9.5 -9l-36 -61q-3 -5 -5 -13.5t-2 -14.5v-171q0 -6 4.5 -10.5t10.5 -4.5h356q6 0 12.5 -4t9.5 -9
l49 -84v0z" />
    <glyph glyph-name="six" unicode="6" 
d="M78 0q-6 0 -12.5 4t-9.5 9l-48 84q-4 5 -6 13.5t-2 14.5v481q0 16 7 28l49 84q3 6 9.5 9.5t12.5 3.5h271q15 0 8 -13l-3 -5q-3 -5 -9.5 -9t-12.5 -4h-236q-6 0 -12.5 -4t-9.5 -9l-36 -61q-3 -5 -5 -13.5t-2 -14.5v-171q0 -6 4.5 -10.5t10.5 -4.5h356q6 0 12.5 -4t9.5 -9
l49 -84q3 -5 5 -13.5t2 -14.5v-162q0 -6 -2 -14.5t-5 -13.5l-49 -84q-3 -5 -9.5 -9t-12.5 -4h-324zM31 134q0 -7 2 -15t6 -13l35 -62q3 -5 9.5 -9t12.5 -4h288q6 0 12.5 4t9.5 9l36 62q7 12 7 28v144q0 16 -7 28l-36 62q-3 5 -9.5 9t-12.5 4h-336q-7 0 -11 -4.5t-4 -10.5z
" />
    <glyph glyph-name="seven" unicode="7" horiz-adv-x="543" 
d="M15 701q-6 0 -10.5 4.5t-4.5 10.5t4.5 10.5t10.5 4.5h385q16 0 23 -13l47 -79q7 -13 0 -26l-348 -600q-3 -5 -9.5 -9t-12.5 -4h-8q-14 0 -7 13l348 599q7 13 0 26l-28 50q-3 5 -9.5 9t-12.5 4h-368z" />
    <glyph glyph-name="eight" unicode="8" 
d="M78 0q-6 0 -12.5 4t-9.5 9l-49 84q-3 5 -5 13.5t-2 14.5v132q0 6 2 14.5t5 13.5l57 98q4 5 4 13t-4 13l-39 69q-7 12 -7 28v100q0 6 2 14.5t5 13.5l49 84q3 5 9.5 9t12.5 4h288q6 0 12.5 -4t9.5 -9l49 -84q3 -5 5 -13.5t2 -14.5v-100q0 -16 -7 -28l-39 -69q-7 -13 0 -26
l57 -98q3 -5 5 -13.5t2 -14.5v-132q0 -6 -2 -14.5t-5 -13.5l-49 -84q-3 -5 -9.5 -9t-12.5 -4h-324zM38 276q-7 -12 -7 -28v-114q0 -16 7 -28l36 -62q3 -5 9.5 -9t12.5 -4h288q6 0 12.5 4t9.5 9l36 62q7 12 7 28v114q0 16 -7 28l-53 92q-7 13 -23 13h-252q-16 0 -23 -13z
M56 626q-3 -5 -5 -13.5t-2 -14.5v-84q0 -6 2 -14.5t5 -13.5l35 -61q7 -13 23 -13h252q16 0 23 13l35 61q3 5 5 13.5t2 14.5v84q0 6 -2 14.5t-5 13.5l-35 61q-3 5 -10 9t-13 4h-252q-6 0 -13 -4t-10 -9z" />
    <glyph glyph-name="nine" unicode="9" horiz-adv-x="550" 
d="M69 1q-6 0 -8.5 3.5t0.5 9.5l3 4q3 6 9.5 9.5t13.5 3.5h297q6 0 12.5 4t9.5 9l36 62q7 12 7 28v219q0 6 -4.5 10.5t-10.5 4.5h-356q-6 0 -12.5 4t-9.5 9l-49 84q-7 14 -7 28v113q0 6 2 14.5t6 13.5l48 84q3 5 9.5 9t12.5 4h324q6 0 12.5 -4t9.5 -9l48 -84q4 -5 6 -13.5
t2 -14.5v-481q0 -6 -2 -14.5t-5 -13.5l-49 -84q-3 -5 -9.5 -9t-12.5 -4zM39 626q-4 -5 -6 -13.5t-2 -14.5v-96q0 -6 2 -14.5t5 -13.5l36 -61q3 -6 9.5 -9.5t12.5 -3.5l336 -1q7 0 11 4.5t4 10.5l2 184q0 6 -2 14.5t-6 13.5l-35 61q-3 5 -9.5 9t-12.5 4h-288q-6 0 -12.5 -4
t-9.5 -9z" />
    <glyph glyph-name="dollar" unicode="$" horiz-adv-x="628" 
d="M464 310q3 -5 5 -13t2 -14v-160q0 -6 -2.5 -14t-5.5 -13l-47 -83q-3 -5 -9.5 -9t-12.5 -4h-137q-6 0 -10.5 -4t-4.5 -10v-63h-31v63q0 6 -4.5 10t-10.5 4h-119q-6 0 -12.5 4t-9.5 9l-48 83q-3 5 -5 13t-2 14v38h31v-30q0 -6 2 -14t5 -13l34 -60q3 -5 9.5 -9t12.5 -4h102
q6 0 10.5 4.5t4.5 10.5v314q0 6 -4.5 10.5t-10.5 4.5h-119q-6 0 -12.5 4t-9.5 9l-48 82q-7 12 -7 28v98q0 6 2 14.5t5 13.5l48 82q3 5 9.5 9t12.5 4h119q6 0 10.5 4t4.5 10v63h31v-63q0 -6 4.5 -10t10.5 -4h103q6 0 12.5 -4t9.5 -9l47 -82q3 -5 5 -13.5t2 -14.5v-38h-30v30
q0 6 -2 14t-5 13l-35 60q-3 5 -9.5 9t-12.5 4h-85q-6 0 -10.5 -4t-4.5 -11v-253q0 -6 4.5 -10.5t10.5 -4.5h137q6 0 12.5 -3.5t9.5 -8.5zM211 673q0 7 -4.5 11t-10.5 4h-102q-6 0 -12.5 -4t-9.5 -9l-34 -60q-3 -5 -5.5 -13t-2.5 -14v-82q0 -6 2.5 -14.5t5.5 -13.5l34 -60
q3 -5 9.5 -8.5t12.5 -3.5l102 -1q6 0 10.5 4.5t4.5 10.5v253zM440 275q0 6 -2 14t-5 13l-34 60q-3 5 -9.5 9t-12.5 4h-120q-6 0 -10.5 -4.5t-4.5 -10.5v-314q0 -6 4.5 -10.5t10.5 -4.5h119q15 0 22 13l35 60q3 5 5 13t2 14v144z" />
    <glyph glyph-name="exclam" unicode="!" horiz-adv-x="190" 
d="M92 127q-9 0 -9 16l-6 264q0 7 -0.5 15.5t-0.5 15.5v278q0 6 4.5 10.5t11.5 4.5h1q6 0 10.5 -4.5t4.5 -10.5v-278v-31l-6 -264q0 -16 -10 -16zM78 0q-8 0 -8 9v27q0 9 8 9h28q8 0 8 -9v-27q0 -9 -8 -9h-28z" />
    <glyph glyph-name="parenright" unicode=")" horiz-adv-x="351" 
d="M15 700q-7 0 -15 -2v33h126q6 0 12.5 -4t9.5 -9l49 -84q3 -5 5 -13.5t2 -14.5v-481q0 -14 -7 -28l-49 -84q-3 -5 -9.5 -9t-12.5 -4h-126v31h108q6 0 12.5 4t9.5 9l35 62q4 5 6 13.5t2 14.5v464q0 6 -2 14t-6 14l-35 61q-3 5 -9.5 9t-12.5 4h-93v0z" />
    <glyph glyph-name="parenleft" unicode="(" horiz-adv-x="351" 
d="M189 31q9 0 15 3v-34h-126q-6 0 -12.5 4t-9.5 9l-49 84q-7 14 -7 28v481q0 6 2 14.5t5 13.5l49 84q3 5 9.5 9t12.5 4h126v-31h-108q-6 0 -12.5 -4t-9.5 -9l-36 -61q-7 -14 -7 -28v-464q0 -6 2 -14.5t5 -13.5l36 -62q3 -5 9.5 -9t12.5 -4h93v0z" />
    <glyph glyph-name="slash" unicode="/" horiz-adv-x="833" 
d="M194 0q-8 0 -4 7l433 717q3 7 13 7h16q7 0 4 -7l-430 -717q-5 -7 -13 -7h-19z" />
    <glyph glyph-name="ampersand" unicode="&#x26;" horiz-adv-x="648" 
d="M572 370q6 0 8.5 -4t-0.5 -9l-3 -6q-4 -5 -10.5 -9t-12.5 -4h-15q-6 0 -10.5 -4t-4.5 -11v-198q0 -14 -7 -28l-48 -84q-4 -5 -10.5 -9t-12.5 -4h-277q-6 0 -12.5 4t-9.5 9l-49 84q-7 14 -7 28v89q0 16 7 28l58 100q3 5 3 12.5t-4 12.5l-55 71q-4 5 -6.5 13t-2.5 14v141
q0 6 2 14.5t6 13.5l48 84q3 5 9.5 9t12.5 4h232q16 0 23 -13l51 -84q3 -5 5.5 -13t2.5 -15l-22 -23q0 6 -2.5 14.5t-5.5 13.5l-47 76q-3 5 -10 9t-13 4h-196q-6 0 -12.5 -4t-9.5 -9l-35 -61q-4 -6 -6 -14t-2 -14v-127q0 -6 2.5 -14t6.5 -13l51 -63q4 -5 11 -8t13 -3h366z
M492 323q0 7 -4.5 11t-10.5 4h-272q-7 0 -13.5 -3.5t-9.5 -9.5l-53 -91q-3 -5 -5 -13.5t-2 -14.5v-72q0 -6 2 -14.5t5 -13.5l36 -62q3 -5 9.5 -9t12.5 -4h241q6 0 12.5 4t10.5 9l34 59q3 5 5 13.5t2 14.5v192z" />
    <glyph glyph-name="question" unicode="?" horiz-adv-x="589" 
d="M2 718q-7 13 7 13h343q6 0 12.5 -4t9.5 -9l49 -84q3 -5 5 -13.5t2 -14.5v-84q0 -6 -2 -14.5t-5 -13.5l-49 -85q-3 -6 -9.5 -9.5t-12.5 -3.5h-130q-6 0 -12.5 -3.5t-10.5 -9.5l-2 -4q-7 -12 -7 -28v-272h-31v284q0 14 7 28l14 24q3 5 9.5 9t12.5 4h133q6 0 12.5 4t9.5 9
l35 60q3 5 5 13.5t2 14.5v69q0 7 -2.5 15t-5.5 13l-34 61q-3 6 -10 9.5t-13 3.5h-307q-6 0 -12.5 4t-9.5 9zM159 32h30v-32h-30v32z" />
    <glyph glyph-name="questiondown" unicode="&#xbf;" horiz-adv-x="589" 
d="M428 13q4 -5 1.5 -9t-8.5 -4h-343q-6 0 -12.5 4t-9.5 9l-49 85q-7 12 -7 28v84q0 6 2 14t5 13l49 86q7 13 23 13l129 -1q16 0 23 13l2 4q3 5 5.5 13.5t2.5 14.5v272h30v-283q0 -6 -2 -14.5t-5 -13.5l-14 -25q-3 -5 -9.5 -9t-12.5 -4h-133q-6 0 -12.5 -4t-9.5 -9l-35 -60
q-7 -12 -7 -28l1 -69q0 -6 2 -14.5t5 -13.5l35 -61q3 -5 9.5 -9t12.5 -4h307q6 0 12.5 -4t10.5 -9zM271 699h-30v32h30v-32z" />
    <glyph glyph-name="equal" unicode="=" horiz-adv-x="581" 
d="M8 415q-8 0 -4 7l7 12q2 3 5.5 5t6.5 2h310q8 0 5 -7l-7 -12q-4 -7 -13 -7h-310zM8 290q-8 0 -4 7l7 12q2 3 5.5 5t6.5 2h310q8 0 5 -8l-7 -11q-4 -7 -13 -7h-310z" />
    <glyph glyph-name="quotedbl" unicode="&#x22;" horiz-adv-x="172" 
d="M126 607h-53v41q0 9 3 19.5t7 18.5l16 28q5 7 11.5 12t11.5 5t6 -5t-4 -12l-17 -31q-3 -6 -2 -11t6 -5q6 0 10.5 -6.5t4.5 -15.5v-38zM53 607h-53v41q0 9 3 19.5t7 18.5l16 28q5 7 12 12t12 5t5.5 -5t-4.5 -12l-16 -31q-5 -6 -4 -11t7 -5t10.5 -6.5t4.5 -15.5v-38z" />
    <glyph glyph-name="comma" unicode="," horiz-adv-x="190" 
d="M15 63h61v-63q0 -6 -2 -14.5t-6 -13.5l-10 -18q-4 -5 -10.5 -9t-12.5 -4h-23q-6 0 -8.5 4t1.5 9l20 35q7 13 -1 13q-9 0 -9 15v46z" />
    <glyph glyph-name="period" unicode="." horiz-adv-x="178" 
d="M64 5q0 -5 -5 -5h-51q-5 0 -5 5v53q0 5 5 5h51q5 0 5 -5v-53z" />
    <glyph glyph-name="quotedblleft" unicode="&#x201c;" horiz-adv-x="833" 
d="M145 609h-61v63q0 6 2 14.5t6 13.5l10 18q4 5 10.5 9t12.5 4h23q6 0 8.5 -4t-0.5 -9l-21 -35q-7 -13 1 -13q9 0 9 -15v-46zM64 609h-61v63q0 6 2 14.5t5 13.5l11 18q3 5 10 9t13 4h23q14 0 7 -13l-20 -35q-7 -13 1 -13q9 0 9 -15v-46z" />
    <glyph glyph-name="quotedblright" unicode="&#x201d;" horiz-adv-x="833" 
d="M15 731h61v-62q0 -7 -2 -15t-6 -13l-10 -19q-4 -5 -10.5 -9t-12.5 -4h-23q-6 0 -8.5 4t1.5 9l20 35q7 13 -1 13q-4 0 -6.5 4.5t-2.5 10.5v46zM96 731h61v-62q0 -16 -7 -28l-11 -19q-7 -13 -23 -13h-23q-14 0 -7 13l20 35q7 13 -1 13q-4 0 -6.5 4.5t-2.5 10.5v46z" />
  </font>
</defs>
</svg>
