<?xml version="1.0" standalone="no"?>
<!DOCTYPE svg PUBLIC "-//W3C//DTD SVG 1.1//EN" "http://www.w3.org/Graphics/SVG/1.1/DTD/svg11.dtd" >
<svg>
<metadata>
Created by FontForge 20120731 at Fri Aug 23 08:19:05 2019
 By www
Copyright (C) 2004, 2009 Hoefler &#38; Frere-Jones. http://www.typography.com
</metadata>
<defs>
<font id="Sentinel-LightItalic" horiz-adv-x="502" >
  <font-face 
    font-family="Sentinel Light"
    font-weight="300"
    font-style="italic"
    font-stretch="normal"
    units-per-em="1000"
    panose-1="0 0 0 0 0 0 0 0 0 0"
    ascent="800"
    descent="-200"
    x-height="452"
    cap-height="648"
    bbox="-148 -275 1058 1079"
    underline-thickness="50"
    underline-position="-50"
    slope="-12"
    unicode-range="U+0020-FB04"
  />
<missing-glyph horiz-adv-x="500" 
d="M0 -200v1000h500v-1000h-500zM71 750l179 -390l179 390h-358zM50 -76l172 376l-172 376v-752zM450 676l-172 -376l172 -376v752zM250 240l-179 -390h358z" />
    <glyph glyph-name="f_f" unicode="ff" horiz-adv-x="550" 
d="M222 -160q-29 0 -44 14.5t-15 34.5t11.5 34.5t30.5 14.5q16 0 25 -10t9 -25q0 -21 -13 -36q28 0 45 38.5t43 162.5l70 335h-180l-67 -326q-27 -130 -65 -183.5t-92 -53.5q-29 0 -44 14.5t-15 34.5t11.5 34.5t30.5 14.5q16 0 25 -10t9 -25q0 -21 -13 -36q27 0 44 35.5
t40 146.5l74 354h-99l9 35h97l4 17q49 237 205 237q46 0 75 -16.5t37 -40.5q45 55 112 57q42 1 67 -18.5t25 -48.5q0 -24 -13 -41.5t-33 -17.5q-16 0 -26 10.5t-10 27.5q0 28 21 48q-11 9 -31 9q-47 0 -74 -49t-49 -154l-4 -20h123l-9 -35h-122l-68 -326
q-27 -130 -65 -183.5t-92 -53.5zM213 443l-1 -5h179l1 4q14 68 37 124q-14 1 -23.5 11.5t-9.5 26.5q0 23 17 40q-17 17 -53 17q-56 0 -89.5 -50t-57.5 -168z" />
    <glyph glyph-name="fi" unicode="fi" horiz-adv-x="526" 
d="M382 403h-178l-67 -326q-27 -130 -65 -183.5t-92 -53.5q-29 0 -44 14.5t-15 34.5t11.5 34.5t30.5 14.5q16 0 25 -10t9 -25q0 -21 -13 -36q27 0 44 35.5t40 146.5l74 354h-99l9 35h97l3 14q50 240 216 240q57 0 93 -25.5t36 -64.5q0 -22 -13 -40t-35 -18q-16 0 -27.5 11
t-11.5 29q0 31 27 53q-18 24 -67 24q-59 0 -95.5 -48.5t-59.5 -159.5l-3 -15h242l-73 -269q-18 -66 -18 -96q0 -34 25 -34q37 0 80 118l27 -9q-32 -89 -61 -123t-63 -34q-32 0 -51 21.5t-19 59.5q0 31 18 97z" />
    <glyph glyph-name="fl" unicode="fl" horiz-adv-x="522" 
d="M356 692q45 0 75 -19l97 19l-141 -523q-18 -66 -18 -96q0 -34 25 -34q37 0 80 118l27 -9q-32 -89 -61 -123t-63 -34q-32 0 -51 21.5t-19 59.5q0 31 18 97l63 234h-184l-67 -326q-27 -130 -65 -183.5t-92 -53.5q-29 0 -44 14.5t-15 34.5t11.5 34.5t30.5 14.5q16 0 25 -10
t9 -25q0 -21 -13 -36q27 0 44 35.5t40 146.5l74 354h-99l9 35h97l4 17q25 122 78 179.5t125 57.5zM213 443l-1 -5h185l35 129q-3 -1 -8 -1q-16 0 -26 10.5t-10 27.5q0 23 17 40q-17 17 -50 17q-52 0 -84.5 -49.5t-57.5 -168.5z" />
    <glyph glyph-name="f_f_i" unicode="ffi" horiz-adv-x="768" 
d="M358 692q49 0 78.5 -18t35.5 -45q54 63 138 63q57 0 93 -25.5t36 -64.5q0 -22 -13 -40t-35 -18q-16 0 -27.5 11t-11.5 29q0 31 27 53q-18 24 -67 24q-59 0 -95.5 -48.5t-59.5 -159.5l-3 -15h242l-73 -269q-18 -66 -18 -96q0 -34 25 -34q37 0 80 118l27 -9
q-32 -89 -61 -123t-63 -34q-32 0 -51 21.5t-19 59.5q0 31 18 97l63 234h-178l-67 -326q-27 -130 -65 -183.5t-92 -53.5q-29 0 -44 14.5t-15 34.5t11.5 34.5t30.5 14.5q16 0 25 -10t9 -25q0 -21 -13 -36q27 0 44 35.5t40 146.5l74 354h-180l-67 -326q-27 -130 -65 -183.5
t-92 -53.5q-29 0 -44 14.5t-15 34.5t11.5 34.5t30.5 14.5q16 0 25 -10t9 -25q0 -21 -13 -36q27 0 44 35.5t40 146.5l74 354h-99l9 35h97l4 17q49 237 205 237zM213 443l-1 -5h179l3 14q12 61 37 114q-16 0 -25.5 10.5t-9.5 27.5q0 23 17 40q-17 17 -53 17q-56 0 -89.5 -50
t-57.5 -168z" />
    <glyph glyph-name="f_f_l" unicode="ffl" horiz-adv-x="764" 
d="M222 -160q-29 0 -44 14.5t-15 34.5t11.5 34.5t30.5 14.5q16 0 25 -10t9 -25q0 -21 -13 -36q27 0 44 35.5t40 146.5l74 354h-180l-67 -326q-27 -130 -65 -183.5t-92 -53.5q-29 0 -44 14.5t-15 34.5t11.5 34.5t30.5 14.5q16 0 25 -10t9 -25q0 -21 -13 -36q27 0 44 35.5
t40 146.5l74 354h-99l9 35h97l4 17q49 237 205 237q47 0 76.5 -17.5t36.5 -42.5q53 60 127 60q45 0 75 -19l97 19l-141 -523q-18 -66 -18 -96q0 -34 25 -34q37 0 80 118l27 -9q-32 -89 -61 -123t-63 -34q-32 0 -51 21.5t-19 59.5q0 31 18 97l63 234h-184l-67 -326
q-27 -130 -65 -183.5t-92 -53.5zM455 443l-1 -5h185l35 129q-3 -1 -8 -1q-16 0 -26 10.5t-10 27.5q0 23 17 40q-17 17 -50 17q-52 0 -84.5 -49.5t-57.5 -168.5zM213 443l-1 -5h179l4 17q14 67 34 111q-14 1 -23.5 11.5t-9.5 26.5q0 23 17 40q-17 17 -53 17q-56 0 -89.5 -50
t-57.5 -168z" />
    <glyph glyph-name="f_b" unicode="fb" horiz-adv-x="730" 
d="M524 692l-97 -348l7 -3q73 111 149 111q52 0 84 -39t32 -109q0 -118 -75.5 -215.5t-164.5 -97.5q-58 0 -97.5 37.5t-39.5 104.5q0 55 28 155l32 115h-178l-67 -326q-27 -130 -65 -183.5t-92 -53.5q-29 0 -44 14.5t-15 34.5t11.5 34.5t30.5 14.5q16 0 25 -10t9 -25
q0 -21 -13 -36q27 0 44 35.5t40 146.5l74 354h-99l9 35h97l4 17q49 237 201 237q45 0 74 -18zM563 405q-43 0 -86 -46.5t-68 -110t-25 -115.5q0 -44 19 -74t61 -30q68 0 119 91t51 186q0 49 -19 74t-52 25zM213 443l-1 -5h179l36 129q-2 -1 -7 -1q-16 0 -26 10.5t-10 27.5
q0 23 17 40q-17 17 -48 17q-52 0 -83.5 -49.5t-56.5 -168.5z" />
    <glyph glyph-name="f_h" unicode="fh" horiz-adv-x="782" 
d="M533 692l-120 -443l7 -3q49 99 103 152.5t105 53.5q36 0 59 -25.5t23 -70.5q0 -46 -39 -150.5t-39 -138.5q0 -28 22 -28q37 0 80 118l27 -9q-32 -89 -61.5 -123t-63.5 -34q-29 0 -48 23t-18 63q0 40 37.5 137.5t37.5 140.5q0 45 -42 45q-54 0 -124 -101t-124 -299h-67
l106 403h-190l-67 -326q-27 -130 -65 -183.5t-92 -53.5q-29 0 -44 14.5t-15 34.5t11.5 34.5t30.5 14.5q16 0 25 -10t9 -25q0 -21 -13 -36q27 0 44 35.5t40 146.5l74 354h-99l9 35h97l4 17q25 122 78.5 179.5t126.5 57.5q48 0 78 -19zM213 443l-1 -5h191l34 129q-2 -1 -8 -1
q-16 0 -26 10.5t-10 27.5q0 23 17 40q-17 17 -52 17q-54 0 -87 -49.5t-58 -168.5z" />
    <glyph glyph-name="f_j" unicode="fj" horiz-adv-x="533" 
d="M397 403h-193l-67 -326q-27 -130 -65 -183.5t-92 -53.5q-29 0 -44 14.5t-15 34.5t11.5 34.5t30.5 14.5q16 0 25 -10t9 -25q0 -21 -13 -36q27 0 44 35.5t40 146.5l74 354h-99l9 35h97l3 14q50 240 216 240q57 0 93 -25.5t36 -64.5q0 -22 -13 -40t-35 -18q-16 0 -27.5 11
t-11.5 29q0 31 27 53q-18 24 -67 24q-59 0 -95.5 -48.5t-59.5 -159.5l-3 -15h257l-101 -381q-57 -217 -161 -217q-30 0 -45 14.5t-15 35.5q0 20 12 34t30 14q17 0 26 -10t9 -26q0 -20 -13 -37q12 0 22 6.5t27.5 41.5t34.5 100z" />
    <glyph glyph-name="f_k" unicode="fk" horiz-adv-x="740" 
d="M495 246q95 -6 95 -77q0 -17 -4 -47.5t-4 -46.5q0 -36 23 -36q37 0 80 118l27 -9q-32 -89 -61.5 -123t-63.5 -34q-29 0 -48.5 23t-18.5 63q1 18 5 51.5t4 42.5q0 30 -17 42.5t-67 12.5h-36l-60 -226h-61l106 403h-190l-67 -326q-27 -130 -65 -183.5t-92 -53.5
q-29 0 -44 14.5t-15 34.5t11.5 34.5t30.5 14.5q16 0 25 -10t9 -25q0 -21 -13 -36q27 0 44 35.5t40 146.5l74 354h-99l9 35h97l4 17q25 122 78.5 179.5t126.5 57.5q48 0 78 -19l97 19l-117 -437h22q37 0 64 22t58 75t55 76.5t56 23.5q29 0 44 -14t15 -38q0 -25 -13.5 -41.5
t-33.5 -16.5q-23 0 -32 21.5t4 47.5q-18 -1 -33.5 -19t-37.5 -56q-41 -70 -89 -90zM213 443l-1 -5h191l34 129q-2 -1 -8 -1q-16 0 -26 10.5t-10 27.5q0 23 17 40q-17 17 -52 17q-54 0 -87 -49.5t-58 -168.5z" />
    <glyph glyph-name="f_f_b" unicode="ffb" horiz-adv-x="972" 
d="M222 -160q-29 0 -44 14.5t-15 34.5t11.5 34.5t30.5 14.5q16 0 25 -10t9 -25q0 -21 -13 -36q27 0 44 35.5t40 146.5l74 354h-180l-67 -326q-27 -130 -65 -183.5t-92 -53.5q-29 0 -44 14.5t-15 34.5t11.5 34.5t30.5 14.5q16 0 25 -10t9 -25q0 -21 -13 -36q27 0 44 35.5
t40 146.5l74 354h-99l9 35h97l4 17q49 237 205 237q47 0 76.5 -17t36.5 -42q50 59 125 59q45 0 74 -18l96 18l-97 -348l7 -3q73 111 149 111q52 0 84 -39t32 -109q0 -118 -75.5 -215.5t-164.5 -97.5q-58 0 -97.5 37.5t-39.5 104.5q0 55 28 155l32 115h-178l-67 -326
q-27 -130 -65 -183.5t-92 -53.5zM805 405q-43 0 -86 -46.5t-68 -110t-25 -115.5q0 -44 19 -74t61 -30q68 0 119 91t51 186q0 49 -19 74t-52 25zM213 443l-1 -5h179l4 17q14 67 34 111q-14 1 -23.5 11.5t-9.5 26.5q0 23 17 40q-17 17 -53 17q-56 0 -89.5 -50t-57.5 -168z
M455 443l-1 -5h179l36 129q-2 -1 -7 -1q-16 0 -26 10.5t-10 27.5q0 23 17 40q-17 17 -48 17q-52 0 -83.5 -49.5t-56.5 -168.5z" />
    <glyph glyph-name="f_f_h" unicode="ffh" horiz-adv-x="1024" 
d="M222 -160q-29 0 -44 14.5t-15 34.5t11.5 34.5t30.5 14.5q16 0 25 -10t9 -25q0 -21 -13 -36q27 0 44 35.5t40 146.5l74 354h-180l-67 -326q-27 -130 -65 -183.5t-92 -53.5q-29 0 -44 14.5t-15 34.5t11.5 34.5t30.5 14.5q16 0 25 -10t9 -25q0 -21 -13 -36q27 0 44 35.5
t40 146.5l74 354h-99l9 35h97l4 17q49 237 205 237q47 0 76.5 -17.5t36.5 -42.5q53 60 129 60q48 0 78 -19l97 19l-120 -443l7 -3q49 99 103 152.5t105 53.5q36 0 59 -25.5t23 -70.5q0 -46 -39 -150.5t-39 -138.5q0 -28 22 -28q37 0 80 118l27 -9q-32 -89 -61.5 -123
t-63.5 -34q-29 0 -48 23t-18 63q0 40 37.5 137.5t37.5 140.5q0 45 -42 45q-54 0 -124 -101t-124 -299h-67l106 403h-190l-67 -326q-27 -130 -65 -183.5t-92 -53.5zM455 443l-1 -5h191l34 129q-2 -1 -8 -1q-16 0 -26 10.5t-10 27.5q0 23 17 40q-17 17 -52 17q-54 0 -87 -49.5
t-58 -168.5zM213 443l-1 -5h179l4 17q14 67 34 111q-14 1 -23.5 11.5t-9.5 26.5q0 23 17 40q-17 17 -53 17q-56 0 -89.5 -50t-57.5 -168z" />
    <glyph glyph-name="f_f_j" unicode="ffj" horiz-adv-x="731" 
d="M358 692q49 0 78.5 -18t35.5 -45q54 63 138 63q57 0 93 -25.5t36 -64.5q0 -22 -13 -40t-35 -18q-16 0 -27.5 11t-11.5 29q0 31 27 53q-18 24 -67 24q-59 0 -95.5 -48.5t-59.5 -159.5l-3 -15h265l-101 -381q-57 -217 -161 -217q-30 0 -45 14.5t-15 35.5q0 20 12 34t30 14
q17 0 26 -10t9 -26q0 -20 -13 -37q12 0 22 6.5t27.5 41.5t34.5 100l102 390h-201l-67 -326q-27 -130 -65 -183.5t-92 -53.5q-29 0 -44 14.5t-15 34.5t11.5 34.5t30.5 14.5q16 0 25 -10t9 -25q0 -21 -13 -36q27 0 44 35.5t40 146.5l74 354h-180l-67 -326q-27 -130 -65 -183.5
t-92 -53.5q-29 0 -44 14.5t-15 34.5t11.5 34.5t30.5 14.5q16 0 25 -10t9 -25q0 -21 -13 -36q27 0 44 35.5t40 146.5l74 354h-99l9 35h97l4 17q49 237 205 237zM213 443l-1 -5h179l3 14q12 61 37 114q-16 0 -25.5 10.5t-9.5 27.5q0 23 17 40q-17 17 -53 17q-56 0 -89.5 -50
t-57.5 -168z" />
    <glyph glyph-name="f_f_k" unicode="ffk" horiz-adv-x="982" 
d="M222 -160q-29 0 -44 14.5t-15 34.5t11.5 34.5t30.5 14.5q16 0 25 -10t9 -25q0 -21 -13 -36q27 0 44 35.5t40 146.5l74 354h-180l-67 -326q-27 -130 -65 -183.5t-92 -53.5q-29 0 -44 14.5t-15 34.5t11.5 34.5t30.5 14.5q16 0 25 -10t9 -25q0 -21 -13 -36q27 0 44 35.5
t40 146.5l74 354h-99l9 35h97l4 17q49 237 205 237q47 0 76.5 -17.5t36.5 -42.5q53 60 129 60q48 0 78 -19l97 19l-117 -437h22q37 0 64 22t58 75t55 76.5t56 23.5q29 0 44 -14t15 -38q0 -25 -13.5 -41.5t-33.5 -16.5q-23 0 -32 21.5t4 47.5q-18 -1 -33.5 -19t-37.5 -56
q-41 -70 -89 -90q95 -6 95 -77q0 -17 -4 -47.5t-4 -46.5q0 -36 23 -36q37 0 80 118l27 -9q-32 -89 -61.5 -123t-63.5 -34q-29 0 -48.5 23t-18.5 63q1 18 5 51.5t4 42.5q0 30 -17 42.5t-67 12.5h-36l-60 -226h-61l106 403h-190l-67 -326q-27 -130 -65 -183.5t-92 -53.5z
M455 443l-1 -5h191l34 129q-2 -1 -8 -1q-16 0 -26 10.5t-10 27.5q0 23 17 40q-17 17 -52 17q-54 0 -87 -49.5t-58 -168.5zM213 443l-1 -5h179l4 17q14 67 34 111q-14 1 -23.5 11.5t-9.5 26.5q0 23 17 40q-17 17 -53 17q-56 0 -89.5 -50t-57.5 -168z" />
    <glyph glyph-name=".notdef" horiz-adv-x="500" 
d="M0 -200v1000h500v-1000h-500zM71 750l179 -390l179 390h-358zM50 -76l172 376l-172 376v-752zM450 676l-172 -376l172 -376v752zM250 240l-179 -390h358z" />
    <glyph glyph-name=".null" horiz-adv-x="0" 
 />
    <glyph glyph-name="nonmarkingreturn" horiz-adv-x="333" 
 />
    <glyph glyph-name="space" unicode=" " horiz-adv-x="174" 
 />
    <glyph glyph-name="exclam" unicode="!" horiz-adv-x="256" 
d="M109 193q22 97 47 254t33 188q10 39 44 39q19 0 29 -11t10 -27q0 -6 -1.5 -14.5t-5 -22t-7 -24.5t-10.5 -32.5t-12 -35.5t-15 -43t-16 -47q-43 -124 -74 -230zM80 -14q-19 0 -31.5 14t-12.5 34q0 23 14.5 39.5t35.5 16.5q19 0 31.5 -14t12.5 -34q0 -23 -14.5 -39.5
t-35.5 -16.5z" />
    <glyph glyph-name="quotedbl" unicode="&#x22;" horiz-adv-x="367" 
d="M130 413l-19 11l67 130q18 36 27.5 52.5t23 31t26.5 14.5q15 0 26.5 -10t11.5 -24q0 -6 -2 -12.5t-7 -14.5t-10 -15t-14.5 -18t-16 -18.5t-19 -21.5t-20.5 -22zM280 413l-19 11l67 130q18 36 27.5 52.5t23 31t26.5 14.5q15 0 26.5 -10t11.5 -24q0 -6 -2 -12.5t-7 -14.5
t-10 -15t-14.5 -18t-16 -18.5t-19 -21.5t-20.5 -22z" />
    <glyph glyph-name="numbersign" unicode="#" horiz-adv-x="653" 
d="M99 414l11 44h150l55 198l49 -6l-54 -192h164l55 198l49 -6l-54 -192h138l-11 -44h-139l-58 -208h149l-11 -44h-150l-57 -205l-49 6l55 199h-163l-57 -205l-49 6l55 199h-137l11 44h138l58 208h-148zM298 414l-58 -208h163l58 208h-163z" />
    <glyph glyph-name="dollar" unicode="$" horiz-adv-x="509" 
d="M358 694l38 -7l-17 -68q61 -13 101 -48.5t40 -76.5q0 -29 -15.5 -49t-38.5 -20q-20 0 -31.5 12.5t-11.5 28.5q0 21 13 36t31 20q-29 46 -97 60l-60 -244q79 -39 109.5 -73t30.5 -82q0 -74 -59.5 -128.5t-153.5 -54.5h-12l-21 -84l-38 7l20 81q-69 12 -117.5 49t-48.5 84
q0 29 15 49.5t43 20.5q19 0 32 -13t13 -32q0 -44 -43 -61q11 -18 42 -35.5t73 -25.5l63 248q-79 38 -111 71t-32 83q0 70 58 126t154 56q2 0 6.5 -0.5t6.5 -0.5zM177 463q0 -32 23 -57t74 -51l58 233h-10q-68 0 -106.5 -39.5t-38.5 -85.5zM388 163q0 60 -94 108l-60 -235h11
q60 0 101.5 36.5t41.5 90.5z" />
    <glyph glyph-name="percent" unicode="%" horiz-adv-x="755" 
d="M177 267q-51 0 -81.5 33t-30.5 88q0 90 59.5 158t133.5 68q55 0 82 -38q46 -30 106 -30q49 0 109.5 21t104.5 63l21 -17l-551 -639l-35 26l498 554l-2 3q-27 -18 -72.5 -31.5t-84.5 -13.5q-42 0 -76 12q1 -6 1 -18q0 -78 -55 -158.5t-127 -80.5zM535 -14q-51 0 -81.5 33
t-30.5 88q0 90 59.5 158t133.5 68q47 0 74 -27t27 -81q0 -78 -55 -158.5t-127 -80.5zM543 24q48 0 91.5 64.5t43.5 135.5q0 69 -58 69q-52 0 -94 -62t-42 -129q0 -37 16 -57.5t43 -20.5zM185 305q48 0 91.5 64.5t43.5 135.5q0 25 -9 41q-16 10 -37 27q-2 0 -6 0.5t-6 0.5
q-52 0 -94 -62t-42 -129q0 -37 16 -57.5t43 -20.5z" />
    <glyph glyph-name="ampersand" unicode="&#x26;" horiz-adv-x="663" 
d="M591 379q28 0 42 -15t14 -37q0 -25 -14 -43.5t-34 -18.5q-24 0 -33 22t5 46q-24 -9 -46.5 -35t-53.5 -76t-47 -72q25 -65 40 -89.5t35 -24.5q41 0 78 90l28 -12q-29 -73 -58.5 -100.5t-64.5 -27.5q-37 0 -59.5 23t-45.5 85q-47 -54 -92.5 -82t-102.5 -28q-69 0 -111.5 41
t-42.5 104q0 138 210 204q-48 67 -48 128q0 72 48.5 115.5t115.5 43.5q55 0 93.5 -33.5t38.5 -86.5q0 -113 -163 -171q60 -86 86 -146q15 21 42 63.5t44 66.5t43 45t53 21zM200 35q86 0 163 91q-5 13 -10 25.5t-11.5 25t-10.5 21t-12 21t-11.5 18t-13 19t-12 17t-13.5 18.5
t-13 17q-157 -55 -157 -169q0 -47 28.5 -75.5t72.5 -28.5zM252 484q0 -50 53 -129q122 52 122 144q0 36 -21 60.5t-60 24.5t-66.5 -26.5t-27.5 -73.5z" />
    <glyph glyph-name="quotesingle" unicode="'" horiz-adv-x="221" 
d="M130 413l-19 11l67 130q18 36 27.5 52.5t23 31t26.5 14.5q15 0 26.5 -10t11.5 -24q0 -6 -2 -12.5t-7 -14.5t-10 -15t-14.5 -18t-16 -18.5t-19 -21.5t-20.5 -22z" />
    <glyph glyph-name="parenleft" unicode="(" horiz-adv-x="361" 
d="M248 -157q-171 138 -171 346q0 107 38.5 207.5t128 191.5t219.5 139l12 -32q-110 -47 -187 -135t-111 -185t-34 -198q0 -184 130 -306z" />
    <glyph glyph-name="parenright" unicode=")" horiz-adv-x="361" 
d="M145 727q171 -138 171 -346q0 -107 -38.5 -207.5t-128 -191.5t-219.5 -139l-12 32q110 47 187 135t111 185t34 198q0 184 -130 306z" />
    <glyph glyph-name="asterisk" unicode="*" horiz-adv-x="385" 
d="M313 416q-6 15 -11 59.5t-6 48.5l-12 2q-4 -5 -14.5 -20t-18 -25.5t-17 -22.5t-16.5 -18q-24 -23 -45 1t6 44q9 7 26 16.5t42 21t29 13.5v11q-7 3 -31.5 10t-43.5 13.5t-28 12.5q-29 19 -13 44q17 27 46 7q9 -6 23 -20t30.5 -32t22.5 -24l11 3q0 4 -0.5 56.5t2.5 52.5
q9 33 40 25q27 -7 18 -41q-2 -10 -11 -27.5t-21 -39t-16 -28.5l8 -9q5 2 22.5 8t30 10.5t27.5 8.5t24 4q32 2 35 -28q1 -29 -32 -32q-10 0 -30.5 3t-44.5 8t-33 6l-5 -11q54 -71 61 -89q12 -31 -15 -42q-28 -12 -40 20z" />
    <glyph glyph-name="plus" unicode="+" horiz-adv-x="523" 
d="M203 67l47 189h-184l9 38h184l47 189h42l-47 -189h184l-9 -38h-184l-47 -189h-42z" />
    <glyph glyph-name="comma" unicode="," horiz-adv-x="200" 
d="M-50 -127l-9 28q97 37 116 95l-2 2q-8 -4 -17 -4q-16 0 -26 10.5t-10 29.5q0 21 14 38t37 17t36 -16.5t13 -42.5q0 -44 -36.5 -87t-115.5 -70z" />
    <glyph glyph-name="hyphen" unicode="-" horiz-adv-x="366" 
d="M52 210l14 55h256l-14 -55h-256z" />
    <glyph glyph-name="period" unicode="." horiz-adv-x="200" 
d="M51 -14q-19 0 -31.5 14t-12.5 34q0 23 14.5 39.5t35.5 16.5q19 0 31.5 -14t12.5 -34q0 -23 -14.5 -39.5t-35.5 -16.5z" />
    <glyph glyph-name="slash" unicode="/" horiz-adv-x="408" 
d="M-148 -192l610 897l40 -20l-610 -897z" />
    <glyph glyph-name="zero" unicode="0" horiz-adv-x="547" 
d="M243 -16q-85 0 -131.5 63t-46.5 175q0 105 36.5 200.5t101.5 155.5t143 60q85 0 131.5 -63t46.5 -175q0 -105 -36.5 -200.5t-101.5 -155.5t-143 -60zM346 598q-50 0 -91.5 -40t-67 -101.5t-39.5 -128t-14 -125.5q-1 -179 110 -179q49 0 91 40t67 101.5t39 128t14 125.5
q1 179 -109 179z" />
    <glyph glyph-name="one" unicode="1" horiz-adv-x="424" 
d="M-11 0l10 40h148l121 488q-38 -17 -100 -17q-32 0 -53 6l9 33q132 0 199 81h38l-147 -591h138l-10 -40h-353z" />
    <glyph glyph-name="two" unicode="2" horiz-adv-x="529" 
d="M184 534q36 -18 36 -53q0 -22 -13.5 -37.5t-37.5 -15.5q-23 0 -37 16.5t-14 43.5q0 56 59.5 103t141.5 47q87 0 139 -44.5t52 -119.5q0 -84 -59.5 -136t-162.5 -86q-50 -17 -87.5 -36t-59 -35.5t-35.5 -36t-19.5 -33t-9.5 -31.5l2 -1q39 22 76 22q41 0 94 -26.5t77 -26.5
q37 0 64.5 35t53.5 119l30 -5q-39 -212 -158 -212q-40 0 -94 40t-88 40q-22 0 -37 -6q9 -11 9 -28q0 -21 -10 -33.5t-27 -12.5q-21 0 -33 18.5t-12 48.5q0 136 239 238q95 40 137 87t42 104q0 58 -35 88t-91 30q-90 0 -132 -65z" />
    <glyph glyph-name="three" unicode="3" horiz-adv-x="509" 
d="M84 89q11 -23 44 -43.5t86 -20.5q67 0 111 43t44 111q0 55 -37.5 87.5t-117.5 32.5h-12l10 42h21q103 0 157 54q38 38 38 99q0 48 -30.5 76.5t-85.5 28.5q-43 0 -75 -14.5t-46 -34.5q31 -20 31 -51q0 -20 -14 -35t-34 -15q-23 0 -37 15t-14 39q0 51 58.5 93t139.5 42
q85 0 131.5 -41.5t46.5 -104.5q0 -72 -52 -115t-131 -60v-2q59 -14 91.5 -51.5t32.5 -89.5q0 -80 -62.5 -135t-158.5 -55q-77 0 -136.5 40.5t-59.5 100.5q0 31 18 51t42 20q22 0 34.5 -13.5t12.5 -32.5q0 -23 -14 -39.5t-32 -21.5z" />
    <glyph glyph-name="four" unicode="4" horiz-adv-x="541" 
d="M323 220l83 331h-2l-320 -331h239zM344 40h98l-10 -40h-263l10 40h99l34 138h-298l11 43l401 412h66l-103 -413h127l-9 -42h-129z" />
    <glyph glyph-name="five" unicode="5" horiz-adv-x="500" 
d="M219 558l-61 -203q59 33 122 33q75 0 119 -42t44 -114q0 -61 -26.5 -116.5t-81.5 -93.5t-127 -38q-81 0 -133 42.5t-52 99.5q0 35 18.5 56t44.5 21q23 0 36 -14t13 -34q0 -25 -17.5 -41.5t-42.5 -17.5q12 -31 46 -52t79 -21q84 0 128 64.5t44 149.5q0 59 -30.5 85.5
t-79.5 26.5q-71 0 -126 -47l-33 15l94 308l13 8q76 -36 158 -36q75 0 145 34l10 -19q-73 -81 -171 -81q-68 0 -133 27z" />
    <glyph glyph-name="six" unicode="6" horiz-adv-x="508" 
d="M238 24q68 0 107.5 59.5t39.5 136.5q0 59 -31.5 93.5t-83.5 34.5q-62 0 -106.5 -50.5t-44.5 -134.5q0 -59 31.5 -99t87.5 -40zM510 526q0 -31 -17 -53t-46 -22q-23 0 -36.5 13.5t-13.5 34.5t14 38t41 22q-8 17 -31.5 28.5t-53.5 11.5q-160 0 -228 -277q57 67 151 67
q73 0 119 -47.5t46 -122.5q0 -91 -62.5 -163t-152.5 -72q-86 0 -135 60.5t-49 159.5q0 111 38 209.5t110.5 161.5t161.5 63q64 0 104 -33.5t40 -78.5z" />
    <glyph glyph-name="seven" unicode="7" horiz-adv-x="518" 
d="M207 43q-9 -33 -18 -45.5t-25 -13.5t-28 10.5t-12 30.5q0 63 77.5 190.5t206.5 233.5q83 68 106 100l-2 2q-42 -31 -83 -31q-34 0 -88 22t-80 22q-38 0 -68.5 -36.5t-59.5 -129.5h-39l56 227h41l-19 -83h2q30 46 54.5 67t61.5 21q39 0 86.5 -38.5t76.5 -38.5q27 0 49 16
q-7 14 -7 28q0 18 12 30.5t30 12.5q19 0 29.5 -12t10.5 -27q0 -31 -26.5 -62.5t-99.5 -94.5q-94 -82 -149.5 -173t-94.5 -228z" />
    <glyph glyph-name="eight" unicode="8" horiz-adv-x="517" 
d="M507 487q0 -60 -39.5 -104.5t-108.5 -67.5q105 -57 105 -143q0 -81 -66 -134.5t-158 -53.5t-146 47t-54 116q0 57 39.5 105t128.5 72q-86 57 -86 137q0 73 59 125t145 52q81 0 131 -43t50 -108zM396 159q0 41 -34.5 72.5t-116.5 71.5q-71 -16 -108 -57t-37 -101
q0 -51 39 -86.5t104 -35.5t109 38t44 98zM190 475q0 -76 130 -140q65 22 97.5 61.5t32.5 89.5t-33.5 81.5t-90.5 31.5q-58 0 -97 -35.5t-39 -88.5z" />
    <glyph glyph-name="nine" unicode="9" horiz-adv-x="510" 
d="M315 598q-69 0 -108.5 -58t-39.5 -142q0 -62 31 -97t83 -35q62 0 107 51.5t45 137.5q0 62 -31 102.5t-87 40.5zM35 102q0 29 17 51t46 22q23 0 36.5 -13.5t13.5 -34.5t-14 -38t-41 -22q28 -44 97 -44q156 0 222 269q-57 -67 -151 -67q-74 0 -119 48t-45 126
q0 94 63 166.5t153 72.5q86 0 135 -60.5t49 -159.5q0 -113 -36.5 -211t-108 -160.5t-161.5 -62.5q-73 0 -114.5 35.5t-41.5 82.5z" />
    <glyph glyph-name="colon" unicode=":" horiz-adv-x="200" 
d="M51 -14q-19 0 -31.5 14t-12.5 34q0 23 14.5 39.5t35.5 16.5q19 0 31.5 -14t12.5 -34q0 -23 -14.5 -39.5t-35.5 -16.5zM126 286q-19 0 -31.5 14t-12.5 34q0 23 14.5 39.5t35.5 16.5q19 0 31.5 -14t12.5 -34q0 -23 -14.5 -39.5t-35.5 -16.5z" />
    <glyph glyph-name="semicolon" unicode=";" horiz-adv-x="200" 
d="M-50 -127l-9 28q97 37 116 95l-2 2q-8 -4 -17 -4q-16 0 -26 10.5t-10 29.5q0 21 14 38t37 17t36 -16.5t13 -42.5q0 -44 -36.5 -87t-115.5 -70zM126 286q-19 0 -31.5 14t-12.5 34q0 23 14.5 39.5t35.5 16.5q19 0 31.5 -14t12.5 -34q0 -23 -14.5 -39.5t-35.5 -16.5z" />
    <glyph glyph-name="less" unicode="&#x3c;" horiz-adv-x="522" 
d="M393 81l-301 179l8 31l390 178l-12 -46l-333 -151l258 -150z" />
    <glyph glyph-name="equal" unicode="=" horiz-adv-x="526" 
d="M91 343l9 38h406l-9 -38h-406zM47 169l10 38h406l-10 -38h-406z" />
    <glyph glyph-name="greater" unicode="&#x3e;" horiz-adv-x="522" 
d="M144 469l301 -179l-7 -31l-391 -178l11 43l334 151l-259 150z" />
    <glyph glyph-name="question" unicode="?" horiz-adv-x="399" 
d="M327 246q-49 -69 -118 -69q-42 0 -67.5 23.5t-25.5 61.5q0 34 27 63.5t95 65.5q84 45 115 76.5t31 80.5q0 37 -25 63.5t-79 26.5q-64 0 -100 -38q27 -17 27 -46q0 -22 -14 -37t-35 -15q-20 0 -34 14.5t-14 39.5q0 45 52 81.5t123 36.5q85 0 127.5 -41t42.5 -95
q0 -61 -42.5 -101.5t-136.5 -89.5q-59 -30 -80 -48.5t-20 -42.5q1 -20 14 -31.5t32 -11.5q44 0 85 49zM154 -14q-19 0 -31.5 14t-12.5 34q0 23 14.5 39.5t35.5 16.5q19 0 31.5 -14t12.5 -34q0 -23 -14.5 -39.5t-35.5 -16.5z" />
    <glyph glyph-name="at" unicode="@" horiz-adv-x="908" 
d="M634 -53l15 -30q-109 -63 -238 -63q-159 0 -256 88.5t-97 245.5q0 134 65 246.5t173 176t234 63.5q140 0 231.5 -82.5t91.5 -220.5q0 -142 -70 -229t-160 -87q-53 0 -79.5 30t-20.5 82l-7 3q-68 -97 -140 -97q-48 0 -78 34t-30 93q0 100 65.5 185t147.5 85q34 0 60 -20.5
t35 -61.5l24 77h56l-74 -246q-38 -128 52 -128q71 0 125.5 78.5t54.5 200.5q0 123 -79.5 195.5t-209.5 72.5q-177 0 -302.5 -133.5t-125.5 -317.5q0 -138 85.5 -217.5t231.5 -79.5q116 0 220 57zM395 117q58 0 110.5 77.5t52.5 146.5q0 33 -18 63t-56 30q-59 0 -107 -75
t-48 -157q0 -41 18 -63t48 -22z" />
    <glyph glyph-name="A" unicode="A" horiz-adv-x="672" 
d="M367 40h102l-24 198h-239l-119 -198h92l-10 -40h-216l10 40h69l379 613h50l77 -613h79l-10 -40h-250zM229 276h211l-34 290h-2z" />
    <glyph glyph-name="B" unicode="B" horiz-adv-x="609" 
d="M-20 0l10 40h109l141 568h-111l10 40h260q213 0 213 -134q0 -24 -8 -48.5t-28.5 -52t-64 -47.5t-104.5 -26v-2q156 -30 156 -139q0 -73 -48 -121q-78 -78 -271 -78h-264zM248 360h91q87 0 141 42t54 117q0 89 -133 89h-91zM169 40h82q235 0 235 167q0 52 -42 83t-118 31
h-87z" />
    <glyph glyph-name="C" unicode="C" horiz-adv-x="647" 
d="M313 -15q-115 0 -178 73t-63 183q0 109 47 206t129 156.5t178 59.5q118 0 179 -83l39 80h41l-56 -232h-35q-2 98 -47 144.5t-123 46.5q-79 0 -144 -53.5t-100 -139t-35 -182.5q0 -101 48 -157t134 -56q44 0 81.5 17.5t66.5 50t49 65t41 77.5l38 -16q-104 -240 -290 -240z
" />
    <glyph glyph-name="D" unicode="D" horiz-adv-x="676" 
d="M-20 0l10 40h109l141 568h-110l10 40h234q148 0 219.5 -66.5t71.5 -180.5q0 -80 -31 -155.5t-90 -132.5q-56 -55 -132 -84t-194 -29h-238zM168 40h40q181 0 268 87q115 115 115 292q0 189 -226 189h-55z" />
    <glyph glyph-name="E" unicode="E" horiz-adv-x="628" 
d="M139 648h528l-49 -196h-34q4 41 6.5 63t2 42.5t-2.5 28.5t-9 14t-15.5 7t-23.5 1h-232l-64 -257h112q36 0 50 16t39 83h31l-59 -238h-31q10 71 4.5 87t-40.5 16h-114l-69 -275h223q50 0 73.5 29.5t68.5 146.5h34l-54 -216h-534l10 40h109l141 568h-111z" />
    <glyph glyph-name="F" unicode="F" horiz-adv-x="615" 
d="M243 339h106q37 0 52 16t42 86h31l-61 -246h-31q11 75 5.5 91.5t-39.5 16.5h-113l-66 -263h121l-10 -40h-300l10 40h109l141 568h-111l10 40h540l-50 -200h-34q10 73 6.5 108.5t-13 43.5t-37.5 8h-241z" />
    <glyph glyph-name="G" unicode="G" horiz-adv-x="691" 
d="M312 31q79 0 131 60t76 154l7 28h-123l12 40h282l-10 -40h-91l-70 -280h-36l1 96q-80 -105 -192 -105q-108 0 -167.5 74t-59.5 183q0 169 103.5 295.5t250.5 126.5q118 0 179 -83l39 80h41l-56 -232h-35q-2 98 -47 144.5t-123 46.5q-121 0 -200 -113.5t-79 -275.5
q0 -92 43.5 -145.5t123.5 -53.5z" />
    <glyph glyph-name="H" unicode="H" horiz-adv-x="746" 
d="M-20 0l10 40h109l141 568h-111l10 40h277l-10 -40h-96l-63 -254h318l63 254h-98l10 40h277l-10 -40h-109l-141 -568h111l-10 -40h-277l10 40h96l69 276h-318l-69 -276h98l-10 -40h-277z" />
    <glyph glyph-name="I" unicode="I" horiz-adv-x="366" 
d="M-16 0l10 40h109l141 568h-111l10 40h290l-10 -40h-109l-141 -568h111l-10 -40h-290z" />
    <glyph glyph-name="J" unicode="J" horiz-adv-x="507" 
d="M485 608l-108 -436q-47 -188 -208 -188q-75 0 -119 39.5t-44 92.5q0 35 19 58.5t51 23.5q24 0 37 -14.5t13 -35.5q0 -23 -16 -40.5t-46 -22.5q7 -29 36 -45t67 -16q55 0 88 36.5t52 111.5l108 436h-103l10 40h268l-10 -40h-95z" />
    <glyph glyph-name="K" unicode="K" horiz-adv-x="702" 
d="M690 608l-287 -232l159 -336h83l-10 -40h-259l10 40h94l-133 292l-132 -108l-46 -184h98l-10 -40h-277l10 40h109l141 568h-111l10 40h277l-10 -40h-96l-79 -321l390 321h-90l10 40h241l-10 -40h-82z" />
    <glyph glyph-name="L" unicode="L" horiz-adv-x="589" 
d="M139 648h277l-10 -40h-96l-141 -568h214q47 0 67 29t65 151h34l-55 -220h-514l10 40h109l141 568h-111z" />
    <glyph glyph-name="M" unicode="M" horiz-adv-x="896" 
d="M-20 0l10 40h104l141 568h-106l10 40h213l64 -528h3l332 528h217l-10 -40h-109l-141 -568h111l-10 -40h-265l10 40h84l141 568h-4l-387 -609h-24l-79 609h-4l-141 -568h92l-10 -40h-242z" />
    <glyph glyph-name="N" unicode="N" horiz-adv-x="733" 
d="M520 -16l-247 585h-2l-131 -529h92l-10 -40h-242l10 40h104l141 568h-106l10 40h173l226 -531h2l121 491h-94l10 40h237l-10 -40h-97l-155 -624h-32z" />
    <glyph glyph-name="O" unicode="O" horiz-adv-x="685" 
d="M74 256q0 103 43.5 195.5t123.5 151.5t176 59q110 0 178 -75t68 -197q0 -103 -43.5 -195.5t-123.5 -151.5t-176 -59q-110 0 -178 75t-68 197zM415 620q-67 0 -120.5 -37.5t-84.5 -95.5t-47.5 -120.5t-16.5 -121.5q0 -112 48.5 -165.5t127.5 -53.5q66 0 120 37t85 95
t47.5 121t16.5 121q0 113 -48.5 166.5t-127.5 53.5z" />
    <glyph glyph-name="P" unicode="P" horiz-adv-x="592" 
d="M226 270l-57 -230h122l-10 -40h-301l10 40h109l141 568h-111l10 40h260q216 0 216 -151q0 -107 -81.5 -167t-217.5 -60h-90zM236 310h92q107 0 159.5 54t52.5 140q0 50 -31 77t-111 27h-88z" />
    <glyph glyph-name="Q" unicode="Q" horiz-adv-x="685" 
d="M320 -16q-110 0 -178 75t-68 197q0 103 43.5 195.5t123.5 151.5t176 59q110 0 178 -75t68 -197q0 -107 -48.5 -204t-130.5 -152q17 -47 33 -66t42 -19t45 24t42 76l37 -14q-25 -65 -55.5 -102.5t-76.5 -37.5q-44 0 -70.5 28t-45.5 85q-58 -24 -115 -24zM190 85
q-6 57 28.5 99.5t93.5 42.5q61 0 96 -38t60 -107l6 6q55 55 86 142.5t31 169.5q0 113 -48.5 166.5t-127.5 53.5q-67 0 -120.5 -37.5t-84.5 -95.5t-47.5 -120.5t-16.5 -121.5q0 -100 44 -160zM332 25q49 0 90 23q0 1 -0.5 3t-0.5 3q-18 65 -44.5 99t-70.5 34q-32 0 -54 -23.5
t-22 -59.5q0 -33 25 -56t77 -23z" />
    <glyph glyph-name="R" unicode="R" horiz-adv-x="660" 
d="M-20 0l10 40h109l141 568h-111l10 40h280q113 0 161 -40.5t48 -102.5q0 -71 -49 -125t-147 -65l-1 -2q56 -15 76.5 -41t20.5 -68q0 -22 -7 -67t-7 -61q0 -44 42 -44q31 0 68 17l10 -22q-55 -38 -112 -38q-36 0 -59 20.5t-23 62.5q0 25 10 79.5t10 80.5q0 32 -22 48
t-79 16h-126l-64 -256h112l-10 -40h-291zM241 333h114q102 0 152 50q48 48 48 128q0 48 -31.5 73t-102.5 24h-111z" />
    <glyph glyph-name="S" unicode="S" horiz-adv-x="553" 
d="M-1 -13l55 224h31q35 -190 203 -190q60 0 102.5 37t42.5 97q0 47 -33.5 77.5t-110.5 66.5q-80 38 -121.5 76t-41.5 100q0 78 59 132.5t150 54.5q109 0 176 -80l40 77h35l-51 -211h-32q-16 102 -61.5 140t-111.5 38q-56 0 -97.5 -35.5t-41.5 -92.5q0 -25 9 -44.5
t30.5 -36.5t39.5 -27.5t54 -28.5q46 -23 70.5 -37t53 -37t40.5 -49.5t12 -60.5q0 -82 -62.5 -137.5t-153.5 -55.5q-129 0 -204 94l-45 -91h-36z" />
    <glyph glyph-name="T" unicode="T" horiz-adv-x="650" 
d="M122 0l10 40h113l142 568h-118q-47 0 -67 -29t-67 -151h-32l55 220h548l-55 -220h-30q14 112 7 146t-55 34h-116l-142 -568h115l-10 -40h-298z" />
    <glyph glyph-name="U" unicode="U" horiz-adv-x="708" 
d="M315 -16q-98 0 -151 46t-53 117q0 39 15 100l89 361h-96l10 40h266l-10 -40h-100l-83 -333q-21 -87 -21 -127q0 -55 39.5 -85t113.5 -30q90 0 146 56q46 46 69 135l95 384h-98l10 40h232l-10 -40h-88l-100 -404q-22 -86 -78 -142q-78 -78 -197 -78z" />
    <glyph glyph-name="V" unicode="V" horiz-adv-x="674" 
d="M247 608l66 -519h2l318 519h-92l10 40h216l-10 -40h-69l-384 -612h-43l-83 612h-79l10 40h250l-10 -40h-102z" />
    <glyph glyph-name="W" unicode="W" horiz-adv-x="965" 
d="M581 -4l-35 494l-280 -494h-47l-44 612h-76l10 40h250l-10 -40h-106l32 -511h2l264 466l-3 45h-74l10 40h247l-10 -40h-106l32 -511h2l287 511h-92l10 40h214l-10 -40h-69l-351 -612h-47z" />
    <glyph glyph-name="X" unicode="X" horiz-adv-x="647" 
d="M372 608h-94l89 -235l214 235h-92l10 40h230l-10 -40h-76l-255 -275l118 -293h84l-10 -40h-254l10 40h93l-96 248l-227 -248h89l-10 -40h-228l10 40h77l269 289l-112 279h-84l10 40h255z" />
    <glyph glyph-name="Y" unicode="Y" horiz-adv-x="648" 
d="M361 321l232 287h-83l10 40h217l-10 -40h-77l-280 -338l-60 -230h103l-10 -40h-272l10 40h99l62 243l-94 325h-82l10 40h247l-10 -40h-90z" />
    <glyph glyph-name="Z" unicode="Z" horiz-adv-x="570" 
d="M-18 0l6 25l542 583h-270q-32 0 -50 -26.5t-66 -145.5h-30l52 212h469l-7 -25l-539 -583h290q30 0 48.5 28t68.5 151h30l-54 -219h-490z" />
    <glyph glyph-name="bracketleft" unicode="[" horiz-adv-x="334" 
d="M-3 -149l216 868h236l-9 -38h-171l-198 -792h171l-9 -38h-236z" />
    <glyph glyph-name="backslash" unicode="\" horiz-adv-x="408" 
d="M346 -199l-42 -8l-162 897l42 8z" />
    <glyph glyph-name="bracketright" unicode="]" horiz-adv-x="334" 
d="M369 719l-216 -868h-236l9 38h171l198 792h-171l9 38h236z" />
    <glyph glyph-name="asciicircum" unicode="^" horiz-adv-x="333" 
d="M106 508l162 195h36l66 -195h-28l-69 124l-133 -124h-34z" />
    <glyph glyph-name="underscore" unicode="_" horiz-adv-x="440" 
d="M-57 0l11 45h444l-11 -45h-444z" />
    <glyph glyph-name="grave" unicode="`" horiz-adv-x="238" 
d="M218 640l20 -117h-26l-37 79q-4 9 -14.5 30t-14 31.5t-3.5 20.5q0 15 9 24t23 9q19 0 27.5 -18t15.5 -59z" />
    <glyph glyph-name="a" unicode="a" 
d="M447 446l-75 -277q-18 -66 -18 -96q0 -34 25 -34q37 0 80 118l27 -9q-32 -89 -60.5 -123t-61.5 -34q-28 0 -46 20t-18 60q0 16 3 28l-7 3q-73 -111 -148 -111q-51 0 -83 39.5t-32 108.5q0 70 28.5 137.5t74.5 113.5q62 62 127 62q36 0 62.5 -23.5t35.5 -71.5l24 89h62z
M168 38q62 0 119 92t57 174q0 40 -18.5 75.5t-59.5 35.5q-62 0 -115 -90t-53 -188q0 -49 19 -74t51 -25z" />
    <glyph glyph-name="b" unicode="b" horiz-adv-x="456" 
d="M289 405q-43 0 -86 -46.5t-68 -110t-25 -115.5q0 -44 19 -74t61 -30q68 0 119 91t51 186q0 49 -19 74t-52 25zM249 687l-96 -343l7 -3q73 111 149 111q52 0 84 -39t32 -109q0 -118 -75.5 -215.5t-164.5 -97.5q-58 0 -97.5 37.5t-39.5 104.5q0 47 28 155l100 360h-95
l10 39h158z" />
    <glyph glyph-name="c" unicode="c" horiz-adv-x="417" 
d="M277 452q49 0 84.5 -25.5t35.5 -66.5q0 -26 -13.5 -44.5t-34.5 -18.5q-17 0 -29 10.5t-12 29.5q0 32 32 56q-22 26 -64 26q-52 0 -94.5 -40.5t-63.5 -96t-21 -109.5q0 -66 28 -103t73 -37q78 0 137 107l25 -15q-71 -134 -177 -134q-69 0 -110.5 49.5t-41.5 128.5
q0 105 74 194t172 89z" />
    <glyph glyph-name="d" unicode="d" 
d="M168 38q43 0 85.5 47t67.5 110.5t25 114.5q0 46 -20 75.5t-62 29.5q-44 0 -83 -43.5t-61 -107.5t-22 -127q0 -49 19 -74t51 -25zM459 157l27 -9q-32 -89 -60.5 -123t-61.5 -34q-28 0 -46 20t-18 60q0 16 3 28l-7 3q-73 -111 -148 -111q-51 0 -83 39.5t-32 108.5
q0 71 27.5 138t73.5 113q62 62 128 62q36 0 64 -22t37 -65l76 283h-95l10 39h158l-140 -518q-18 -66 -18 -96q0 -34 25 -34q37 0 80 118z" />
    <glyph glyph-name="e" unicode="e" horiz-adv-x="419" 
d="M400 364q0 -143 -302 -179q-1 -9 -1 -27q0 -62 25.5 -95t69.5 -33q79 0 152 102l24 -17q-86 -124 -190 -124q-67 0 -107 42t-40 117q0 114 85.5 208t178.5 94q49 0 77 -25.5t28 -62.5zM281 419q-60 0 -110.5 -63t-67.5 -142q236 31 236 148q0 27 -16 42t-42 15z" />
    <glyph glyph-name="f" unicode="f" horiz-adv-x="308" 
d="M-20 -160q-29 0 -44 14.5t-15 34.5t11.5 34.5t30.5 14.5q16 0 25 -10t9 -25q0 -21 -13 -36q27 0 43.5 35.5t40.5 146.5l74 354h-99l9 35h97q51 252 191 254q42 1 67 -18.5t25 -48.5q0 -24 -13 -41.5t-33 -17.5q-16 0 -26 10.5t-10 27.5q0 28 21 48q-11 9 -31 9
q-47 0 -72.5 -45.5t-46.5 -138.5l-9 -39h124l-9 -35h-122l-68 -326q-27 -130 -65 -183.5t-92 -53.5z" />
    <glyph glyph-name="g" unicode="g" horiz-adv-x="469" 
d="M57 -108q19 -18 68 -18q62 0 102 40q46 46 77 183l-7 3q-62 -79 -133 -79q-55 0 -90 41t-35 106q0 61 25.5 122t68.5 104q58 58 125 58q38 0 67 -23t39 -69l23 86h62l-86 -361q-29 -124 -87 -184.5t-148 -60.5q-30 0 -58.5 6.5t-52.5 26.5t-24 50q0 23 14 40.5t35 17.5
q18 0 29 -11.5t11 -29.5q0 -29 -25 -48zM189 65q65 0 112.5 76t47.5 167q0 43 -24 75t-64 32q-63 0 -110 -78.5t-47 -158.5q0 -56 23 -84.5t62 -28.5z" />
    <glyph glyph-name="h" unicode="h" horiz-adv-x="514" 
d="M368 -9q-29 0 -48 23t-18 63q0 40 37.5 137.5t37.5 140.5q0 45 -42 45q-54 0 -124 -101t-124 -299h-67l171 648h-95l10 39h158l-119 -438l7 -3q49 99 103 152.5t105 53.5q36 0 59 -25.5t23 -70.5q0 -46 -39 -150.5t-39 -138.5q0 -28 22 -28q37 0 80 118l27 -9
q-32 -89 -61.5 -123t-63.5 -34z" />
    <glyph glyph-name="i" unicode="i" horiz-adv-x="306" 
d="M279 597q0 -21 -14.5 -39.5t-37.5 -18.5q-16 0 -27.5 11t-11.5 31q0 22 14 40.5t37 18.5q18 0 29 -11.5t11 -31.5zM227 364q0 -47 -44 -156.5t-44 -140.5q0 -28 24 -28q38 0 81 118l27 -9q-32 -88 -61.5 -122.5t-62.5 -34.5t-52 22t-18 61q0 42 45 151t45 154
q0 31 -22 31q-21 0 -43.5 -30t-52.5 -87l-26 12q36 74 66.5 110.5t68.5 36.5q32 0 50.5 -23.5t18.5 -64.5z" />
    <glyph glyph-name="j" unicode="j" horiz-adv-x="262" 
d="M278 597q0 -21 -14.5 -39.5t-37.5 -18.5q-16 0 -27.5 11t-11.5 31q0 22 14 40.5t37 18.5q18 0 29 -11.5t11 -31.5zM225 372q0 -27 -14 -83l-61 -232q-57 -217 -161 -217q-30 0 -45 14.5t-15 35.5q0 20 12 34t30 14q17 0 26 -10t9 -26q0 -20 -13 -37q12 0 22 6.5
t27.5 41.5t34.5 100l77 296q11 42 11 68q0 33 -22 33q-34 0 -95 -117l-26 12q35 73 66 110t69 37q30 0 49 -22t19 -58z" />
    <glyph glyph-name="k" unicode="k" horiz-adv-x="472" 
d="M314 75q0 -36 23 -36q37 0 80 118l27 -9q-32 -89 -61.5 -123t-63.5 -34q-29 0 -48.5 23t-18.5 63q1 18 5 51.5t4 42.5q0 30 -17 42.5t-67 12.5h-36l-60 -226h-61l171 648h-95l10 39h158l-116 -432h22q37 0 64 22t58 75t55 76.5t56 23.5q29 0 44 -14t15 -38
q0 -25 -13.5 -41.5t-33.5 -16.5q-23 0 -32 21.5t4 47.5q-18 -1 -33.5 -19t-37.5 -56q-41 -70 -89 -90q95 -6 95 -77q0 -17 -4 -47.5t-4 -46.5z" />
    <glyph glyph-name="l" unicode="l" horiz-adv-x="250" 
d="M35 72q0 31 18 97l129 479h-95l10 39h158l-140 -518q-18 -66 -18 -96q0 -34 25 -34q37 0 80 118l27 -9q-32 -89 -61 -123t-63 -34q-32 0 -51 21.5t-19 59.5z" />
    <glyph glyph-name="m" unicode="m" horiz-adv-x="808" 
d="M662 -9q-29 0 -48 23t-18 63q0 40 37.5 137.5t37.5 140.5q0 45 -42 45q-53 0 -119 -100t-120 -300h-66l20 75q10 36 25.5 91t23 81.5t13.5 56t6 46.5q0 50 -44 50q-53 0 -119 -100t-120 -300h-67l82 306q28 104 -8 104q-10 0 -20.5 -8t-23 -28t-21 -34.5t-24.5 -46.5
l-26 12q33 73 62.5 109t65.5 36q58 0 58 -74q0 -45 -22 -123l7 -3q99 202 201 202q35 0 56 -24t21 -64q0 -43 -24 -111l7 -3q99 202 201 202q36 0 59 -25.5t23 -70.5q0 -46 -39 -150.5t-39 -138.5q0 -28 22 -28q37 0 80 118l27 -9q-32 -89 -61.5 -123t-63.5 -34z" />
    <glyph glyph-name="n" unicode="n" horiz-adv-x="547" 
d="M397 67q0 -28 22 -28q37 0 80 118l27 -9q-32 -89 -61.5 -123t-63.5 -34q-29 0 -48 23t-18 63q0 40 37.5 137.5t37.5 140.5q0 45 -42 45q-53 0 -119 -100t-120 -300h-67l82 306q28 104 -8 104q-10 0 -20.5 -8t-23 -28t-21 -34.5t-24.5 -46.5l-26 12q33 73 62.5 109
t65.5 36q58 0 58 -74q0 -45 -22 -123l7 -3q99 202 201 202q36 0 59 -25.5t23 -70.5q0 -46 -39 -150.5t-39 -138.5z" />
    <glyph glyph-name="o" unicode="o" horiz-adv-x="459" 
d="M267 452q74 0 115.5 -50t41.5 -130q0 -112 -69 -196.5t-162 -84.5q-75 0 -116.5 50t-41.5 130q0 112 69.5 196.5t162.5 84.5zM360 297q0 62 -26 92t-66 30q-50 0 -90.5 -45.5t-59.5 -107t-19 -120.5q0 -62 26 -92t66 -30q50 0 90.5 45.5t59.5 107t19 120.5z" />
    <glyph glyph-name="p" unicode="p" horiz-adv-x="510" 
d="M341 405q-43 0 -86 -47t-68 -110t-25 -115q0 -40 21.5 -69t63.5 -29q44 0 83 43.5t60.5 106t21.5 121.5q0 49 -19 74t-52 25zM145 311q25 92 -11 92q-19 0 -37.5 -24t-49.5 -86l-26 12q33 75 63 110t65 35q59 0 59 -76q0 -18 -3 -30l7 -3q73 111 149 111q52 0 84 -39
t32 -109q0 -115 -70.5 -210t-157.5 -95q-37 0 -66 20.5t-38 58.5l-49 -185h100l-11 -40h-236l11 40h74z" />
    <glyph glyph-name="q" unicode="q" horiz-adv-x="466" 
d="M449 446l-147 -553h100l-11 -40h-236l11 40h74l55 203l-7 3q-65 -99 -139 -99q-52 0 -84 39t-32 109q0 67 28 132t73 110q62 62 129 62q37 0 65 -22t37 -65l22 81h62zM169 47q41 0 84 44.5t69 106t26 112.5q0 46 -20.5 75.5t-62.5 29.5q-44 0 -83.5 -43t-61.5 -105
t-22 -121q0 -49 19 -74t52 -25z" />
    <glyph glyph-name="r" unicode="r" horiz-adv-x="406" 
d="M62 0l82 306q28 104 -8 104q-10 0 -20.5 -8t-23 -28t-21 -34.5t-24.5 -46.5l-26 12q33 73 62.5 109t65.5 36q58 0 58 -74q0 -45 -22 -123l8 -3q52 104 90.5 153t78.5 49q22 0 36 -14.5t14 -37.5q0 -25 -14 -43t-33 -18t-29 15.5t-6 42.5q-41 -20 -99 -126t-102 -271h-67z
" />
    <glyph glyph-name="s" unicode="s" horiz-adv-x="408" 
d="M343 128q0 -64 -48.5 -100.5t-115.5 -36.5q-59 0 -108 28.5t-49 71.5q0 23 13.5 40.5t35.5 17.5q17 0 27.5 -11t10.5 -29q0 -30 -26 -50q12 -16 38.5 -26.5t57.5 -10.5q47 0 76 25t29 63q0 28 -18.5 45.5t-78.5 45.5q-23 11 -37 19t-31.5 22t-26 33t-8.5 42q0 61 46.5 98
t113.5 37q56 0 99 -24.5t43 -65.5q0 -21 -12.5 -37t-32.5 -16q-17 0 -28 10.5t-11 28.5q0 28 24 46q-9 10 -32.5 18.5t-49.5 8.5q-46 0 -73.5 -23.5t-27.5 -59.5q0 -28 19 -47.5t69 -41.5q58 -26 85 -51.5t27 -69.5z" />
    <glyph glyph-name="t" unicode="t" horiz-adv-x="335" 
d="M336 403h-134l-66 -243q-14 -54 -14 -74q0 -22 11.5 -32.5t28.5 -10.5q55 0 107 122l28 -9q-63 -165 -154 -165q-41 0 -63.5 24.5t-22.5 59.5q0 33 17 92l64 236h-91l9 35h91l35 129l67 10l-38 -139h134z" />
    <glyph glyph-name="u" unicode="u" horiz-adv-x="544" 
d="M406 -9q-28 0 -46 20t-18 60q0 42 21 117l-7 3q-98 -200 -198 -200q-36 0 -59 25.5t-23 70.5q0 46 38 150.5t38 138.5q0 28 -22 28q-10 0 -19 -7t-21 -25.5t-19 -31.5t-24 -46l-26 12q21 43 31 61.5t26.5 42.5t33 33t36.5 9q29 0 48.5 -23t18.5 -63q0 -40 -37 -137.5
t-37 -140.5q0 -44 42 -44q53 0 118 100t120 302h67l-74 -277q-18 -66 -18 -96q0 -34 25 -34q37 0 80 118l27 -9q-32 -89 -60.5 -123t-61.5 -34z" />
    <glyph glyph-name="v" unicode="v" horiz-adv-x="460" 
d="M148 452q31 0 50.5 -22.5t18.5 -63.5q-1 -43 -40.5 -141.5t-39.5 -127.5q0 -31 20 -45t47 -14q54 0 100.5 57t69.5 130t22 133q-18 -6 -21 -6q-20 0 -31.5 12t-11.5 32q0 23 13.5 41t35.5 18q52 0 52 -87q0 -75 -30 -161t-89.5 -152.5t-129.5 -66.5q-53 0 -83 29.5
t-30 76.5q0 39 41.5 142.5t41.5 139.5q0 28 -24 28q-10 0 -19 -7t-21 -25.5t-19 -31.5t-24 -46l-26 12q21 43 31 61.5t26.5 42.5t33 33t36.5 9z" />
    <glyph glyph-name="w" unicode="w" horiz-adv-x="676" 
d="M148 452q31 0 50.5 -22.5t18.5 -63.5q-1 -46 -44 -143.5t-43 -133.5q0 -51 45 -51q33 0 63 31.5t56.5 94.5t46.5 126t44 155h60l-45 -185q-23 -96 -23 -147q0 -75 54 -75q47 0 89.5 55.5t65.5 129.5t22 135q-18 -6 -21 -6q-20 0 -31.5 12t-11.5 32q0 23 13.5 41t35.5 18
q52 0 52 -87q0 -54 -17.5 -119.5t-47 -123.5t-73.5 -97.5t-91 -39.5q-95 0 -95 118q0 22 4 50l-7 1q-62 -169 -157 -169q-45 0 -71 28.5t-26 72.5q0 45 45 147t45 140q0 28 -24 28q-10 0 -19 -7t-21 -25.5t-19 -31.5t-24 -46l-26 12q21 43 31 61.5t26.5 42.5t33 33t36.5 9z
" />
    <glyph glyph-name="x" unicode="x" horiz-adv-x="503" 
d="M277 144q0 -108 53 -108q28 0 50 29t46 88l26 -11q-54 -152 -132 -152q-48 0 -72.5 41t-22.5 117l-6 1q-69 -161 -158 -161q-26 0 -41 14t-15 38t13 41t33 17t29.5 -17.5t3.5 -47.5q55 17 97 102.5t42 162.5q0 108 -53 108q-28 0 -50 -29t-46 -88l-26 11q54 152 132 152
q48 0 72.5 -41t22.5 -117l6 -1q69 161 158 161q26 0 41 -14t15 -38t-13 -41t-33 -17t-29.5 17.5t-3.5 47.5q-55 -17 -97 -102.5t-42 -162.5z" />
    <glyph glyph-name="y" unicode="y" horiz-adv-x="507" 
d="M148 452q29 0 48.5 -23t18.5 -63q-1 -42 -34.5 -126.5t-33.5 -118.5q0 -47 45 -47q24 0 52.5 18.5t61 58t64 116.5t53.5 179h62l-77 -326q-36 -150 -97.5 -215t-153.5 -65q-43 0 -81 18.5t-38 59.5q0 22 14 38.5t35 16.5q19 0 29.5 -11t10.5 -28q0 -28 -26 -45
q19 -15 56 -15q76 0 123 64.5t78 218.5l4 20l-6 3q-97 -159 -186 -159q-38 0 -63 24t-25 68q0 39 35 133.5t35 129.5q0 28 -22 28q-10 0 -19 -7t-21 -25.5t-19 -31.5t-24 -46l-26 12q21 43 31 61.5t26.5 42.5t33 33t36.5 9z" />
    <glyph glyph-name="z" unicode="z" horiz-adv-x="421" 
d="M90 102q35 -7 85 -27t74 -20q35 0 56.5 25t51.5 96l30 -14q-32 -87 -66.5 -129t-88.5 -42q-57 0 -124 67l-30 30l-9 -2q-6 -95 -52 -95q-14 0 -25 9t-11 25q0 20 18 39t55 30q95 129 279 247q-35 7 -85 27t-74 20q-34 0 -55 -24.5t-53 -96.5l-30 14q32 87 66.5 129
t88.5 42q57 0 124 -67l30 -30l9 2q6 95 52 95q14 0 25 -9t11 -25q0 -20 -18 -39t-55 -30q-95 -129 -279 -247z" />
    <glyph glyph-name="braceleft" unicode="{" horiz-adv-x="388" 
d="M279 -150q-157 35 -157 137q0 39 25 115t25 97q0 67 -115 67h-30l10 39h30q83 0 127 44q25 25 34.5 68.5t9 84.5t12.5 88t43 77q63 63 189 54l-9 -34q-87 0 -126 -39q-24 -24 -35 -68.5t-12.5 -86t-12.5 -86.5t-36 -70q-40 -40 -112 -52v-1q90 -22 90 -93
q0 -26 -22.5 -101t-22.5 -108q0 -73 104 -98z" />
    <glyph glyph-name="bar" unicode="|" horiz-adv-x="270" 
d="M7 -199l224 897l44 -7l-224 -897z" />
    <glyph glyph-name="braceright" unicode="}" horiz-adv-x="388" 
d="M109 721q157 -35 157 -137q0 -40 -25 -115t-25 -97q0 -67 115 -67h30l-10 -39h-30q-83 0 -127 -44q-24 -24 -34 -68t-9.5 -85t-12.5 -88t-43 -77q-63 -63 -189 -54l9 34q87 0 126 39q24 24 35 68.5t12.5 86t12.5 86.5t36 70q40 40 112 52v1q-90 22 -90 93q0 26 22.5 101
t22.5 108q0 73 -104 98z" />
    <glyph glyph-name="asciitilde" unicode="~" horiz-adv-x="371" 
d="M147 322q-20 0 -34 -17.5t-29 -51.5h-31q25 68 48 94t55 26q28 0 65 -32t54 -32q34 0 64 69h30q-25 -68 -48.5 -94t-55.5 -26q-28 0 -64.5 32t-53.5 32z" />
    <glyph glyph-name="uni00A0" unicode="&#xa0;" horiz-adv-x="174" 
 />
    <glyph glyph-name="exclamdown" unicode="&#xa1;" horiz-adv-x="256" 
d="M203 467q-22 -97 -47 -254t-33 -188q-10 -39 -44 -39q-19 0 -29 11t-10 27q0 6 1.5 14.5t5 22t7 24.5t10.5 32.5t12 35.5t15 43t16 47q43 124 74 230zM232 674q19 0 31.5 -14t12.5 -34q0 -23 -14.5 -39.5t-35.5 -16.5q-19 0 -31.5 14t-12.5 34q0 23 14.5 39.5t35.5 16.5z
" />
    <glyph glyph-name="cent" unicode="&#xa2;" horiz-adv-x="440" 
d="M293 537l34 -7l-19 -79q53 -4 86.5 -31t33.5 -66q0 -26 -13.5 -44.5t-34.5 -18.5q-17 0 -29 10.5t-12 29.5q0 32 32 56q-20 29 -72 32l-97 -386h11q42 0 76.5 23.5t67.5 83.5l25 -15q-34 -65 -77.5 -99.5t-106.5 -34.5h-7l-23 -95l-34 7l23 93q-57 12 -89 58.5t-32 114.5
q0 102 68 187.5t168 94.5zM102 173q0 -103 68 -132l93 375q-74 -13 -117.5 -88t-43.5 -155z" />
    <glyph glyph-name="sterling" unicode="&#xa3;" horiz-adv-x="569" 
d="M458 288h-176q0 -80 -56 -165q28 -12 64 -32q74 -42 105 -42q30 0 50 24.5t41 81.5l29 -8q-22 -86 -54 -124t-80 -38q-25 0 -52 10.5t-43 21t-44 31.5q-37 26 -41 29q-27 -48 -52 -70.5t-59 -22.5q-31 0 -52.5 19t-21.5 52q0 37 29 64t78 27q31 0 71 -11q27 58 27 119
q0 18 -3 34h-147l10 41h129q-13 52 -13 88q0 100 66.5 160.5t150.5 60.5q81 0 123 -38.5t42 -88.5q0 -32 -17.5 -55t-44.5 -23q-21 0 -34.5 14t-13.5 35q0 22 15 38.5t39 21.5q-12 29 -42.5 43t-64.5 14q-65 0 -107.5 -44t-42.5 -116q0 -20 2.5 -39t6 -39t4.5 -32h189z
M94 21q24 0 41 18t37 55q-30 14 -55 14q-29 0 -44.5 -15.5t-15.5 -35.5q0 -17 10.5 -26.5t26.5 -9.5z" />
    <glyph glyph-name="yen" unicode="&#xa5;" horiz-adv-x="660" 
d="M127 302h167l-89 285h-80l10 38h247l-10 -38h-89l81 -270l222 270h-87l10 38h213l-10 -38h-71l-240 -285h160l-9 -39h-184l-18 -75h186l-9 -39h-187l-26 -108h119l-10 -41h-304l10 41h120l27 108h-183l9 39h183l19 75h-186z" />
    <glyph glyph-name="section" unicode="&#xa7;" horiz-adv-x="488" 
d="M450 262q0 -48 -38 -84t-107 -51q77 -52 80 -108q2 -56 -46 -96.5t-126 -40.5q-72 0 -127.5 32.5t-55.5 85.5q0 28 16.5 47.5t39.5 19.5q20 0 32 -13t12 -31q0 -37 -37 -57q4 -8 15.5 -17t40 -19t64.5 -10q54 0 83 26t27 61q-2 25 -26 50t-83 59q-74 43 -101.5 73.5
t-27.5 69.5q0 48 38 84t107 51q-70 47 -70 107q0 57 49 97.5t123 40.5q69 0 116 -31t47 -80q0 -27 -16 -45.5t-37 -18.5q-19 0 -30.5 12.5t-11.5 29.5q0 33 35 54q-5 8 -14.5 16t-34.5 16.5t-56 8.5q-50 0 -79 -26t-29 -62q0 -50 100 -109q73 -44 100.5 -73.5t27.5 -68.5z
M294 355l-27 15q-53 -7 -84.5 -35.5t-31.5 -68.5q0 -27 20.5 -50t69.5 -50l27 -15q53 7 84.5 35.5t31.5 68.5q0 50 -90 100z" />
    <glyph glyph-name="dieresis" unicode="&#xa8;" horiz-adv-x="322" 
d="M213 602q0 -23 -13.5 -39.5t-32.5 -16.5q-18 0 -28 12.5t-10 31.5q0 23 13.5 39.5t32.5 16.5q18 0 28 -12.5t10 -31.5zM379 602q0 -23 -13.5 -39.5t-32.5 -16.5q-18 0 -28 12.5t-10 31.5q0 23 13.5 39.5t32.5 16.5q18 0 28 -12.5t10 -31.5z" />
    <glyph glyph-name="copyright" unicode="&#xa9;" horiz-adv-x="787" 
d="M431 -32q-150 0 -253.5 104.5t-103.5 257.5q0 152 103.5 256t253.5 104t254 -104t104 -256q0 -153 -104 -257.5t-254 -104.5zM431 -1q136 0 229 95.5t93 235.5q0 138 -93 233.5t-229 95.5q-134 0 -227.5 -95.5t-93.5 -233.5q0 -139 93.5 -235t227.5 -96zM432 144
q-73 0 -118.5 51.5t-45.5 136.5q0 82 47.5 135.5t118.5 53.5q68 0 106 -45l11 43h29v-132h-24q-34 104 -119 104q-56 0 -87.5 -42.5t-31.5 -112.5q0 -76 33 -118.5t89 -42.5q47 0 77 30.5t38 85.5h28q-9 -70 -48.5 -108.5t-102.5 -38.5z" />
    <glyph glyph-name="ordfeminine" unicode="&#xaa;" horiz-adv-x="398" 
d="M360 637h50l-55 -202q-13 -48 -13 -69q0 -25 16 -25q29 0 60 87l25 -8q-24 -65 -46.5 -89.5t-48.5 -24.5q-23 0 -37 14.5t-14 43.5q0 4 1 10v5l-5 2q-50 -75 -111 -75q-38 0 -62.5 28.5t-24.5 78.5q0 103 76 179q49 49 101 49q58 0 71 -66zM197 345q49 0 90.5 66
t41.5 130q0 25 -12 46.5t-43 21.5q-46 0 -87 -63t-41 -131q0 -70 51 -70z" />
    <glyph glyph-name="guillemotleft" unicode="&#xab;" horiz-adv-x="486" 
d="M173 33l-109 156q-18 25 -18 35q0 14 38 45l184 146l23 -23l-178 -172l90 -169zM362 33l-109 156q-18 25 -18 35q0 14 38 45l184 146l23 -23l-178 -172l90 -169z" />
    <glyph glyph-name="registered" unicode="&#xae;" horiz-adv-x="517" 
d="M327 248q-94 0 -157.5 63.5t-63.5 158.5t63.5 157.5t157.5 62.5q95 0 158.5 -62.5t63.5 -157.5t-63.5 -158.5t-158.5 -63.5zM327 274q86 0 138.5 54t52.5 142q0 87 -52 140.5t-139 53.5q-85 0 -137.5 -54t-52.5 -140q0 -87 52.5 -141.5t137.5 -54.5zM294 460v-80h37v-21
h-109v21h36v185h-36v22h114q47 0 68 -17.5t21 -42.5q0 -20 -16.5 -35.5t-49.5 -19.5v-3q50 -8 55 -49l2 -25q1 -17 11 -17q9 0 16 20l15 -6q-12 -38 -41 -38q-35 0 -39 47l-2 22q-3 37 -43 37h-39zM294 480h38q52 0 52 44q0 41 -49 41h-41v-85z" />
    <glyph glyph-name="macron" unicode="&#xaf;" horiz-adv-x="321" 
d="M115 542l13 53h251l-13 -53h-251z" />
    <glyph glyph-name="degree" unicode="&#xb0;" horiz-adv-x="382" 
d="M243 382q51 0 87 42.5t36 109.5q0 43 -23.5 67t-61.5 24q-51 0 -87 -42.5t-36 -109.5q0 -43 23.5 -67t61.5 -24zM415 529q0 -72 -49.5 -128t-123.5 -56q-63 0 -98 38.5t-35 94.5q0 72 49.5 128t123.5 56q63 0 98 -38.5t35 -94.5z" />
    <glyph glyph-name="plusminus" unicode="&#xb1;" horiz-adv-x="540" 
d="M236 159l41 166h-161l9 36h161l41 166h40l-41 -166h161l-9 -36h-161l-41 -166h-40zM407 32h-368l9 38h368z" />
    <glyph glyph-name="acute" unicode="&#xb4;" horiz-adv-x="238" 
d="M257 608l-92 -85h-32l80 118q31 46 45 61t30 15q13 0 21.5 -8.5t8.5 -21.5q0 -4 -0.5 -8t-2.5 -8.5t-4 -7.5t-6 -8t-6.5 -8t-8.5 -8.5t-9.5 -8.5t-11.5 -10.5t-12 -11.5z" />
    <glyph glyph-name="paragraph" unicode="&#xb6;" horiz-adv-x="632" 
d="M253 -104l69 275q-115 6 -165 52.5t-50 118.5q0 123 87.5 191t234.5 68h260l-10 -40h-90l-166 -665h-44l166 665h-82l-166 -665h-44z" />
    <glyph glyph-name="periodcentered" unicode="&#xb7;" horiz-adv-x="200" 
d="M121 274q-19 0 -31.5 14t-12.5 34q0 23 14.5 39.5t35.5 16.5q19 0 31.5 -14t12.5 -34q0 -23 -14.5 -39.5t-35.5 -16.5z" />
    <glyph glyph-name="cedilla" unicode="&#xb8;" horiz-adv-x="282" 
d="M-67 -165q41 -34 82 -34q25 0 42.5 14t17.5 39q0 21 -18.5 32t-40.5 10.5t-40 -1.5l-9 18l120 96h47l-100 -78v-3q42 -4 65.5 -22.5t23.5 -48.5q0 -40 -31.5 -65t-74.5 -25q-60 0 -105 41z" />
    <glyph glyph-name="ordmasculine" unicode="&#xba;" horiz-adv-x="390" 
d="M281 641q58 0 91.5 -37t33.5 -95q0 -82 -49.5 -142.5t-121.5 -60.5q-59 0 -92.5 37t-33.5 95q0 83 49.5 143t122.5 60zM355 522q0 46 -20.5 68t-50.5 22q-57 0 -90.5 -61t-33.5 -126q0 -46 20.5 -68t50.5 -22q57 0 90.5 61t33.5 126z" />
    <glyph glyph-name="guillemotright" unicode="&#xbb;" horiz-adv-x="486" 
d="M313 415l109 -156q18 -25 18 -35q0 -14 -38 -45l-184 -146l-23 23l178 172l-90 169zM124 415l109 -156q18 -25 18 -35q0 -14 -38 -45l-184 -146l-23 23l178 172l-90 169z" />
    <glyph glyph-name="questiondown" unicode="&#xbf;" horiz-adv-x="399" 
d="M127 414q49 69 118 69q42 0 67.5 -23.5t25.5 -61.5q0 -34 -27 -63.5t-95 -65.5q-84 -45 -115 -76.5t-31 -80.5q0 -37 25 -63.5t79 -26.5q64 0 100 38q-27 17 -27 46q0 22 14 37t35 15q20 0 34 -14.5t14 -39.5q0 -45 -52 -81.5t-123 -36.5q-85 0 -127.5 41t-42.5 95
q0 61 42.5 101.5t136.5 89.5q59 30 80 48.5t20 42.5q-1 20 -14 31.5t-32 11.5q-44 0 -85 -49zM300 674q19 0 31.5 -14t12.5 -34q0 -23 -14.5 -39.5t-35.5 -16.5q-19 0 -31.5 14t-12.5 34q0 23 14.5 39.5t35.5 16.5z" />
    <glyph glyph-name="Agrave" unicode="&#xc0;" horiz-adv-x="672" 
d="M367 40h102l-24 198h-239l-119 -198h92l-10 -40h-216l10 40h69l379 613h50l77 -613h79l-10 -40h-250zM229 276h211l-34 290h-2zM434 853l20 -117h-26l-37 79q-4 9 -14.5 30t-14 31.5t-3.5 20.5q0 15 9 24t23 9q19 0 27.5 -18t15.5 -59z" />
    <glyph glyph-name="Aacute" unicode="&#xc1;" horiz-adv-x="672" 
d="M367 40h102l-24 198h-239l-119 -198h92l-10 -40h-216l10 40h69l379 613h50l77 -613h79l-10 -40h-250zM229 276h211l-34 290h-2zM553 821l-92 -85h-32l80 118q31 46 45 61t30 15q13 0 21.5 -8.5t8.5 -21.5q0 -4 -0.5 -8t-2.5 -8.5t-4 -7.5t-6 -8t-6.5 -8t-8.5 -8.5
t-9.5 -8.5t-11.5 -10.5t-12 -11.5z" />
    <glyph glyph-name="Acircumflex" unicode="&#xc2;" horiz-adv-x="672" 
d="M367 40h102l-24 198h-239l-119 -198h92l-10 -40h-216l10 40h69l379 613h50l77 -613h79l-10 -40h-250zM229 276h211l-34 290h-2zM323 737l150 179h34l62 -179h-28l-64 108l-120 -108h-34z" />
    <glyph glyph-name="Atilde" unicode="&#xc3;" horiz-adv-x="672" 
d="M367 40h102l-24 198h-239l-119 -198h92l-10 -40h-216l10 40h69l379 613h50l77 -613h79l-10 -40h-250zM229 276h211l-34 290h-2zM410 811q-35 0 -60 -69h-30q21 68 43 95t54 27q28 0 66 -33t55 -33q35 0 60 69h30q-21 -68 -43 -95t-54 -27q-28 0 -66 33t-55 33z" />
    <glyph glyph-name="Adieresis" unicode="&#xc4;" horiz-adv-x="672" 
d="M367 40h102l-24 198h-239l-119 -198h92l-10 -40h-216l10 40h69l379 613h50l77 -613h79l-10 -40h-250zM229 276h211l-34 290h-2zM423 815q0 -23 -13.5 -39.5t-32.5 -16.5q-18 0 -28 12.5t-10 31.5q0 23 13.5 39.5t32.5 16.5q18 0 28 -12.5t10 -31.5zM589 815
q0 -23 -13.5 -39.5t-32.5 -16.5q-18 0 -28 12.5t-10 31.5q0 23 13.5 39.5t32.5 16.5q18 0 28 -12.5t10 -31.5z" />
    <glyph glyph-name="Aring" unicode="&#xc5;" horiz-adv-x="672" 
d="M563 755q0 -41 -27.5 -74t-73.5 -39l76 -602h79l-10 -40h-250l10 40h102l-24 198h-239l-119 -198h92l-10 -40h-216l10 40h69l375 607q-53 21 -53 80q0 44 32 79t85 35q38 0 65 -22.5t27 -63.5zM229 276h211l-34 290h-2zM397 724q0 -24 13.5 -38.5t37.5 -14.5
q31 0 51.5 25.5t20.5 61.5q0 24 -13.5 38.5t-37.5 14.5q-31 0 -51.5 -25.5t-20.5 -61.5z" />
    <glyph glyph-name="AE" unicode="&#xc6;" horiz-adv-x="921" 
d="M283 40h109l51 208h-206l-167 -208h93l-10 -40h-225l10 40h77l458 568h-102l10 40h579l-49 -196h-34q4 41 6.5 63t2 42.5t-2.5 28.5t-9 14t-15.5 7t-23.5 1h-232l-64 -257h112q36 0 50 16t39 83h31l-59 -238h-31q10 71 4.5 87t-40.5 16h-114l-69 -275h223q50 0 73.5 29.5
t68.5 146.5h34l-54 -216h-534zM268 286h185l81 325h-4z" />
    <glyph glyph-name="Ccedilla" unicode="&#xc7;" horiz-adv-x="647" 
d="M176 -165q41 -34 82 -34q25 0 42.5 14t17.5 39q0 21 -18.5 32t-40.5 10.5t-40 -1.5l-9 18l90 72q-110 4 -169 76.5t-59 179.5q0 109 47 206t129 156.5t178 59.5q118 0 179 -83l39 80h41l-56 -232h-35q-2 98 -47 144.5t-123 46.5q-79 0 -144 -53.5t-100 -139t-35 -182.5
q0 -101 48 -157t134 -56q44 0 81.5 17.5t66.5 50t49 65t41 77.5l38 -16q-44 -101 -104.5 -163.5t-149.5 -73.5l-72 -57v-3q42 -4 65.5 -22.5t23.5 -48.5q0 -40 -31.5 -65t-74.5 -25q-60 0 -105 41z" />
    <glyph glyph-name="Egrave" unicode="&#xc8;" horiz-adv-x="628" 
d="M139 648h528l-49 -196h-34q4 41 6.5 63t2 42.5t-2.5 28.5t-9 14t-15.5 7t-23.5 1h-232l-64 -257h112q36 0 50 16t39 83h31l-59 -238h-31q10 71 4.5 87t-40.5 16h-114l-69 -275h223q50 0 73.5 29.5t68.5 146.5h34l-54 -216h-534l10 40h109l141 568h-111zM440 853l20 -117
h-26l-37 79q-4 9 -14.5 30t-14 31.5t-3.5 20.5q0 15 9 24t23 9q19 0 27.5 -18t15.5 -59z" />
    <glyph glyph-name="Eacute" unicode="&#xc9;" horiz-adv-x="628" 
d="M139 648h528l-49 -196h-34q4 41 6.5 63t2 42.5t-2.5 28.5t-9 14t-15.5 7t-23.5 1h-232l-64 -257h112q36 0 50 16t39 83h31l-59 -238h-31q10 71 4.5 87t-40.5 16h-114l-69 -275h223q50 0 73.5 29.5t68.5 146.5h34l-54 -216h-534l10 40h109l141 568h-111zM559 821l-92 -85
h-32l80 118q31 46 45 61t30 15q13 0 21.5 -8.5t8.5 -21.5q0 -4 -0.5 -8t-2.5 -8.5t-4 -7.5t-6 -8t-6.5 -8t-8.5 -8.5t-9.5 -8.5t-11.5 -10.5t-12 -11.5z" />
    <glyph glyph-name="Ecircumflex" unicode="&#xca;" horiz-adv-x="628" 
d="M139 648h528l-49 -196h-34q4 41 6.5 63t2 42.5t-2.5 28.5t-9 14t-15.5 7t-23.5 1h-232l-64 -257h112q36 0 50 16t39 83h31l-59 -238h-31q10 71 4.5 87t-40.5 16h-114l-69 -275h223q50 0 73.5 29.5t68.5 146.5h34l-54 -216h-534l10 40h109l141 568h-111zM328 737l150 179
h34l62 -179h-28l-64 108l-120 -108h-34z" />
    <glyph glyph-name="Edieresis" unicode="&#xcb;" horiz-adv-x="628" 
d="M139 648h528l-49 -196h-34q4 41 6.5 63t2 42.5t-2.5 28.5t-9 14t-15.5 7t-23.5 1h-232l-64 -257h112q36 0 50 16t39 83h31l-59 -238h-31q10 71 4.5 87t-40.5 16h-114l-69 -275h223q50 0 73.5 29.5t68.5 146.5h34l-54 -216h-534l10 40h109l141 568h-111zM429 815
q0 -23 -13.5 -39.5t-32.5 -16.5q-18 0 -28 12.5t-10 31.5q0 23 13.5 39.5t32.5 16.5q18 0 28 -12.5t10 -31.5zM595 815q0 -23 -13.5 -39.5t-32.5 -16.5q-18 0 -28 12.5t-10 31.5q0 23 13.5 39.5t32.5 16.5q18 0 28 -12.5t10 -31.5z" />
    <glyph glyph-name="Igrave" unicode="&#xcc;" horiz-adv-x="366" 
d="M-16 0l10 40h109l141 568h-111l10 40h290l-10 -40h-109l-141 -568h111l-10 -40h-290zM288 853l20 -117h-26l-37 79q-4 9 -14.5 30t-14 31.5t-3.5 20.5q0 15 9 24t23 9q19 0 27.5 -18t15.5 -59z" />
    <glyph glyph-name="Iacute" unicode="&#xcd;" horiz-adv-x="366" 
d="M-16 0l10 40h109l141 568h-111l10 40h290l-10 -40h-109l-141 -568h111l-10 -40h-290zM407 821l-92 -85h-32l80 118q31 46 45 61t30 15q13 0 21.5 -8.5t8.5 -21.5q0 -4 -0.5 -8t-2.5 -8.5t-4 -7.5t-6 -8t-6.5 -8t-8.5 -8.5t-9.5 -8.5t-11.5 -10.5t-12 -11.5z" />
    <glyph glyph-name="Icircumflex" unicode="&#xce;" horiz-adv-x="366" 
d="M-16 0l10 40h109l141 568h-111l10 40h290l-10 -40h-109l-141 -568h111l-10 -40h-290zM176 737l150 179h34l62 -179h-28l-64 108l-120 -108h-34z" />
    <glyph glyph-name="Idieresis" unicode="&#xcf;" horiz-adv-x="366" 
d="M-16 0l10 40h109l141 568h-111l10 40h290l-10 -40h-109l-141 -568h111l-10 -40h-290zM277 815q0 -23 -13.5 -39.5t-32.5 -16.5q-18 0 -28 12.5t-10 31.5q0 23 13.5 39.5t32.5 16.5q18 0 28 -12.5t10 -31.5zM443 815q0 -23 -13.5 -39.5t-32.5 -16.5q-18 0 -28 12.5
t-10 31.5q0 23 13.5 39.5t32.5 16.5q18 0 28 -12.5t10 -31.5z" />
    <glyph glyph-name="Eth" unicode="&#xd0;" horiz-adv-x="676" 
d="M-20 0l10 40h109l69 280h-109l10 40h109l62 248h-110l10 40h234q148 0 219.5 -66.5t71.5 -180.5q0 -80 -31 -155.5t-90 -132.5q-56 -55 -132 -84t-194 -29h-238zM168 40h40q181 0 268 87q115 115 115 292q0 189 -226 189h-55l-62 -248h143l-10 -40h-143z" />
    <glyph glyph-name="Ntilde" unicode="&#xd1;" horiz-adv-x="733" 
d="M520 -16l-247 585h-2l-131 -529h92l-10 -40h-242l10 40h104l141 568h-106l10 40h173l226 -531h2l121 491h-94l10 40h237l-10 -40h-97l-155 -624h-32zM438 811q-35 0 -60 -69h-30q21 68 43 95t54 27q28 0 66 -33t55 -33q35 0 60 69h30q-21 -68 -43 -95t-54 -27
q-28 0 -66 33t-55 33z" />
    <glyph glyph-name="Ograve" unicode="&#xd2;" horiz-adv-x="685" 
d="M74 256q0 103 43.5 195.5t123.5 151.5t176 59q110 0 178 -75t68 -197q0 -103 -43.5 -195.5t-123.5 -151.5t-176 -59q-110 0 -178 75t-68 197zM415 620q-67 0 -120.5 -37.5t-84.5 -95.5t-47.5 -120.5t-16.5 -121.5q0 -112 48.5 -165.5t127.5 -53.5q66 0 120 37t85 95
t47.5 121t16.5 121q0 113 -48.5 166.5t-127.5 53.5zM435 853l20 -117h-26l-37 79q-4 9 -14.5 30t-14 31.5t-3.5 20.5q0 15 9 24t23 9q19 0 27.5 -18t15.5 -59z" />
    <glyph glyph-name="Oacute" unicode="&#xd3;" horiz-adv-x="685" 
d="M74 256q0 103 43.5 195.5t123.5 151.5t176 59q110 0 178 -75t68 -197q0 -103 -43.5 -195.5t-123.5 -151.5t-176 -59q-110 0 -178 75t-68 197zM415 620q-67 0 -120.5 -37.5t-84.5 -95.5t-47.5 -120.5t-16.5 -121.5q0 -112 48.5 -165.5t127.5 -53.5q66 0 120 37t85 95
t47.5 121t16.5 121q0 113 -48.5 166.5t-127.5 53.5zM554 821l-92 -85h-32l80 118q31 46 45 61t30 15q13 0 21.5 -8.5t8.5 -21.5q0 -4 -0.5 -8t-2.5 -8.5t-4 -7.5t-6 -8t-6.5 -8t-8.5 -8.5t-9.5 -8.5t-11.5 -10.5t-12 -11.5z" />
    <glyph glyph-name="Ocircumflex" unicode="&#xd4;" horiz-adv-x="685" 
d="M74 256q0 103 43.5 195.5t123.5 151.5t176 59q110 0 178 -75t68 -197q0 -103 -43.5 -195.5t-123.5 -151.5t-176 -59q-110 0 -178 75t-68 197zM415 620q-67 0 -120.5 -37.5t-84.5 -95.5t-47.5 -120.5t-16.5 -121.5q0 -112 48.5 -165.5t127.5 -53.5q66 0 120 37t85 95
t47.5 121t16.5 121q0 113 -48.5 166.5t-127.5 53.5zM323 737l150 179h34l62 -179h-28l-64 108l-120 -108h-34z" />
    <glyph glyph-name="Otilde" unicode="&#xd5;" horiz-adv-x="685" 
d="M74 256q0 103 43.5 195.5t123.5 151.5t176 59q110 0 178 -75t68 -197q0 -103 -43.5 -195.5t-123.5 -151.5t-176 -59q-110 0 -178 75t-68 197zM415 620q-67 0 -120.5 -37.5t-84.5 -95.5t-47.5 -120.5t-16.5 -121.5q0 -112 48.5 -165.5t127.5 -53.5q66 0 120 37t85 95
t47.5 121t16.5 121q0 113 -48.5 166.5t-127.5 53.5zM411 811q-35 0 -60 -69h-30q21 68 43 95t54 27q28 0 66 -33t55 -33q35 0 60 69h30q-21 -68 -43 -95t-54 -27q-28 0 -66 33t-55 33z" />
    <glyph glyph-name="Odieresis" unicode="&#xd6;" horiz-adv-x="685" 
d="M74 256q0 103 43.5 195.5t123.5 151.5t176 59q110 0 178 -75t68 -197q0 -103 -43.5 -195.5t-123.5 -151.5t-176 -59q-110 0 -178 75t-68 197zM415 620q-67 0 -120.5 -37.5t-84.5 -95.5t-47.5 -120.5t-16.5 -121.5q0 -112 48.5 -165.5t127.5 -53.5q66 0 120 37t85 95
t47.5 121t16.5 121q0 113 -48.5 166.5t-127.5 53.5zM424 815q0 -23 -13.5 -39.5t-32.5 -16.5q-18 0 -28 12.5t-10 31.5q0 23 13.5 39.5t32.5 16.5q18 0 28 -12.5t10 -31.5zM590 815q0 -23 -13.5 -39.5t-32.5 -16.5q-18 0 -28 12.5t-10 31.5q0 23 13.5 39.5t32.5 16.5
q18 0 28 -12.5t10 -31.5z" />
    <glyph glyph-name="multiply" unicode="&#xd7;" horiz-adv-x="506" 
d="M295 272l108 -150l-32 -25l-109 150l-184 -151l-24 31l184 151l-108 150l32 25l109 -150l184 151l24 -31z" />
    <glyph glyph-name="Oslash" unicode="&#xd8;" horiz-adv-x="685" 
d="M74 256q0 103 43.5 195.5t123.5 151.5t176 59q110 0 180 -78l97 101l29 -25l-103 -107q43 -70 43 -163q0 -103 -43.5 -195.5t-123.5 -151.5t-176 -59q-112 0 -180 77l-97 -100l-29 25l103 107q-43 68 -43 163zM591 400q0 64 -17 110l-396 -408q45 -76 144 -76
q66 0 120 37t85 95t47.5 121t16.5 121zM415 620q-67 0 -120.5 -37.5t-84.5 -95.5t-47.5 -120.5t-16.5 -121.5q0 -66 16 -110l396 409q-46 76 -143 76z" />
    <glyph glyph-name="Ugrave" unicode="&#xd9;" horiz-adv-x="708" 
d="M315 -16q-98 0 -151 46t-53 117q0 39 15 100l89 361h-96l10 40h266l-10 -40h-100l-83 -333q-21 -87 -21 -127q0 -55 39.5 -85t113.5 -30q90 0 146 56q46 46 69 135l95 384h-98l10 40h232l-10 -40h-88l-100 -404q-22 -86 -78 -142q-78 -78 -197 -78zM457 853l20 -117h-26
l-37 79q-4 9 -14.5 30t-14 31.5t-3.5 20.5q0 15 9 24t23 9q19 0 27.5 -18t15.5 -59z" />
    <glyph glyph-name="Uacute" unicode="&#xda;" horiz-adv-x="708" 
d="M315 -16q-98 0 -151 46t-53 117q0 39 15 100l89 361h-96l10 40h266l-10 -40h-100l-83 -333q-21 -87 -21 -127q0 -55 39.5 -85t113.5 -30q90 0 146 56q46 46 69 135l95 384h-98l10 40h232l-10 -40h-88l-100 -404q-22 -86 -78 -142q-78 -78 -197 -78zM576 821l-92 -85h-32
l80 118q31 46 45 61t30 15q13 0 21.5 -8.5t8.5 -21.5q0 -4 -0.5 -8t-2.5 -8.5t-4 -7.5t-6 -8t-6.5 -8t-8.5 -8.5t-9.5 -8.5t-11.5 -10.5t-12 -11.5z" />
    <glyph glyph-name="Ucircumflex" unicode="&#xdb;" horiz-adv-x="708" 
d="M315 -16q-98 0 -151 46t-53 117q0 39 15 100l89 361h-96l10 40h266l-10 -40h-100l-83 -333q-21 -87 -21 -127q0 -55 39.5 -85t113.5 -30q90 0 146 56q46 46 69 135l95 384h-98l10 40h232l-10 -40h-88l-100 -404q-22 -86 -78 -142q-78 -78 -197 -78zM345 737l150 179h34
l62 -179h-28l-64 108l-120 -108h-34z" />
    <glyph glyph-name="Udieresis" unicode="&#xdc;" horiz-adv-x="708" 
d="M315 -16q-98 0 -151 46t-53 117q0 39 15 100l89 361h-96l10 40h266l-10 -40h-100l-83 -333q-21 -87 -21 -127q0 -55 39.5 -85t113.5 -30q90 0 146 56q46 46 69 135l95 384h-98l10 40h232l-10 -40h-88l-100 -404q-22 -86 -78 -142q-78 -78 -197 -78zM446 815
q0 -23 -13.5 -39.5t-32.5 -16.5q-18 0 -28 12.5t-10 31.5q0 23 13.5 39.5t32.5 16.5q18 0 28 -12.5t10 -31.5zM612 815q0 -23 -13.5 -39.5t-32.5 -16.5q-18 0 -28 12.5t-10 31.5q0 23 13.5 39.5t32.5 16.5q18 0 28 -12.5t10 -31.5z" />
    <glyph glyph-name="Yacute" unicode="&#xdd;" horiz-adv-x="648" 
d="M361 321l232 287h-83l10 40h217l-10 -40h-77l-280 -338l-60 -230h103l-10 -40h-272l10 40h99l62 243l-94 325h-82l10 40h247l-10 -40h-90zM559 821l-92 -85h-32l80 118q31 46 45 61t30 15q13 0 21.5 -8.5t8.5 -21.5q0 -4 -0.5 -8t-2.5 -8.5t-4 -7.5t-6 -8t-6.5 -8
t-8.5 -8.5t-9.5 -8.5t-11.5 -10.5t-12 -11.5z" />
    <glyph glyph-name="Thorn" unicode="&#xde;" horiz-adv-x="592" 
d="M-20 0l10 40h109l141 568h-111l10 40h290l-10 -40h-109l-21 -82h80q217 0 217 -147q0 -106 -81 -164.5t-217 -58.5h-90l-29 -116h111l-10 -40h-290zM368 486h-88l-72 -290h92q107 0 159 52.5t52 137.5q0 48 -31 74t-112 26z" />
    <glyph glyph-name="germandbls" unicode="&#xdf;" horiz-adv-x="526" 
d="M328 345q0 -14 14 -28.5t59 -51.5q41 -33 60.5 -63t19.5 -68q0 -58 -42.5 -100.5t-114.5 -42.5q-49 0 -88.5 22t-39.5 64q0 24 14 42.5t36 18.5q17 0 27.5 -11t10.5 -29q0 -27 -27 -48q22 -22 69 -22t72.5 24.5t25.5 58.5q0 44 -62 99q-38 33 -51.5 45.5t-26 32
t-12.5 38.5q0 32 19 54t74 62q46 34 63.5 64.5t17.5 67.5q0 40 -25 63.5t-63 23.5q-55 0 -86.5 -47t-50.5 -137l-84 -400q-27 -130 -65 -183.5t-92 -53.5q-29 0 -44 14.5t-15 34.5t11.5 34.5t30.5 14.5q16 0 25 -10t9 -25q0 -21 -13 -36q27 0 43.5 35.5t40.5 146.5l75 354
h-100l9 35h97q29 135 86 195t129 60q58 0 101 -33.5t43 -90.5q0 -88 -104 -147q-46 -26 -61 -42t-15 -35z" />
    <glyph glyph-name="agrave" unicode="&#xe0;" 
d="M447 446l-75 -277q-18 -66 -18 -96q0 -34 25 -34q37 0 80 118l27 -9q-32 -89 -60.5 -123t-61.5 -34q-28 0 -46 20t-18 60q0 16 3 28l-7 3q-73 -111 -148 -111q-51 0 -83 39.5t-32 108.5q0 70 28.5 137.5t74.5 113.5q62 62 127 62q36 0 62.5 -23.5t35.5 -71.5l24 89h62z
M168 38q62 0 119 92t57 174q0 40 -18.5 75.5t-59.5 35.5q-62 0 -115 -90t-53 -188q0 -49 19 -74t51 -25zM292 640l20 -117h-26l-37 79q-4 9 -14.5 30t-14 31.5t-3.5 20.5q0 15 9 24t23 9q19 0 27.5 -18t15.5 -59z" />
    <glyph glyph-name="aacute" unicode="&#xe1;" 
d="M447 446l-75 -277q-18 -66 -18 -96q0 -34 25 -34q37 0 80 118l27 -9q-32 -89 -60.5 -123t-61.5 -34q-28 0 -46 20t-18 60q0 16 3 28l-7 3q-73 -111 -148 -111q-51 0 -83 39.5t-32 108.5q0 70 28.5 137.5t74.5 113.5q62 62 127 62q36 0 62.5 -23.5t35.5 -71.5l24 89h62z
M168 38q62 0 119 92t57 174q0 40 -18.5 75.5t-59.5 35.5q-62 0 -115 -90t-53 -188q0 -49 19 -74t51 -25zM411 608l-92 -85h-32l80 118q31 46 45 61t30 15q13 0 21.5 -8.5t8.5 -21.5q0 -4 -0.5 -8t-2.5 -8.5t-4 -7.5t-6 -8t-6.5 -8t-8.5 -8.5t-9.5 -8.5t-11.5 -10.5
t-12 -11.5z" />
    <glyph glyph-name="acircumflex" unicode="&#xe2;" 
d="M447 446l-75 -277q-18 -66 -18 -96q0 -34 25 -34q37 0 80 118l27 -9q-32 -89 -60.5 -123t-61.5 -34q-28 0 -46 20t-18 60q0 16 3 28l-7 3q-73 -111 -148 -111q-51 0 -83 39.5t-32 108.5q0 70 28.5 137.5t74.5 113.5q62 62 127 62q36 0 62.5 -23.5t35.5 -71.5l24 89h62z
M168 38q62 0 119 92t57 174q0 40 -18.5 75.5t-59.5 35.5q-62 0 -115 -90t-53 -188q0 -49 19 -74t51 -25zM181 524l150 179h34l62 -179h-28l-64 108l-120 -108h-34z" />
    <glyph glyph-name="atilde" unicode="&#xe3;" 
d="M447 446l-75 -277q-18 -66 -18 -96q0 -34 25 -34q37 0 80 118l27 -9q-32 -89 -60.5 -123t-61.5 -34q-28 0 -46 20t-18 60q0 16 3 28l-7 3q-73 -111 -148 -111q-51 0 -83 39.5t-32 108.5q0 70 28.5 137.5t74.5 113.5q62 62 127 62q36 0 62.5 -23.5t35.5 -71.5l24 89h62z
M168 38q62 0 119 92t57 174q0 40 -18.5 75.5t-59.5 35.5q-62 0 -115 -90t-53 -188q0 -49 19 -74t51 -25zM268 598q-35 0 -60 -69h-30q21 68 43 95t54 27q28 0 66 -33t55 -33q35 0 60 69h30q-21 -68 -43 -95t-54 -27q-28 0 -66 33t-55 33z" />
    <glyph glyph-name="adieresis" unicode="&#xe4;" 
d="M447 446l-75 -277q-18 -66 -18 -96q0 -34 25 -34q37 0 80 118l27 -9q-32 -89 -60.5 -123t-61.5 -34q-28 0 -46 20t-18 60q0 16 3 28l-7 3q-73 -111 -148 -111q-51 0 -83 39.5t-32 108.5q0 70 28.5 137.5t74.5 113.5q62 62 127 62q36 0 62.5 -23.5t35.5 -71.5l24 89h62z
M168 38q62 0 119 92t57 174q0 40 -18.5 75.5t-59.5 35.5q-62 0 -115 -90t-53 -188q0 -49 19 -74t51 -25zM281 602q0 -23 -13.5 -39.5t-32.5 -16.5q-18 0 -28 12.5t-10 31.5q0 23 13.5 39.5t32.5 16.5q18 0 28 -12.5t10 -31.5zM447 602q0 -23 -13.5 -39.5t-32.5 -16.5
q-18 0 -28 12.5t-10 31.5q0 23 13.5 39.5t32.5 16.5q18 0 28 -12.5t10 -31.5z" />
    <glyph glyph-name="aring" unicode="&#xe5;" 
d="M447 446l-75 -277q-18 -66 -18 -96q0 -34 25 -34q37 0 80 118l27 -9q-32 -89 -60.5 -123t-61.5 -34q-28 0 -46 20t-18 60q0 16 3 28l-7 3q-73 -111 -148 -111q-51 0 -83 39.5t-32 108.5q0 70 28.5 137.5t74.5 113.5q62 62 127 62q36 0 62.5 -23.5t35.5 -71.5l24 89h62z
M168 38q62 0 119 92t57 174q0 40 -18.5 75.5t-59.5 35.5q-62 0 -115 -90t-53 -188q0 -49 19 -74t51 -25zM444 631q0 -44 -32 -79t-85 -35q-38 0 -65 22.5t-27 63.5q0 44 32 79t85 35q38 0 65 -22.5t27 -63.5zM278 600q0 -24 13.5 -38.5t37.5 -14.5q31 0 51.5 25.5t20.5 61.5
q0 24 -13.5 38.5t-37.5 14.5q-31 0 -51.5 -25.5t-20.5 -61.5z" />
    <glyph glyph-name="ae" unicode="&#xe6;" horiz-adv-x="675" 
d="M551 452q49 0 77 -25.5t28 -62.5q0 -143 -302 -179q-1 -9 -1 -27q0 -62 25.5 -95t69.5 -33q79 0 152 102l24 -17q-86 -124 -188 -124q-105 0 -132 98q-72 -96 -175 -96q-55 0 -86.5 28t-31.5 73q0 144 305 157q17 66 17 83q0 38 -28.5 61t-74.5 23q-44 0 -70 -17
q15 -13 15 -39q0 -21 -13 -37.5t-37 -16.5q-18 0 -29.5 12t-11.5 31q0 46 46 72.5t110 26.5q53 0 92 -24t49 -64q77 90 170 90zM297 151q0 37 9 72q-225 -13 -225 -119q0 -32 18 -51.5t53 -19.5q42 0 81 26t65 63q-1 9 -1 29zM537 419q-60 0 -110.5 -63t-67.5 -142
q236 31 236 148q0 27 -16 42t-42 15z" />
    <glyph glyph-name="ccedilla" unicode="&#xe7;" horiz-adv-x="417" 
d="M51 -165q41 -34 82 -34q25 0 42.5 14t17.5 39q0 21 -18.5 32t-40.5 10.5t-40 -1.5l-9 18l97 78q-69 1 -110 50t-41 128q0 105 74 194t172 89q49 0 84.5 -25.5t35.5 -66.5q0 -26 -13.5 -44.5t-34.5 -18.5q-17 0 -29 10.5t-12 29.5q0 32 32 56q-22 26 -64 26
q-52 0 -94.5 -40.5t-63.5 -96t-21 -109.5q0 -66 28 -103t73 -37q78 0 137 107l25 -15q-51 -94 -116 -122l-92 -72v-3q42 -4 65.5 -22.5t23.5 -48.5q0 -40 -31.5 -65t-74.5 -25q-60 0 -105 41z" />
    <glyph glyph-name="egrave" unicode="&#xe8;" horiz-adv-x="419" 
d="M400 364q0 -143 -302 -179q-1 -9 -1 -27q0 -62 25.5 -95t69.5 -33q79 0 152 102l24 -17q-86 -124 -190 -124q-67 0 -107 42t-40 117q0 114 85.5 208t178.5 94q49 0 77 -25.5t28 -62.5zM281 419q-60 0 -110.5 -63t-67.5 -142q236 31 236 148q0 27 -16 42t-42 15zM277 640
l20 -117h-26l-37 79q-4 9 -14.5 30t-14 31.5t-3.5 20.5q0 15 9 24t23 9q19 0 27.5 -18t15.5 -59z" />
    <glyph glyph-name="eacute" unicode="&#xe9;" horiz-adv-x="419" 
d="M400 364q0 -143 -302 -179q-1 -9 -1 -27q0 -62 25.5 -95t69.5 -33q79 0 152 102l24 -17q-86 -124 -190 -124q-67 0 -107 42t-40 117q0 114 85.5 208t178.5 94q49 0 77 -25.5t28 -62.5zM281 419q-60 0 -110.5 -63t-67.5 -142q236 31 236 148q0 27 -16 42t-42 15zM396 608
l-92 -85h-32l80 118q31 46 45 61t30 15q13 0 21.5 -8.5t8.5 -21.5q0 -4 -0.5 -8t-2.5 -8.5t-4 -7.5t-6 -8t-6.5 -8t-8.5 -8.5t-9.5 -8.5t-11.5 -10.5t-12 -11.5z" />
    <glyph glyph-name="ecircumflex" unicode="&#xea;" horiz-adv-x="419" 
d="M400 364q0 -143 -302 -179q-1 -9 -1 -27q0 -62 25.5 -95t69.5 -33q79 0 152 102l24 -17q-86 -124 -190 -124q-67 0 -107 42t-40 117q0 114 85.5 208t178.5 94q49 0 77 -25.5t28 -62.5zM281 419q-60 0 -110.5 -63t-67.5 -142q236 31 236 148q0 27 -16 42t-42 15zM166 524
l150 179h34l62 -179h-28l-64 108l-120 -108h-34z" />
    <glyph glyph-name="edieresis" unicode="&#xeb;" horiz-adv-x="419" 
d="M400 364q0 -143 -302 -179q-1 -9 -1 -27q0 -62 25.5 -95t69.5 -33q79 0 152 102l24 -17q-86 -124 -190 -124q-67 0 -107 42t-40 117q0 114 85.5 208t178.5 94q49 0 77 -25.5t28 -62.5zM281 419q-60 0 -110.5 -63t-67.5 -142q236 31 236 148q0 27 -16 42t-42 15zM266 602
q0 -23 -13.5 -39.5t-32.5 -16.5q-18 0 -28 12.5t-10 31.5q0 23 13.5 39.5t32.5 16.5q18 0 28 -12.5t10 -31.5zM432 602q0 -23 -13.5 -39.5t-32.5 -16.5q-18 0 -28 12.5t-10 31.5q0 23 13.5 39.5t32.5 16.5q18 0 28 -12.5t10 -31.5z" />
    <glyph glyph-name="igrave" unicode="&#xec;" horiz-adv-x="306" 
d="M227 364q0 -47 -44 -156.5t-44 -140.5q0 -28 24 -28q38 0 81 118l27 -9q-32 -88 -61.5 -122.5t-62.5 -34.5t-52 22t-18 61q0 42 45 151t45 154q0 31 -22 31q-21 0 -43.5 -30t-52.5 -87l-26 12q36 74 66.5 110.5t68.5 36.5q32 0 50.5 -23.5t18.5 -64.5zM177 640l20 -117
h-26l-37 79q-4 9 -14.5 30t-14 31.5t-3.5 20.5q0 15 9 24t23 9q19 0 27.5 -18t15.5 -59z" />
    <glyph glyph-name="iacute" unicode="&#xed;" horiz-adv-x="306" 
d="M227 364q0 -47 -44 -156.5t-44 -140.5q0 -28 24 -28q38 0 81 118l27 -9q-32 -88 -61.5 -122.5t-62.5 -34.5t-52 22t-18 61q0 42 45 151t45 154q0 31 -22 31q-21 0 -43.5 -30t-52.5 -87l-26 12q36 74 66.5 110.5t68.5 36.5q32 0 50.5 -23.5t18.5 -64.5zM296 608l-92 -85
h-32l80 118q31 46 45 61t30 15q13 0 21.5 -8.5t8.5 -21.5q0 -4 -0.5 -8t-2.5 -8.5t-4 -7.5t-6 -8t-6.5 -8t-8.5 -8.5t-9.5 -8.5t-11.5 -10.5t-12 -11.5z" />
    <glyph glyph-name="icircumflex" unicode="&#xee;" horiz-adv-x="306" 
d="M227 364q0 -47 -44 -156.5t-44 -140.5q0 -28 24 -28q38 0 81 118l27 -9q-32 -88 -61.5 -122.5t-62.5 -34.5t-52 22t-18 61q0 42 45 151t45 154q0 31 -22 31q-21 0 -43.5 -30t-52.5 -87l-26 12q36 74 66.5 110.5t68.5 36.5q32 0 50.5 -23.5t18.5 -64.5zM66 524l150 179h34
l62 -179h-28l-64 108l-120 -108h-34z" />
    <glyph glyph-name="idieresis" unicode="&#xef;" horiz-adv-x="306" 
d="M227 364q0 -47 -44 -156.5t-44 -140.5q0 -28 24 -28q38 0 81 118l27 -9q-32 -88 -61.5 -122.5t-62.5 -34.5t-52 22t-18 61q0 42 45 151t45 154q0 31 -22 31q-21 0 -43.5 -30t-52.5 -87l-26 12q36 74 66.5 110.5t68.5 36.5q32 0 50.5 -23.5t18.5 -64.5zM166 602
q0 -23 -13.5 -39.5t-32.5 -16.5q-18 0 -28 12.5t-10 31.5q0 23 13.5 39.5t32.5 16.5q18 0 28 -12.5t10 -31.5zM332 602q0 -23 -13.5 -39.5t-32.5 -16.5q-18 0 -28 12.5t-10 31.5q0 23 13.5 39.5t32.5 16.5q18 0 28 -12.5t10 -31.5z" />
    <glyph glyph-name="eth" unicode="&#xf0;" horiz-adv-x="475" 
d="M489 605l-103 -36q53 -109 53 -232q0 -146 -70 -246t-176 -100q-75 0 -116.5 50t-41.5 130q0 112 69 194t158 82q49 0 77.5 -25t40.5 -61q-3 104 -39 192l-126 -43l-11 32l123 42q-20 41 -41 73l42 10q21 -30 43 -67l107 37zM365 279q0 68 -27.5 100.5t-68.5 32.5
q-73 0 -121.5 -83t-48.5 -183q0 -62 26 -92t66 -30q76 0 125 82t49 173z" />
    <glyph glyph-name="ntilde" unicode="&#xf1;" horiz-adv-x="547" 
d="M397 67q0 -28 22 -28q37 0 80 118l27 -9q-32 -89 -61.5 -123t-63.5 -34q-29 0 -48 23t-18 63q0 40 37.5 137.5t37.5 140.5q0 45 -42 45q-53 0 -119 -100t-120 -300h-67l82 306q28 104 -8 104q-10 0 -20.5 -8t-23 -28t-21 -34.5t-24.5 -46.5l-26 12q33 73 62.5 109
t65.5 36q58 0 58 -74q0 -45 -22 -123l7 -3q99 202 201 202q36 0 59 -25.5t23 -70.5q0 -46 -39 -150.5t-39 -138.5zM288 598q-35 0 -60 -69h-30q21 68 43 95t54 27q28 0 66 -33t55 -33q35 0 60 69h30q-21 -68 -43 -95t-54 -27q-28 0 -66 33t-55 33z" />
    <glyph glyph-name="ograve" unicode="&#xf2;" horiz-adv-x="459" 
d="M267 452q74 0 115.5 -50t41.5 -130q0 -112 -69 -196.5t-162 -84.5q-75 0 -116.5 50t-41.5 130q0 112 69.5 196.5t162.5 84.5zM360 297q0 62 -26 92t-66 30q-50 0 -90.5 -45.5t-59.5 -107t-19 -120.5q0 -62 26 -92t66 -30q50 0 90.5 45.5t59.5 107t19 120.5zM282 640
l20 -117h-26l-37 79q-4 9 -14.5 30t-14 31.5t-3.5 20.5q0 15 9 24t23 9q19 0 27.5 -18t15.5 -59z" />
    <glyph glyph-name="oacute" unicode="&#xf3;" horiz-adv-x="459" 
d="M267 452q74 0 115.5 -50t41.5 -130q0 -112 -69 -196.5t-162 -84.5q-75 0 -116.5 50t-41.5 130q0 112 69.5 196.5t162.5 84.5zM360 297q0 62 -26 92t-66 30q-50 0 -90.5 -45.5t-59.5 -107t-19 -120.5q0 -62 26 -92t66 -30q50 0 90.5 45.5t59.5 107t19 120.5zM401 608
l-92 -85h-32l80 118q31 46 45 61t30 15q13 0 21.5 -8.5t8.5 -21.5q0 -4 -0.5 -8t-2.5 -8.5t-4 -7.5t-6 -8t-6.5 -8t-8.5 -8.5t-9.5 -8.5t-11.5 -10.5t-12 -11.5z" />
    <glyph glyph-name="ocircumflex" unicode="&#xf4;" horiz-adv-x="459" 
d="M267 452q74 0 115.5 -50t41.5 -130q0 -112 -69 -196.5t-162 -84.5q-75 0 -116.5 50t-41.5 130q0 112 69.5 196.5t162.5 84.5zM360 297q0 62 -26 92t-66 30q-50 0 -90.5 -45.5t-59.5 -107t-19 -120.5q0 -62 26 -92t66 -30q50 0 90.5 45.5t59.5 107t19 120.5zM171 524
l150 179h34l62 -179h-28l-64 108l-120 -108h-34z" />
    <glyph glyph-name="otilde" unicode="&#xf5;" horiz-adv-x="459" 
d="M267 452q74 0 115.5 -50t41.5 -130q0 -112 -69 -196.5t-162 -84.5q-75 0 -116.5 50t-41.5 130q0 112 69.5 196.5t162.5 84.5zM360 297q0 62 -26 92t-66 30q-50 0 -90.5 -45.5t-59.5 -107t-19 -120.5q0 -62 26 -92t66 -30q50 0 90.5 45.5t59.5 107t19 120.5zM258 598
q-35 0 -60 -69h-30q21 68 43 95t54 27q28 0 66 -33t55 -33q35 0 60 69h30q-21 -68 -43 -95t-54 -27q-28 0 -66 33t-55 33z" />
    <glyph glyph-name="odieresis" unicode="&#xf6;" horiz-adv-x="459" 
d="M267 452q74 0 115.5 -50t41.5 -130q0 -112 -69 -196.5t-162 -84.5q-75 0 -116.5 50t-41.5 130q0 112 69.5 196.5t162.5 84.5zM360 297q0 62 -26 92t-66 30q-50 0 -90.5 -45.5t-59.5 -107t-19 -120.5q0 -62 26 -92t66 -30q50 0 90.5 45.5t59.5 107t19 120.5zM271 602
q0 -23 -13.5 -39.5t-32.5 -16.5q-18 0 -28 12.5t-10 31.5q0 23 13.5 39.5t32.5 16.5q18 0 28 -12.5t10 -31.5zM437 602q0 -23 -13.5 -39.5t-32.5 -16.5q-18 0 -28 12.5t-10 31.5q0 23 13.5 39.5t32.5 16.5q18 0 28 -12.5t10 -31.5z" />
    <glyph glyph-name="divide" unicode="&#xf7;" horiz-adv-x="506" 
d="M465 256h-406l9 38h406zM226 73q-18 0 -29.5 13t-11.5 33q0 23 13.5 38.5t33.5 15.5q18 0 29.5 -13t11.5 -33q0 -22 -13.5 -38t-33.5 -16zM301 377q-18 0 -29.5 13t-11.5 33q0 22 13.5 38t33.5 16q18 0 29.5 -13t11.5 -33q0 -23 -13.5 -38.5t-33.5 -15.5z" />
    <glyph glyph-name="oslash" unicode="&#xf8;" horiz-adv-x="459" 
d="M14 -39l-24 23l71 79q-26 44 -26 108q0 112 69.5 196.5t162.5 84.5q68 0 110 -45l68 75l24 -23l-71 -79q26 -46 26 -108q0 -112 -69 -196.5t-162 -84.5q-70 0 -112 44zM99 146q0 -22 3 -40l243 265q-24 48 -77 48q-50 0 -90.5 -45.5t-59.5 -107t-19 -120.5zM360 297
q0 24 -4 40l-242 -266q24 -47 77 -47q50 0 90.5 45.5t59.5 107t19 120.5z" />
    <glyph glyph-name="ugrave" unicode="&#xf9;" horiz-adv-x="544" 
d="M406 -9q-28 0 -46 20t-18 60q0 42 21 117l-7 3q-98 -200 -198 -200q-36 0 -59 25.5t-23 70.5q0 46 38 150.5t38 138.5q0 28 -22 28q-10 0 -19 -7t-21 -25.5t-19 -31.5t-24 -46l-26 12q21 43 31 61.5t26.5 42.5t33 33t36.5 9q29 0 48.5 -23t18.5 -63q0 -40 -37 -137.5
t-37 -140.5q0 -44 42 -44q53 0 118 100t120 302h67l-74 -277q-18 -66 -18 -96q0 -34 25 -34q37 0 80 118l27 -9q-32 -89 -60.5 -123t-61.5 -34zM302 640l20 -117h-26l-37 79q-4 9 -14.5 30t-14 31.5t-3.5 20.5q0 15 9 24t23 9q19 0 27.5 -18t15.5 -59z" />
    <glyph glyph-name="uacute" unicode="&#xfa;" horiz-adv-x="544" 
d="M406 -9q-28 0 -46 20t-18 60q0 42 21 117l-7 3q-98 -200 -198 -200q-36 0 -59 25.5t-23 70.5q0 46 38 150.5t38 138.5q0 28 -22 28q-10 0 -19 -7t-21 -25.5t-19 -31.5t-24 -46l-26 12q21 43 31 61.5t26.5 42.5t33 33t36.5 9q29 0 48.5 -23t18.5 -63q0 -40 -37 -137.5
t-37 -140.5q0 -44 42 -44q53 0 118 100t120 302h67l-74 -277q-18 -66 -18 -96q0 -34 25 -34q37 0 80 118l27 -9q-32 -89 -60.5 -123t-61.5 -34zM421 608l-92 -85h-32l80 118q31 46 45 61t30 15q13 0 21.5 -8.5t8.5 -21.5q0 -4 -0.5 -8t-2.5 -8.5t-4 -7.5t-6 -8t-6.5 -8
t-8.5 -8.5t-9.5 -8.5t-11.5 -10.5t-12 -11.5z" />
    <glyph glyph-name="ucircumflex" unicode="&#xfb;" horiz-adv-x="544" 
d="M406 -9q-28 0 -46 20t-18 60q0 42 21 117l-7 3q-98 -200 -198 -200q-36 0 -59 25.5t-23 70.5q0 46 38 150.5t38 138.5q0 28 -22 28q-10 0 -19 -7t-21 -25.5t-19 -31.5t-24 -46l-26 12q21 43 31 61.5t26.5 42.5t33 33t36.5 9q29 0 48.5 -23t18.5 -63q0 -40 -37 -137.5
t-37 -140.5q0 -44 42 -44q53 0 118 100t120 302h67l-74 -277q-18 -66 -18 -96q0 -34 25 -34q37 0 80 118l27 -9q-32 -89 -60.5 -123t-61.5 -34zM191 524l150 179h34l62 -179h-28l-64 108l-120 -108h-34z" />
    <glyph glyph-name="udieresis" unicode="&#xfc;" horiz-adv-x="544" 
d="M406 -9q-28 0 -46 20t-18 60q0 42 21 117l-7 3q-98 -200 -198 -200q-36 0 -59 25.5t-23 70.5q0 46 38 150.5t38 138.5q0 28 -22 28q-10 0 -19 -7t-21 -25.5t-19 -31.5t-24 -46l-26 12q21 43 31 61.5t26.5 42.5t33 33t36.5 9q29 0 48.5 -23t18.5 -63q0 -40 -37 -137.5
t-37 -140.5q0 -44 42 -44q53 0 118 100t120 302h67l-74 -277q-18 -66 -18 -96q0 -34 25 -34q37 0 80 118l27 -9q-32 -89 -60.5 -123t-61.5 -34zM291 602q0 -23 -13.5 -39.5t-32.5 -16.5q-18 0 -28 12.5t-10 31.5q0 23 13.5 39.5t32.5 16.5q18 0 28 -12.5t10 -31.5zM457 602
q0 -23 -13.5 -39.5t-32.5 -16.5q-18 0 -28 12.5t-10 31.5q0 23 13.5 39.5t32.5 16.5q18 0 28 -12.5t10 -31.5z" />
    <glyph glyph-name="yacute" unicode="&#xfd;" horiz-adv-x="507" 
d="M148 452q29 0 48.5 -23t18.5 -63q-1 -42 -34.5 -126.5t-33.5 -118.5q0 -47 45 -47q24 0 52.5 18.5t61 58t64 116.5t53.5 179h62l-77 -326q-36 -150 -97.5 -215t-153.5 -65q-43 0 -81 18.5t-38 59.5q0 22 14 38.5t35 16.5q19 0 29.5 -11t10.5 -28q0 -28 -26 -45
q19 -15 56 -15q76 0 123 64.5t78 218.5l4 20l-6 3q-97 -159 -186 -159q-38 0 -63 24t-25 68q0 39 35 133.5t35 129.5q0 28 -22 28q-10 0 -19 -7t-21 -25.5t-19 -31.5t-24 -46l-26 12q21 43 31 61.5t26.5 42.5t33 33t36.5 9zM423 608l-92 -85h-32l80 118q31 46 45 61t30 15
q13 0 21.5 -8.5t8.5 -21.5q0 -4 -0.5 -8t-2.5 -8.5t-4 -7.5t-6 -8t-6.5 -8t-8.5 -8.5t-9.5 -8.5t-11.5 -10.5t-12 -11.5z" />
    <glyph glyph-name="thorn" unicode="&#xfe;" horiz-adv-x="469" 
d="M300 405q-43 0 -86 -47t-68 -110t-25 -115q0 -40 21.5 -69t63.5 -29q44 0 83 43.5t60.5 106t21.5 121.5q0 49 -19 74t-52 25zM260 687l-96 -343l7 -3q73 111 149 111q52 0 84 -39t32 -109q0 -115 -70.5 -210t-157.5 -95q-37 0 -66 20.5t-38 58.5l-47 -185h100l-11 -40
h-236l11 40h74l192 755h-95l10 39h158z" />
    <glyph glyph-name="ydieresis" unicode="&#xff;" horiz-adv-x="507" 
d="M148 452q29 0 48.5 -23t18.5 -63q-1 -42 -34.5 -126.5t-33.5 -118.5q0 -47 45 -47q24 0 52.5 18.5t61 58t64 116.5t53.5 179h62l-77 -326q-36 -150 -97.5 -215t-153.5 -65q-43 0 -81 18.5t-38 59.5q0 22 14 38.5t35 16.5q19 0 29.5 -11t10.5 -28q0 -28 -26 -45
q19 -15 56 -15q76 0 123 64.5t78 218.5l4 20l-6 3q-97 -159 -186 -159q-38 0 -63 24t-25 68q0 39 35 133.5t35 129.5q0 28 -22 28q-10 0 -19 -7t-21 -25.5t-19 -31.5t-24 -46l-26 12q21 43 31 61.5t26.5 42.5t33 33t36.5 9zM293 602q0 -23 -13.5 -39.5t-32.5 -16.5
q-18 0 -28 12.5t-10 31.5q0 23 13.5 39.5t32.5 16.5q18 0 28 -12.5t10 -31.5zM459 602q0 -23 -13.5 -39.5t-32.5 -16.5q-18 0 -28 12.5t-10 31.5q0 23 13.5 39.5t32.5 16.5q18 0 28 -12.5t10 -31.5z" />
    <glyph glyph-name="Amacron" unicode="&#x100;" horiz-adv-x="672" 
d="M367 40h102l-24 198h-239l-119 -198h92l-10 -40h-216l10 40h69l379 613h50l77 -613h79l-10 -40h-250zM229 276h211l-34 290h-2zM336 755l13 53h251l-13 -53h-251z" />
    <glyph glyph-name="amacron" unicode="&#x101;" 
d="M447 446l-75 -277q-18 -66 -18 -96q0 -34 25 -34q37 0 80 118l27 -9q-32 -89 -60.5 -123t-61.5 -34q-28 0 -46 20t-18 60q0 16 3 28l-7 3q-73 -111 -148 -111q-51 0 -83 39.5t-32 108.5q0 70 28.5 137.5t74.5 113.5q62 62 127 62q36 0 62.5 -23.5t35.5 -71.5l24 89h62z
M168 38q62 0 119 92t57 174q0 40 -18.5 75.5t-59.5 35.5q-62 0 -115 -90t-53 -188q0 -49 19 -74t51 -25zM195 542l13 53h251l-13 -53h-251z" />
    <glyph glyph-name="Abreve" unicode="&#x102;" horiz-adv-x="672" 
d="M367 40h102l-24 198h-239l-119 -198h92l-10 -40h-216l10 40h69l379 613h50l77 -613h79l-10 -40h-250zM229 276h211l-34 290h-2zM460 743q-54 0 -80.5 39t-13.5 104h24q3 -89 77 -89q70 0 119 89h24q-20 -67 -59 -105t-91 -38z" />
    <glyph glyph-name="abreve" unicode="&#x103;" 
d="M447 446l-75 -277q-18 -66 -18 -96q0 -34 25 -34q37 0 80 118l27 -9q-32 -89 -60.5 -123t-61.5 -34q-28 0 -46 20t-18 60q0 16 3 28l-7 3q-73 -111 -148 -111q-51 0 -83 39.5t-32 108.5q0 70 28.5 137.5t74.5 113.5q62 62 127 62q36 0 62.5 -23.5t35.5 -71.5l24 89h62z
M168 38q62 0 119 92t57 174q0 40 -18.5 75.5t-59.5 35.5q-62 0 -115 -90t-53 -188q0 -49 19 -74t51 -25zM318 530q-54 0 -80.5 39t-13.5 104h24q3 -89 77 -89q70 0 119 89h24q-20 -67 -59 -105t-91 -38z" />
    <glyph glyph-name="Aogonek" unicode="&#x104;" horiz-adv-x="672" 
d="M515 -201q-38 -32 -85 -32q-33 0 -57 19.5t-24 56.5t28 70.5t91 75.5l16 11h-127l10 40h102l-24 198h-239l-119 -198h92l-10 -40h-216l10 40h69l379 613h50l77 -613h79l-10 -40h-84l-20 -16q-58 -45 -79.5 -75.5t-21.5 -58.5q0 -20 12 -32.5t34 -12.5q25 0 55 17z
M229 276h211l-34 290h-2z" />
    <glyph glyph-name="aogonek" unicode="&#x105;" 
d="M361 357l24 89h62l-75 -277q-18 -66 -18 -96q0 -34 25 -34q37 0 80 118l27 -9q0 -1 -4.5 -12.5t-6.5 -16.5t-6.5 -17t-8 -19t-9.5 -18.5t-11 -19.5t-12 -17t-14.5 -17t-15.5 -14q-73 -57 -94 -82q-26 -33 -26 -65q0 -20 12 -32.5t34 -12.5q25 0 55 17l12 -23
q-38 -32 -85 -32q-33 0 -57 19.5t-24 56.5t28.5 71t95.5 79q-49 11 -49 78q0 16 3 28l-7 3q-73 -111 -148 -111q-51 0 -83 39.5t-32 108.5q0 70 28.5 137.5t74.5 113.5q62 62 127 62q36 0 62.5 -23.5t35.5 -71.5zM168 38q62 0 119 92t57 174q0 40 -18.5 75.5t-59.5 35.5
q-62 0 -115 -90t-53 -188q0 -49 19 -74t51 -25z" />
    <glyph glyph-name="Cacute" unicode="&#x106;" horiz-adv-x="647" 
d="M313 -15q-115 0 -178 73t-63 183q0 109 47 206t129 156.5t178 59.5q118 0 179 -83l39 80h41l-56 -232h-35q-2 98 -47 144.5t-123 46.5q-79 0 -144 -53.5t-100 -139t-35 -182.5q0 -101 48 -157t134 -56q44 0 81.5 17.5t66.5 50t49 65t41 77.5l38 -16q-104 -240 -290 -240z
M549 821l-92 -85h-32l80 118q31 46 45 61t30 15q13 0 21.5 -8.5t8.5 -21.5q0 -4 -0.5 -8t-2.5 -8.5t-4 -7.5t-6 -8t-6.5 -8t-8.5 -8.5t-9.5 -8.5t-11.5 -10.5t-12 -11.5z" />
    <glyph glyph-name="cacute" unicode="&#x107;" horiz-adv-x="417" 
d="M277 452q49 0 84.5 -25.5t35.5 -66.5q0 -26 -13.5 -44.5t-34.5 -18.5q-17 0 -29 10.5t-12 29.5q0 32 32 56q-22 26 -64 26q-52 0 -94.5 -40.5t-63.5 -96t-21 -109.5q0 -66 28 -103t73 -37q78 0 137 107l25 -15q-71 -134 -177 -134q-69 0 -110.5 49.5t-41.5 128.5
q0 105 74 194t172 89zM381 608l-92 -85h-32l80 118q31 46 45 61t30 15q13 0 21.5 -8.5t8.5 -21.5q0 -4 -0.5 -8t-2.5 -8.5t-4 -7.5t-6 -8t-6.5 -8t-8.5 -8.5t-9.5 -8.5t-11.5 -10.5t-12 -11.5z" />
    <glyph glyph-name="Cdotaccent" unicode="&#x10a;" horiz-adv-x="647" 
d="M313 -15q-115 0 -178 73t-63 183q0 109 47 206t129 156.5t178 59.5q118 0 179 -83l39 80h41l-56 -232h-35q-2 98 -47 144.5t-123 46.5q-79 0 -144 -53.5t-100 -139t-35 -182.5q0 -101 48 -157t134 -56q44 0 81.5 17.5t66.5 50t49 65t41 77.5l38 -16q-104 -240 -290 -240z
M509 795q0 -20 -14 -38t-36 -18q-15 0 -26 10.5t-11 29.5q0 22 13.5 39.5t35.5 17.5q17 0 27.5 -11t10.5 -30z" />
    <glyph glyph-name="cdotaccent" unicode="&#x10b;" horiz-adv-x="417" 
d="M277 452q49 0 84.5 -25.5t35.5 -66.5q0 -26 -13.5 -44.5t-34.5 -18.5q-17 0 -29 10.5t-12 29.5q0 32 32 56q-22 26 -64 26q-52 0 -94.5 -40.5t-63.5 -96t-21 -109.5q0 -66 28 -103t73 -37q78 0 137 107l25 -15q-71 -134 -177 -134q-69 0 -110.5 49.5t-41.5 128.5
q0 105 74 194t172 89zM342 582q0 -20 -14 -38t-36 -18q-15 0 -26 10.5t-11 29.5q0 22 13.5 39.5t35.5 17.5q17 0 27.5 -11t10.5 -30z" />
    <glyph glyph-name="Ccaron" unicode="&#x10c;" horiz-adv-x="647" 
d="M313 -15q-115 0 -178 73t-63 183q0 109 47 206t129 156.5t178 59.5q118 0 179 -83l39 80h41l-56 -232h-35q-2 98 -47 144.5t-123 46.5q-79 0 -144 -53.5t-100 -139t-35 -182.5q0 -101 48 -157t134 -56q44 0 81.5 17.5t66.5 50t49 65t41 77.5l38 -16q-104 -240 -290 -240z
M615 925l-151 -179h-34l-61 179h28l63 -108l121 108h34z" />
    <glyph glyph-name="ccaron" unicode="&#x10d;" horiz-adv-x="417" 
d="M277 452q49 0 84.5 -25.5t35.5 -66.5q0 -26 -13.5 -44.5t-34.5 -18.5q-17 0 -29 10.5t-12 29.5q0 32 32 56q-22 26 -64 26q-52 0 -94.5 -40.5t-63.5 -96t-21 -109.5q0 -66 28 -103t73 -37q78 0 137 107l25 -15q-71 -134 -177 -134q-69 0 -110.5 49.5t-41.5 128.5
q0 105 74 194t172 89zM448 712l-151 -179h-34l-61 179h28l63 -108l121 108h34z" />
    <glyph glyph-name="Dcaron" unicode="&#x10e;" horiz-adv-x="676" 
d="M-20 0l10 40h109l141 568h-110l10 40h234q148 0 219.5 -66.5t71.5 -180.5q0 -80 -31 -155.5t-90 -132.5q-56 -55 -132 -84t-194 -29h-238zM168 40h40q181 0 268 87q115 115 115 292q0 189 -226 189h-55zM615 925l-151 -179h-34l-61 179h28l63 -108l121 108h34z" />
    <glyph glyph-name="dcaron" unicode="&#x10f;" 
d="M168 38q43 0 85.5 47t67.5 110.5t25 114.5q0 46 -20 75.5t-62 29.5q-44 0 -83 -43.5t-61 -107.5t-22 -127q0 -49 19 -74t51 -25zM459 157l27 -9q-32 -89 -60.5 -123t-61.5 -34q-28 0 -46 20t-18 60q0 16 3 28l-7 3q-73 -111 -148 -111q-51 0 -83 39.5t-32 108.5
q0 71 27.5 138t73.5 113q62 62 128 62q36 0 64 -22t37 -65l76 283h-95l10 39h158l-140 -518q-18 -66 -18 -96q0 -34 25 -34q37 0 80 118zM626 647l-55 -108h-26l38 156q13 56 43 56q11 0 19.5 -8t8.5 -22q0 -20 -28 -74z" />
    <glyph glyph-name="Dcroat" unicode="&#x110;" horiz-adv-x="676" 
d="M-20 0l10 40h109l69 280h-109l10 40h109l62 248h-110l10 40h234q148 0 219.5 -66.5t71.5 -180.5q0 -80 -31 -155.5t-90 -132.5q-56 -55 -132 -84t-194 -29h-238zM168 40h40q181 0 268 87q115 115 115 292q0 189 -226 189h-55l-62 -248h143l-10 -40h-143z" />
    <glyph glyph-name="dcroat" unicode="&#x111;" 
d="M354 687h158l-38 -138h77l-9 -34h-77l-93 -346q-18 -66 -18 -96q0 -34 25 -34q37 0 80 118l27 -9q-32 -89 -60.5 -123t-61.5 -34q-28 0 -46 20t-18 60q0 16 3 28l-7 3q-73 -111 -148 -111q-51 0 -83 39.5t-32 108.5q0 71 27.5 138t73.5 113q62 62 128 62q36 0 64 -22
t37 -65l40 150h-124l9 34h124l27 99h-95zM168 38q43 0 85.5 47t67.5 110.5t25 114.5q0 46 -20 75.5t-62 29.5q-44 0 -83 -43.5t-61 -107.5t-22 -127q0 -49 19 -74t51 -25z" />
    <glyph glyph-name="Emacron" unicode="&#x112;" horiz-adv-x="628" 
d="M139 648h528l-49 -196h-34q4 41 6.5 63t2 42.5t-2.5 28.5t-9 14t-15.5 7t-23.5 1h-232l-64 -257h112q36 0 50 16t39 83h31l-59 -238h-31q10 71 4.5 87t-40.5 16h-114l-69 -275h223q50 0 73.5 29.5t68.5 146.5h34l-54 -216h-534l10 40h109l141 568h-111zM342 755l13 53
h251l-13 -53h-251z" />
    <glyph glyph-name="emacron" unicode="&#x113;" horiz-adv-x="419" 
d="M400 364q0 -143 -302 -179q-1 -9 -1 -27q0 -62 25.5 -95t69.5 -33q79 0 152 102l24 -17q-86 -124 -190 -124q-67 0 -107 42t-40 117q0 114 85.5 208t178.5 94q49 0 77 -25.5t28 -62.5zM281 419q-60 0 -110.5 -63t-67.5 -142q236 31 236 148q0 27 -16 42t-42 15zM180 542
l13 53h251l-13 -53h-251z" />
    <glyph glyph-name="Ebreve" unicode="&#x114;" horiz-adv-x="628" 
d="M139 648h528l-49 -196h-34q4 41 6.5 63t2 42.5t-2.5 28.5t-9 14t-15.5 7t-23.5 1h-232l-64 -257h112q36 0 50 16t39 83h31l-59 -238h-31q10 71 4.5 87t-40.5 16h-114l-69 -275h223q50 0 73.5 29.5t68.5 146.5h34l-54 -216h-534l10 40h109l141 568h-111zM465 743
q-54 0 -80.5 39t-13.5 104h24q3 -89 77 -89q70 0 119 89h24q-20 -67 -59 -105t-91 -38z" />
    <glyph glyph-name="ebreve" unicode="&#x115;" horiz-adv-x="419" 
d="M400 364q0 -143 -302 -179q-1 -9 -1 -27q0 -62 25.5 -95t69.5 -33q79 0 152 102l24 -17q-86 -124 -190 -124q-67 0 -107 42t-40 117q0 114 85.5 208t178.5 94q49 0 77 -25.5t28 -62.5zM281 419q-60 0 -110.5 -63t-67.5 -142q236 31 236 148q0 27 -16 42t-42 15zM303 530
q-54 0 -80.5 39t-13.5 104h24q3 -89 77 -89q70 0 119 89h24q-20 -67 -59 -105t-91 -38z" />
    <glyph glyph-name="Edotaccent" unicode="&#x116;" horiz-adv-x="628" 
d="M139 648h528l-49 -196h-34q4 41 6.5 63t2 42.5t-2.5 28.5t-9 14t-15.5 7t-23.5 1h-232l-64 -257h112q36 0 50 16t39 83h31l-59 -238h-31q10 71 4.5 87t-40.5 16h-114l-69 -275h223q50 0 73.5 29.5t68.5 146.5h34l-54 -216h-534l10 40h109l141 568h-111zM519 795
q0 -20 -14 -38t-36 -18q-15 0 -26 10.5t-11 29.5q0 22 13.5 39.5t35.5 17.5q17 0 27.5 -11t10.5 -30z" />
    <glyph glyph-name="edotaccent" unicode="&#x117;" horiz-adv-x="419" 
d="M400 364q0 -143 -302 -179q-1 -9 -1 -27q0 -62 25.5 -95t69.5 -33q79 0 152 102l24 -17q-86 -124 -190 -124q-67 0 -107 42t-40 117q0 114 85.5 208t178.5 94q49 0 77 -25.5t28 -62.5zM281 419q-60 0 -110.5 -63t-67.5 -142q236 31 236 148q0 27 -16 42t-42 15zM357 582
q0 -20 -14 -38t-36 -18q-15 0 -26 10.5t-11 29.5q0 22 13.5 39.5t35.5 17.5q17 0 27.5 -11t10.5 -30z" />
    <glyph glyph-name="Eogonek" unicode="&#x118;" horiz-adv-x="628" 
d="M477 -201q-38 -32 -85 -32q-33 0 -57 19.5t-24 56.5t28 70.5t91 75.5l16 11h-466l10 40h109l141 568h-111l10 40h528l-49 -196h-34q4 41 6.5 63t2 42.5t-2.5 28.5t-9 14t-15.5 7t-23.5 1h-232l-64 -257h112q36 0 50 16t39 83h31l-59 -238h-31q10 71 4.5 87t-40.5 16h-114
l-69 -275h223q50 0 73.5 29.5t68.5 146.5h34l-54 -216h-29l-20 -16q-58 -45 -79.5 -75.5t-21.5 -58.5q0 -20 12 -32.5t34 -12.5q25 0 55 17z" />
    <glyph glyph-name="eogonek" unicode="&#x119;" horiz-adv-x="419" 
d="M344 132l24 -17q-43 -62 -94 -99l-36 -26q-111 -80 -111 -140q0 -20 12.5 -32.5t33.5 -12.5q25 0 55 17l12 -23q-38 -32 -85 -32q-33 0 -57 19.5t-24 56.5t28.5 71t93.5 78q-6 -1 -18 -1q-67 0 -107 42t-40 117q0 114 85.5 208t178.5 94q49 0 77 -25.5t28 -62.5
q0 -143 -302 -179q-1 -9 -1 -27q0 -62 25.5 -95t69.5 -33q79 0 152 102zM281 419q-60 0 -110.5 -63t-67.5 -142q236 31 236 148q0 27 -16 42t-42 15z" />
    <glyph glyph-name="Ecaron" unicode="&#x11a;" horiz-adv-x="628" 
d="M139 648h528l-49 -196h-34q4 41 6.5 63t2 42.5t-2.5 28.5t-9 14t-15.5 7t-23.5 1h-232l-64 -257h112q36 0 50 16t39 83h31l-59 -238h-31q10 71 4.5 87t-40.5 16h-114l-69 -275h223q50 0 73.5 29.5t68.5 146.5h34l-54 -216h-534l10 40h109l141 568h-111zM625 925
l-151 -179h-34l-61 179h28l63 -108l121 108h34z" />
    <glyph glyph-name="ecaron" unicode="&#x11b;" horiz-adv-x="419" 
d="M400 364q0 -143 -302 -179q-1 -9 -1 -27q0 -62 25.5 -95t69.5 -33q79 0 152 102l24 -17q-86 -124 -190 -124q-67 0 -107 42t-40 117q0 114 85.5 208t178.5 94q49 0 77 -25.5t28 -62.5zM281 419q-60 0 -110.5 -63t-67.5 -142q236 31 236 148q0 27 -16 42t-42 15zM463 712
l-151 -179h-34l-61 179h28l63 -108l121 108h34z" />
    <glyph glyph-name="Gbreve" unicode="&#x11e;" horiz-adv-x="691" 
d="M312 31q79 0 131 60t76 154l7 28h-123l12 40h282l-10 -40h-91l-70 -280h-36l1 96q-80 -105 -192 -105q-108 0 -167.5 74t-59.5 183q0 169 103.5 295.5t250.5 126.5q118 0 179 -83l39 80h41l-56 -232h-35q-2 98 -47 144.5t-123 46.5q-121 0 -200 -113.5t-79 -275.5
q0 -92 43.5 -145.5t123.5 -53.5zM445 743q-54 0 -80.5 39t-13.5 104h24q3 -89 77 -89q70 0 119 89h24q-20 -67 -59 -105t-91 -38z" />
    <glyph glyph-name="gbreve" unicode="&#x11f;" horiz-adv-x="469" 
d="M57 -108q19 -18 68 -18q62 0 102 40q46 46 77 183l-7 3q-62 -79 -133 -79q-55 0 -90 41t-35 106q0 61 25.5 122t68.5 104q58 58 125 58q38 0 67 -23t39 -69l23 86h62l-86 -361q-29 -124 -87 -184.5t-148 -60.5q-30 0 -58.5 6.5t-52.5 26.5t-24 50q0 23 14 40.5t35 17.5
q18 0 29 -11.5t11 -29.5q0 -29 -25 -48zM189 65q65 0 112.5 76t47.5 167q0 43 -24 75t-64 32q-63 0 -110 -78.5t-47 -158.5q0 -56 23 -84.5t62 -28.5zM296 530q-54 0 -80.5 39t-13.5 104h24q3 -89 77 -89q70 0 119 89h24q-20 -67 -59 -105t-91 -38z" />
    <glyph glyph-name="Gdotaccent" unicode="&#x120;" horiz-adv-x="691" 
d="M312 31q79 0 131 60t76 154l7 28h-123l12 40h282l-10 -40h-91l-70 -280h-36l1 96q-80 -105 -192 -105q-108 0 -167.5 74t-59.5 183q0 169 103.5 295.5t250.5 126.5q118 0 179 -83l39 80h41l-56 -232h-35q-2 98 -47 144.5t-123 46.5q-121 0 -200 -113.5t-79 -275.5
q0 -92 43.5 -145.5t123.5 -53.5zM500 795q0 -20 -14 -38t-36 -18q-15 0 -26 10.5t-11 29.5q0 22 13.5 39.5t35.5 17.5q17 0 27.5 -11t10.5 -30z" />
    <glyph glyph-name="gdotaccent" unicode="&#x121;" horiz-adv-x="469" 
d="M57 -108q19 -18 68 -18q62 0 102 40q46 46 77 183l-7 3q-62 -79 -133 -79q-55 0 -90 41t-35 106q0 61 25.5 122t68.5 104q58 58 125 58q38 0 67 -23t39 -69l23 86h62l-86 -361q-29 -124 -87 -184.5t-148 -60.5q-30 0 -58.5 6.5t-52.5 26.5t-24 50q0 23 14 40.5t35 17.5
q18 0 29 -11.5t11 -29.5q0 -29 -25 -48zM189 65q65 0 112.5 76t47.5 167q0 43 -24 75t-64 32q-63 0 -110 -78.5t-47 -158.5q0 -56 23 -84.5t62 -28.5zM351 582q0 -20 -14 -38t-36 -18q-15 0 -26 10.5t-11 29.5q0 22 13.5 39.5t35.5 17.5q17 0 27.5 -11t10.5 -30z" />
    <glyph glyph-name="Gcommaaccent" unicode="&#x122;" horiz-adv-x="691" 
d="M312 31q79 0 131 60t76 154l7 28h-123l12 40h282l-10 -40h-91l-70 -280h-36l1 96q-80 -105 -192 -105q-108 0 -167.5 74t-59.5 183q0 169 103.5 295.5t250.5 126.5q118 0 179 -83l39 80h41l-56 -232h-35q-2 98 -47 144.5t-123 46.5q-121 0 -200 -113.5t-79 -275.5
q0 -92 43.5 -145.5t123.5 -53.5zM159 -275l-10 27q76 29 93 83l-2 2q-8 -4 -17 -4q-35 0 -35 37q0 20 13.5 36.5t35.5 16.5q23 0 35 -15.5t12 -41.5q0 -41 -31.5 -81t-93.5 -60z" />
    <glyph glyph-name="gcommaaccent" unicode="&#x123;" horiz-adv-x="469" 
d="M57 -108q19 -18 68 -18q62 0 102 40q46 46 77 183l-7 3q-62 -79 -133 -79q-55 0 -90 41t-35 106q0 61 25.5 122t68.5 104q58 58 125 58q38 0 67 -23t39 -69l23 86h62l-86 -361q-29 -124 -87 -184.5t-148 -60.5q-30 0 -58.5 6.5t-52.5 26.5t-24 50q0 23 14 40.5t35 17.5
q18 0 29 -11.5t11 -29.5q0 -29 -25 -48zM189 65q65 0 112.5 76t47.5 167q0 43 -24 75t-64 32q-63 0 -110 -78.5t-47 -158.5q0 -56 23 -84.5t62 -28.5zM387 724l10 -27q-76 -29 -93 -83l2 -2q8 4 17 4q35 0 35 -37q0 -20 -13.5 -36.5t-35.5 -16.5q-23 0 -35 15.5t-12 41.5
q0 41 31.5 81t93.5 60z" />
    <glyph glyph-name="Hbar" unicode="&#x126;" horiz-adv-x="746" 
d="M93 458l9 36h110l28 114h-111l10 40h277l-10 -40h-96l-29 -114h318l29 114h-98l10 40h277l-10 -40h-109l-28 -114h108l-9 -36h-108l-104 -418h111l-10 -40h-277l10 40h96l66 266h-318l-66 -266h98l-10 -40h-277l10 40h109l104 418h-110zM244 344h318l28 114h-318z" />
    <glyph glyph-name="hbar" unicode="&#x127;" horiz-adv-x="514" 
d="M368 -9q-29 0 -48 23t-18 63q0 40 37.5 137.5t37.5 140.5q0 45 -42 45q-54 0 -124 -101t-124 -299h-67l136 515h-78l9 34h78l26 99h-95l10 39h158l-38 -138h124l-9 -34h-124l-72 -266l7 -3q49 99 103 152.5t105 53.5q36 0 59 -25.5t23 -70.5q0 -46 -39 -150.5t-39 -138.5
q0 -28 22 -28q37 0 80 118l27 -9q-32 -89 -61.5 -123t-63.5 -34z" />
    <glyph glyph-name="Imacron" unicode="&#x12a;" horiz-adv-x="366" 
d="M-16 0l10 40h109l141 568h-111l10 40h290l-10 -40h-109l-141 -568h111l-10 -40h-290zM190 755l13 53h251l-13 -53h-251z" />
    <glyph glyph-name="imacron" unicode="&#x12b;" horiz-adv-x="306" 
d="M227 364q0 -47 -44 -156.5t-44 -140.5q0 -28 24 -28q38 0 81 118l27 -9q-32 -88 -61.5 -122.5t-62.5 -34.5t-52 22t-18 61q0 42 45 151t45 154q0 31 -22 31q-21 0 -43.5 -30t-52.5 -87l-26 12q36 74 66.5 110.5t68.5 36.5q32 0 50.5 -23.5t18.5 -64.5zM80 542l13 53h251
l-13 -53h-251z" />
    <glyph glyph-name="Ibreve" unicode="&#x12c;" horiz-adv-x="366" 
d="M-16 0l10 40h109l141 568h-111l10 40h290l-10 -40h-109l-141 -568h111l-10 -40h-290zM313 743q-54 0 -80.5 39t-13.5 104h24q3 -89 77 -89q70 0 119 89h24q-20 -67 -59 -105t-91 -38z" />
    <glyph glyph-name="ibreve" unicode="&#x12d;" horiz-adv-x="306" 
d="M227 364q0 -47 -44 -156.5t-44 -140.5q0 -28 24 -28q38 0 81 118l27 -9q-32 -88 -61.5 -122.5t-62.5 -34.5t-52 22t-18 61q0 42 45 151t45 154q0 31 -22 31q-21 0 -43.5 -30t-52.5 -87l-26 12q36 74 66.5 110.5t68.5 36.5q32 0 50.5 -23.5t18.5 -64.5zM203 530
q-54 0 -80.5 39t-13.5 104h24q3 -89 77 -89q70 0 119 89h24q-20 -67 -59 -105t-91 -38z" />
    <glyph glyph-name="Iogonek" unicode="&#x12e;" horiz-adv-x="366" 
d="M-16 0l10 40h109l141 568h-111l10 40h290l-10 -40h-109l-141 -568h111l-10 -40h-103l-20 -16q-58 -45 -79.5 -75.5t-21.5 -58.5q0 -20 12 -32.5t34 -12.5q25 0 55 17l12 -23q-38 -32 -85 -32q-33 0 -57 19.5t-24 56.5t28 70.5t91 75.5l16 11h-148z" />
    <glyph glyph-name="iogonek" unicode="&#x12f;" horiz-adv-x="306" 
d="M244 157l27 -9q-42 -114 -88 -151q-42 -34 -59 -48.5t-37 -43.5t-20 -55q0 -20 12.5 -32.5t33.5 -12.5q25 0 55 17l12 -23q-38 -32 -85 -32q-33 0 -57 19.5t-24 56.5q0 36 28 70t91 79q-27 5 -42 26t-14 56q0 42 45 151t45 154q0 31 -22 31q-21 0 -43.5 -30t-52.5 -87
l-26 12q36 74 66.5 110.5t68.5 36.5q32 0 50.5 -23.5t18.5 -64.5q0 -47 -44 -156.5t-44 -140.5q0 -28 24 -28q38 0 81 118zM279 597q0 -21 -14.5 -39.5t-37.5 -18.5q-16 0 -27.5 11t-11.5 31q0 22 14 40.5t37 18.5q18 0 29 -11.5t11 -31.5z" />
    <glyph glyph-name="Idotaccent" unicode="&#x130;" horiz-adv-x="366" 
d="M-16 0l10 40h109l141 568h-111l10 40h290l-10 -40h-109l-141 -568h111l-10 -40h-290zM367 795q0 -20 -14 -38t-36 -18q-15 0 -26 10.5t-11 29.5q0 22 13.5 39.5t35.5 17.5q17 0 27.5 -11t10.5 -30z" />
    <glyph glyph-name="dotlessi" unicode="&#x131;" horiz-adv-x="306" 
d="M227 364q0 -47 -44 -156.5t-44 -140.5q0 -28 24 -28q38 0 81 118l27 -9q-32 -88 -61.5 -122.5t-62.5 -34.5t-52 22t-18 61q0 42 45 151t45 154q0 31 -22 31q-21 0 -43.5 -30t-52.5 -87l-26 12q36 74 66.5 110.5t68.5 36.5q32 0 50.5 -23.5t18.5 -64.5z" />
    <glyph glyph-name="Kcommaaccent" unicode="&#x136;" horiz-adv-x="702" 
d="M690 608l-287 -232l159 -336h83l-10 -40h-259l10 40h94l-133 292l-132 -108l-46 -184h98l-10 -40h-277l10 40h109l141 568h-111l10 40h277l-10 -40h-96l-79 -321l390 321h-90l10 40h241l-10 -40h-82zM203 -275l-10 27q76 29 93 83l-2 2q-8 -4 -17 -4q-35 0 -35 37
q0 20 13.5 36.5t35.5 16.5q23 0 35 -15.5t12 -41.5q0 -41 -31.5 -81t-93.5 -60z" />
    <glyph glyph-name="kcommaaccent" unicode="&#x137;" horiz-adv-x="472" 
d="M314 75q0 -36 23 -36q37 0 80 118l27 -9q-32 -89 -61.5 -123t-63.5 -34q-29 0 -48.5 23t-18.5 63q1 18 5 51.5t4 42.5q0 30 -17 42.5t-67 12.5h-36l-60 -226h-61l171 648h-95l10 39h158l-116 -432h22q37 0 64 22t58 75t55 76.5t56 23.5q29 0 44 -14t15 -38
q0 -25 -13.5 -41.5t-33.5 -16.5q-23 0 -32 21.5t4 47.5q-18 -1 -33.5 -19t-37.5 -56q-41 -70 -89 -90q95 -6 95 -77q0 -17 -4 -47.5t-4 -46.5zM65 -275l-10 27q76 29 93 83l-2 2q-8 -4 -17 -4q-35 0 -35 37q0 20 13.5 36.5t35.5 16.5q23 0 35 -15.5t12 -41.5
q0 -41 -31.5 -81t-93.5 -60z" />
    <glyph glyph-name="Lacute" unicode="&#x139;" horiz-adv-x="589" 
d="M139 648h277l-10 -40h-96l-141 -568h214q47 0 67 29t65 151h34l-55 -220h-514l10 40h109l141 568h-111zM411 821l-92 -85h-32l80 118q31 46 45 61t30 15q13 0 21.5 -8.5t8.5 -21.5q0 -4 -0.5 -8t-2.5 -8.5t-4 -7.5t-6 -8t-6.5 -8t-8.5 -8.5t-9.5 -8.5t-11.5 -10.5
t-12 -11.5z" />
    <glyph glyph-name="lacute" unicode="&#x13a;" horiz-adv-x="250" 
d="M35 72q0 31 18 97l129 479h-95l10 39h158l-140 -518q-18 -66 -18 -96q0 -34 25 -34q37 0 80 118l27 -9q-32 -89 -61 -123t-63 -34q-32 0 -51 21.5t-19 59.5zM315 852l-92 -85h-32l80 118q31 46 45 61t30 15q13 0 21.5 -8.5t8.5 -21.5q0 -4 -0.5 -8t-2.5 -8.5t-4 -7.5
t-6 -8t-6.5 -8t-8.5 -8.5t-9.5 -8.5t-11.5 -10.5t-12 -11.5z" />
    <glyph glyph-name="Lcommaaccent" unicode="&#x13b;" horiz-adv-x="589" 
d="M139 648h277l-10 -40h-96l-141 -568h214q47 0 67 29t65 151h34l-55 -220h-514l10 40h109l141 568h-111zM178 -275l-10 27q76 29 93 83l-2 2q-8 -4 -17 -4q-35 0 -35 37q0 20 13.5 36.5t35.5 16.5q23 0 35 -15.5t12 -41.5q0 -41 -31.5 -81t-93.5 -60z" />
    <glyph glyph-name="lcommaaccent" unicode="&#x13c;" horiz-adv-x="250" 
d="M35 72q0 31 18 97l129 479h-95l10 39h158l-140 -518q-18 -66 -18 -96q0 -34 25 -34q37 0 80 118l27 -9q-32 -89 -61 -123t-63 -34q-32 0 -51 21.5t-19 59.5zM-7 -275l-10 27q76 29 93 83l-2 2q-8 -4 -17 -4q-35 0 -35 37q0 20 13.5 36.5t35.5 16.5q23 0 35 -15.5
t12 -41.5q0 -41 -31.5 -81t-93.5 -60z" />
    <glyph glyph-name="Lcaron" unicode="&#x13d;" horiz-adv-x="589" 
d="M139 648h277l-10 -40h-96l-141 -568h214q47 0 67 29t65 151h34l-55 -220h-514l10 40h109l141 568h-111zM529 608l-55 -108h-26l38 156q13 56 43 56q11 0 19.5 -8t8.5 -22q0 -20 -28 -74z" />
    <glyph glyph-name="lcaron" unicode="&#x13e;" horiz-adv-x="250" 
d="M35 72q0 31 18 97l129 479h-95l10 39h158l-140 -518q-18 -66 -18 -96q0 -34 25 -34q37 0 80 118l27 -9q-32 -89 -61 -123t-63 -34q-32 0 -51 21.5t-19 59.5zM369 647l-55 -108h-26l38 156q13 56 43 56q11 0 19.5 -8t8.5 -22q0 -20 -28 -74z" />
    <glyph glyph-name="Ldot" unicode="&#x13f;" horiz-adv-x="589" 
d="M139 648h277l-10 -40h-96l-141 -568h214q47 0 67 29t65 151h34l-55 -220h-514l10 40h109l141 568h-111zM478 308q-15 0 -26 10.5t-11 29.5q0 22 13.5 39.5t35.5 17.5q17 0 27.5 -11t10.5 -30q0 -20 -14 -38t-36 -18z" />
    <glyph glyph-name="ldot" unicode="&#x140;" horiz-adv-x="355" 
d="M354 357q0 -20 -14 -38t-36 -18q-15 0 -26 10.5t-11 29.5q0 22 13.5 39.5t35.5 17.5q17 0 27.5 -11t10.5 -30zM35 72q0 31 18 97l129 479h-95l10 39h158l-140 -518q-18 -66 -18 -96q0 -34 25 -34q37 0 80 118l27 -9q-32 -89 -61 -123t-63 -34q-32 0 -51 21.5t-19 59.5z
" />
    <glyph glyph-name="Lslash" unicode="&#x141;" horiz-adv-x="589" 
d="M139 648h277l-10 -40h-96l-63 -254l192 59l-10 -40l-192 -60l-68 -273h214q47 0 67 29t65 151h34l-55 -220h-514l10 40h109l62 250l-93 -29l10 42l93 28l69 277h-111z" />
    <glyph glyph-name="lslash" unicode="&#x142;" horiz-adv-x="290" 
d="M55 72q0 31 18 97l39 145l-85 -26l9 38l86 27l80 295h-95l10 39h158l-85 -313l100 31l-9 -38l-101 -32l-45 -166q-18 -66 -18 -96q0 -34 25 -34q37 0 80 118l27 -9q-32 -89 -61 -123t-63 -34q-32 0 -51 21.5t-19 59.5z" />
    <glyph glyph-name="Nacute" unicode="&#x143;" horiz-adv-x="733" 
d="M520 -16l-247 585h-2l-131 -529h92l-10 -40h-242l10 40h104l141 568h-106l10 40h173l226 -531h2l121 491h-94l10 40h237l-10 -40h-97l-155 -624h-32zM581 821l-92 -85h-32l80 118q31 46 45 61t30 15q13 0 21.5 -8.5t8.5 -21.5q0 -4 -0.5 -8t-2.5 -8.5t-4 -7.5t-6 -8
t-6.5 -8t-8.5 -8.5t-9.5 -8.5t-11.5 -10.5t-12 -11.5z" />
    <glyph glyph-name="nacute" unicode="&#x144;" horiz-adv-x="547" 
d="M397 67q0 -28 22 -28q37 0 80 118l27 -9q-32 -89 -61.5 -123t-63.5 -34q-29 0 -48 23t-18 63q0 40 37.5 137.5t37.5 140.5q0 45 -42 45q-53 0 -119 -100t-120 -300h-67l82 306q28 104 -8 104q-10 0 -20.5 -8t-23 -28t-21 -34.5t-24.5 -46.5l-26 12q33 73 62.5 109
t65.5 36q58 0 58 -74q0 -45 -22 -123l7 -3q99 202 201 202q36 0 59 -25.5t23 -70.5q0 -46 -39 -150.5t-39 -138.5zM431 608l-92 -85h-32l80 118q31 46 45 61t30 15q13 0 21.5 -8.5t8.5 -21.5q0 -4 -0.5 -8t-2.5 -8.5t-4 -7.5t-6 -8t-6.5 -8t-8.5 -8.5t-9.5 -8.5t-11.5 -10.5
t-12 -11.5z" />
    <glyph glyph-name="Ncommaaccent" unicode="&#x145;" horiz-adv-x="733" 
d="M520 -16l-247 585h-2l-131 -529h92l-10 -40h-242l10 40h104l141 568h-106l10 40h173l226 -531h2l121 491h-94l10 40h237l-10 -40h-97l-155 -624h-32zM200 -275l-10 27q76 29 93 83l-2 2q-8 -4 -17 -4q-35 0 -35 37q0 20 13.5 36.5t35.5 16.5q23 0 35 -15.5t12 -41.5
q0 -41 -31.5 -81t-93.5 -60z" />
    <glyph glyph-name="ncommaaccent" unicode="&#x146;" horiz-adv-x="547" 
d="M397 67q0 -28 22 -28q37 0 80 118l27 -9q-32 -89 -61.5 -123t-63.5 -34q-29 0 -48 23t-18 63q0 40 37.5 137.5t37.5 140.5q0 45 -42 45q-53 0 -119 -100t-120 -300h-67l82 306q28 104 -8 104q-10 0 -20.5 -8t-23 -28t-21 -34.5t-24.5 -46.5l-26 12q33 73 62.5 109
t65.5 36q58 0 58 -74q0 -45 -22 -123l7 -3q99 202 201 202q36 0 59 -25.5t23 -70.5q0 -46 -39 -150.5t-39 -138.5zM134 -275l-10 27q76 29 93 83l-2 2q-8 -4 -17 -4q-35 0 -35 37q0 20 13.5 36.5t35.5 16.5q23 0 35 -15.5t12 -41.5q0 -41 -31.5 -81t-93.5 -60z" />
    <glyph glyph-name="Ncaron" unicode="&#x147;" horiz-adv-x="733" 
d="M520 -16l-247 585h-2l-131 -529h92l-10 -40h-242l10 40h104l141 568h-106l10 40h173l226 -531h2l121 491h-94l10 40h237l-10 -40h-97l-155 -624h-32zM647 925l-151 -179h-34l-61 179h28l63 -108l121 108h34z" />
    <glyph glyph-name="ncaron" unicode="&#x148;" horiz-adv-x="547" 
d="M397 67q0 -28 22 -28q37 0 80 118l27 -9q-32 -89 -61.5 -123t-63.5 -34q-29 0 -48 23t-18 63q0 40 37.5 137.5t37.5 140.5q0 45 -42 45q-53 0 -119 -100t-120 -300h-67l82 306q28 104 -8 104q-10 0 -20.5 -8t-23 -28t-21 -34.5t-24.5 -46.5l-26 12q33 73 62.5 109
t65.5 36q58 0 58 -74q0 -45 -22 -123l7 -3q99 202 201 202q36 0 59 -25.5t23 -70.5q0 -46 -39 -150.5t-39 -138.5zM498 712l-151 -179h-34l-61 179h28l63 -108l121 108h34z" />
    <glyph glyph-name="Omacron" unicode="&#x14c;" horiz-adv-x="685" 
d="M74 256q0 103 43.5 195.5t123.5 151.5t176 59q110 0 178 -75t68 -197q0 -103 -43.5 -195.5t-123.5 -151.5t-176 -59q-110 0 -178 75t-68 197zM415 620q-67 0 -120.5 -37.5t-84.5 -95.5t-47.5 -120.5t-16.5 -121.5q0 -112 48.5 -165.5t127.5 -53.5q66 0 120 37t85 95
t47.5 121t16.5 121q0 113 -48.5 166.5t-127.5 53.5zM337 755l13 53h251l-13 -53h-251z" />
    <glyph glyph-name="omacron" unicode="&#x14d;" horiz-adv-x="459" 
d="M267 452q74 0 115.5 -50t41.5 -130q0 -112 -69 -196.5t-162 -84.5q-75 0 -116.5 50t-41.5 130q0 112 69.5 196.5t162.5 84.5zM360 297q0 62 -26 92t-66 30q-50 0 -90.5 -45.5t-59.5 -107t-19 -120.5q0 -62 26 -92t66 -30q50 0 90.5 45.5t59.5 107t19 120.5zM185 542
l13 53h251l-13 -53h-251z" />
    <glyph glyph-name="Obreve" unicode="&#x14e;" horiz-adv-x="685" 
d="M74 256q0 103 43.5 195.5t123.5 151.5t176 59q110 0 178 -75t68 -197q0 -103 -43.5 -195.5t-123.5 -151.5t-176 -59q-110 0 -178 75t-68 197zM415 620q-67 0 -120.5 -37.5t-84.5 -95.5t-47.5 -120.5t-16.5 -121.5q0 -112 48.5 -165.5t127.5 -53.5q66 0 120 37t85 95
t47.5 121t16.5 121q0 113 -48.5 166.5t-127.5 53.5zM460 743q-54 0 -80.5 39t-13.5 104h24q3 -89 77 -89q70 0 119 89h24q-20 -67 -59 -105t-91 -38z" />
    <glyph glyph-name="obreve" unicode="&#x14f;" horiz-adv-x="459" 
d="M267 452q74 0 115.5 -50t41.5 -130q0 -112 -69 -196.5t-162 -84.5q-75 0 -116.5 50t-41.5 130q0 112 69.5 196.5t162.5 84.5zM360 297q0 62 -26 92t-66 30q-50 0 -90.5 -45.5t-59.5 -107t-19 -120.5q0 -62 26 -92t66 -30q50 0 90.5 45.5t59.5 107t19 120.5zM308 530
q-54 0 -80.5 39t-13.5 104h24q3 -89 77 -89q70 0 119 89h24q-20 -67 -59 -105t-91 -38z" />
    <glyph glyph-name="Ohungarumlaut" unicode="&#x150;" horiz-adv-x="685" 
d="M74 256q0 103 43.5 195.5t123.5 151.5t176 59q110 0 178 -75t68 -197q0 -103 -43.5 -195.5t-123.5 -151.5t-176 -59q-110 0 -178 75t-68 197zM415 620q-67 0 -120.5 -37.5t-84.5 -95.5t-47.5 -120.5t-16.5 -121.5q0 -112 48.5 -165.5t127.5 -53.5q66 0 120 37t85 95
t47.5 121t16.5 121q0 113 -48.5 166.5t-127.5 53.5zM485 821l-90 -85h-32l78 118q31 48 43 62t28 14q13 0 21.5 -8.5t8.5 -21.5q0 -18 -11.5 -32.5t-45.5 -46.5zM633 821l-90 -85h-32l78 118q31 48 43 62t28 14q13 0 21.5 -8.5t8.5 -21.5q0 -18 -11.5 -32.5t-45.5 -46.5z
" />
    <glyph glyph-name="ohungarumlaut" unicode="&#x151;" horiz-adv-x="459" 
d="M267 452q74 0 115.5 -50t41.5 -130q0 -112 -69 -196.5t-162 -84.5q-75 0 -116.5 50t-41.5 130q0 112 69.5 196.5t162.5 84.5zM360 297q0 62 -26 92t-66 30q-50 0 -90.5 -45.5t-59.5 -107t-19 -120.5q0 -62 26 -92t66 -30q50 0 90.5 45.5t59.5 107t19 120.5zM332 608
l-90 -85h-32l78 118q31 48 43 62t28 14q13 0 21.5 -8.5t8.5 -21.5q0 -18 -11.5 -32.5t-45.5 -46.5zM480 608l-90 -85h-32l78 118q31 48 43 62t28 14q13 0 21.5 -8.5t8.5 -21.5q0 -18 -11.5 -32.5t-45.5 -46.5z" />
    <glyph glyph-name="OE" unicode="&#x152;" horiz-adv-x="967" 
d="M518 648h477l-49 -196h-34q4 41 6.5 63t2 42.5t-2.5 28.5t-9 14t-15.5 7t-23.5 1h-232l-64 -257h112q36 0 50 16t39 83h31l-59 -238h-31q10 71 4.5 87t-40.5 16h-114l-69 -275h223q50 0 73.5 29.5t68.5 146.5h34l-54 -216h-480q-148 0 -219.5 66.5t-71.5 180.5
q0 80 31 155.5t90 132.5q56 55 132 84t194 29zM568 608h-40q-181 0 -268 -87q-115 -115 -115 -292q0 -189 226 -189h55z" />
    <glyph glyph-name="oe" unicode="&#x153;" horiz-adv-x="728" 
d="M653 132l24 -17q-86 -124 -190 -124q-50 0 -84.5 26.5t-45.5 71.5q-29 -46 -72 -72t-92 -26q-75 0 -116.5 50t-41.5 130q0 112 69.5 196.5t162.5 84.5q114 0 145 -117q35 52 87.5 84.5t104.5 32.5q49 0 77 -25.5t28 -62.5q0 -143 -302 -179q-1 -9 -1 -27q0 -62 25.5 -95
t69.5 -33q79 0 152 102zM360 297q0 62 -26 92t-66 30q-50 0 -90.5 -45.5t-59.5 -107t-19 -120.5q0 -62 26 -92t66 -30q50 0 90.5 45.5t59.5 107t19 120.5zM590 419q-60 0 -110.5 -63t-67.5 -142q236 31 236 148q0 27 -16 42t-42 15z" />
    <glyph glyph-name="Racute" unicode="&#x154;" horiz-adv-x="660" 
d="M-20 0l10 40h109l141 568h-111l10 40h280q113 0 161 -40.5t48 -102.5q0 -71 -49 -125t-147 -65l-1 -2q56 -15 76.5 -41t20.5 -68q0 -22 -7 -67t-7 -61q0 -44 42 -44q31 0 68 17l10 -22q-55 -38 -112 -38q-36 0 -59 20.5t-23 62.5q0 25 10 79.5t10 80.5q0 32 -22 48
t-79 16h-126l-64 -256h112l-10 -40h-291zM241 333h114q102 0 152 50q48 48 48 128q0 48 -31.5 73t-102.5 24h-111zM525 821l-92 -85h-32l80 118q31 46 45 61t30 15q13 0 21.5 -8.5t8.5 -21.5q0 -4 -0.5 -8t-2.5 -8.5t-4 -7.5t-6 -8t-6.5 -8t-8.5 -8.5t-9.5 -8.5t-11.5 -10.5
t-12 -11.5z" />
    <glyph glyph-name="racute" unicode="&#x155;" horiz-adv-x="406" 
d="M62 0l82 306q28 104 -8 104q-10 0 -20.5 -8t-23 -28t-21 -34.5t-24.5 -46.5l-26 12q33 73 62.5 109t65.5 36q58 0 58 -74q0 -45 -22 -123l8 -3q52 104 90.5 153t78.5 49q22 0 36 -14.5t14 -37.5q0 -25 -14 -43t-33 -18t-29 15.5t-6 42.5q-41 -20 -99 -126t-102 -271h-67z
M375 608l-92 -85h-32l80 118q31 46 45 61t30 15q13 0 21.5 -8.5t8.5 -21.5q0 -4 -0.5 -8t-2.5 -8.5t-4 -7.5t-6 -8t-6.5 -8t-8.5 -8.5t-9.5 -8.5t-11.5 -10.5t-12 -11.5z" />
    <glyph glyph-name="Rcommaaccent" unicode="&#x156;" horiz-adv-x="660" 
d="M-20 0l10 40h109l141 568h-111l10 40h280q113 0 161 -40.5t48 -102.5q0 -71 -49 -125t-147 -65l-1 -2q56 -15 76.5 -41t20.5 -68q0 -22 -7 -67t-7 -61q0 -44 42 -44q31 0 68 17l10 -22q-55 -38 -112 -38q-36 0 -59 20.5t-23 62.5q0 25 10 79.5t10 80.5q0 32 -22 48
t-79 16h-126l-64 -256h112l-10 -40h-291zM241 333h114q102 0 152 50q48 48 48 128q0 48 -31.5 73t-102.5 24h-111zM195 -275l-10 27q76 29 93 83l-2 2q-8 -4 -17 -4q-35 0 -35 37q0 20 13.5 36.5t35.5 16.5q23 0 35 -15.5t12 -41.5q0 -41 -31.5 -81t-93.5 -60z" />
    <glyph glyph-name="rcommaaccent" unicode="&#x157;" horiz-adv-x="406" 
d="M62 0l82 306q28 104 -8 104q-10 0 -20.5 -8t-23 -28t-21 -34.5t-24.5 -46.5l-26 12q33 73 62.5 109t65.5 36q58 0 58 -74q0 -45 -22 -123l8 -3q52 104 90.5 153t78.5 49q22 0 36 -14.5t14 -37.5q0 -25 -14 -43t-33 -18t-29 15.5t-6 42.5q-41 -20 -99 -126t-102 -271h-67z
M3 -275l-10 27q76 29 93 83l-2 2q-8 -4 -17 -4q-35 0 -35 37q0 20 13.5 36.5t35.5 16.5q23 0 35 -15.5t12 -41.5q0 -41 -31.5 -81t-93.5 -60z" />
    <glyph glyph-name="Rcaron" unicode="&#x158;" horiz-adv-x="660" 
d="M-20 0l10 40h109l141 568h-111l10 40h280q113 0 161 -40.5t48 -102.5q0 -71 -49 -125t-147 -65l-1 -2q56 -15 76.5 -41t20.5 -68q0 -22 -7 -67t-7 -61q0 -44 42 -44q31 0 68 17l10 -22q-55 -38 -112 -38q-36 0 -59 20.5t-23 62.5q0 25 10 79.5t10 80.5q0 32 -22 48
t-79 16h-126l-64 -256h112l-10 -40h-291zM241 333h114q102 0 152 50q48 48 48 128q0 48 -31.5 73t-102.5 24h-111zM592 925l-151 -179h-34l-61 179h28l63 -108l121 108h34z" />
    <glyph glyph-name="rcaron" unicode="&#x159;" horiz-adv-x="406" 
d="M62 0l82 306q28 104 -8 104q-10 0 -20.5 -8t-23 -28t-21 -34.5t-24.5 -46.5l-26 12q33 73 62.5 109t65.5 36q58 0 58 -74q0 -45 -22 -123l8 -3q52 104 90.5 153t78.5 49q22 0 36 -14.5t14 -37.5q0 -25 -14 -43t-33 -18t-29 15.5t-6 42.5q-41 -20 -99 -126t-102 -271h-67z
M442 712l-151 -179h-34l-61 179h28l63 -108l121 108h34z" />
    <glyph glyph-name="Sacute" unicode="&#x15a;" horiz-adv-x="553" 
d="M-1 -13l55 224h31q35 -190 203 -190q60 0 102.5 37t42.5 97q0 47 -33.5 77.5t-110.5 66.5q-80 38 -121.5 76t-41.5 100q0 78 59 132.5t150 54.5q109 0 176 -80l40 77h35l-51 -211h-32q-16 102 -61.5 140t-111.5 38q-56 0 -97.5 -35.5t-41.5 -92.5q0 -25 9 -44.5
t30.5 -36.5t39.5 -27.5t54 -28.5q46 -23 70.5 -37t53 -37t40.5 -49.5t12 -60.5q0 -82 -62.5 -137.5t-153.5 -55.5q-129 0 -204 94l-45 -91h-36zM496 821l-92 -85h-32l80 118q31 46 45 61t30 15q13 0 21.5 -8.5t8.5 -21.5q0 -4 -0.5 -8t-2.5 -8.5t-4 -7.5t-6 -8t-6.5 -8
t-8.5 -8.5t-9.5 -8.5t-11.5 -10.5t-12 -11.5z" />
    <glyph glyph-name="sacute" unicode="&#x15b;" horiz-adv-x="408" 
d="M343 128q0 -64 -48.5 -100.5t-115.5 -36.5q-59 0 -108 28.5t-49 71.5q0 23 13.5 40.5t35.5 17.5q17 0 27.5 -11t10.5 -29q0 -30 -26 -50q12 -16 38.5 -26.5t57.5 -10.5q47 0 76 25t29 63q0 28 -18.5 45.5t-78.5 45.5q-23 11 -37 19t-31.5 22t-26 33t-8.5 42q0 61 46.5 98
t113.5 37q56 0 99 -24.5t43 -65.5q0 -21 -12.5 -37t-32.5 -16q-17 0 -28 10.5t-11 28.5q0 28 24 46q-9 10 -32.5 18.5t-49.5 8.5q-46 0 -73.5 -23.5t-27.5 -59.5q0 -28 19 -47.5t69 -41.5q58 -26 85 -51.5t27 -69.5zM381 608l-92 -85h-32l80 118q31 46 45 61t30 15
q13 0 21.5 -8.5t8.5 -21.5q0 -4 -0.5 -8t-2.5 -8.5t-4 -7.5t-6 -8t-6.5 -8t-8.5 -8.5t-9.5 -8.5t-11.5 -10.5t-12 -11.5z" />
    <glyph glyph-name="Scedilla" unicode="&#x15e;" horiz-adv-x="553" 
d="M119 -165q41 -34 82 -34q25 0 42.5 14t17.5 39q0 21 -18.5 32t-40.5 10.5t-40 -1.5l-9 18l91 74q-102 12 -164 91l-45 -91h-36l55 224h31q35 -190 203 -190q60 0 102.5 37t42.5 97q0 47 -33.5 77.5t-110.5 66.5q-80 38 -121.5 76t-41.5 100q0 78 59 132.5t150 54.5
q109 0 176 -80l40 77h35l-51 -211h-32q-16 102 -61.5 140t-111.5 38q-56 0 -97.5 -35.5t-41.5 -92.5q0 -25 9 -44.5t30.5 -36.5t39.5 -27.5t54 -28.5q46 -23 70.5 -37t53 -37t40.5 -49.5t12 -60.5q0 -81 -61.5 -136t-150.5 -57l-68 -53v-3q42 -4 65.5 -22.5t23.5 -48.5
q0 -40 -31.5 -65t-74.5 -25q-60 0 -105 41z" />
    <glyph glyph-name="scedilla" unicode="&#x15f;" horiz-adv-x="408" 
d="M35 -165q41 -34 82 -34q25 0 42.5 14t17.5 39q0 21 -18.5 32t-40.5 10.5t-40 -1.5l-9 18l98 79q-57 3 -101 30.5t-44 68.5q0 23 13.5 40.5t35.5 17.5q17 0 27.5 -11t10.5 -29q0 -30 -26 -50q12 -16 38.5 -26.5t57.5 -10.5q47 0 76 25t29 63q0 28 -18.5 45.5t-78.5 45.5
q-23 11 -37 19t-31.5 22t-26 33t-8.5 42q0 61 46.5 98t113.5 37q56 0 99 -24.5t43 -65.5q0 -21 -12.5 -37t-32.5 -16q-17 0 -28 10.5t-11 28.5q0 28 24 46q-9 10 -32.5 18.5t-49.5 8.5q-46 0 -73.5 -23.5t-27.5 -59.5q0 -28 19 -47.5t69 -41.5q58 -26 85 -51.5t27 -69.5
q0 -54 -36 -89t-90 -45l-81 -63v-3q42 -4 65.5 -22.5t23.5 -48.5q0 -40 -31.5 -65t-74.5 -25q-60 0 -105 41z" />
    <glyph glyph-name="Scaron" unicode="&#x160;" horiz-adv-x="553" 
d="M-1 -13l55 224h31q35 -190 203 -190q60 0 102.5 37t42.5 97q0 47 -33.5 77.5t-110.5 66.5q-80 38 -121.5 76t-41.5 100q0 78 59 132.5t150 54.5q109 0 176 -80l40 77h35l-51 -211h-32q-16 102 -61.5 140t-111.5 38q-56 0 -97.5 -35.5t-41.5 -92.5q0 -25 9 -44.5
t30.5 -36.5t39.5 -27.5t54 -28.5q46 -23 70.5 -37t53 -37t40.5 -49.5t12 -60.5q0 -82 -62.5 -137.5t-153.5 -55.5q-129 0 -204 94l-45 -91h-36zM563 925l-151 -179h-34l-61 179h28l63 -108l121 108h34z" />
    <glyph glyph-name="scaron" unicode="&#x161;" horiz-adv-x="408" 
d="M343 128q0 -64 -48.5 -100.5t-115.5 -36.5q-59 0 -108 28.5t-49 71.5q0 23 13.5 40.5t35.5 17.5q17 0 27.5 -11t10.5 -29q0 -30 -26 -50q12 -16 38.5 -26.5t57.5 -10.5q47 0 76 25t29 63q0 28 -18.5 45.5t-78.5 45.5q-23 11 -37 19t-31.5 22t-26 33t-8.5 42q0 61 46.5 98
t113.5 37q56 0 99 -24.5t43 -65.5q0 -21 -12.5 -37t-32.5 -16q-17 0 -28 10.5t-11 28.5q0 28 24 46q-9 10 -32.5 18.5t-49.5 8.5q-46 0 -73.5 -23.5t-27.5 -59.5q0 -28 19 -47.5t69 -41.5q58 -26 85 -51.5t27 -69.5zM448 712l-151 -179h-34l-61 179h28l63 -108l121 108h34z
" />
    <glyph glyph-name="Tcommaaccent" unicode="&#x162;" horiz-adv-x="650" 
d="M122 0l10 40h113l142 568h-118q-47 0 -67 -29t-67 -151h-32l55 220h548l-55 -220h-30q14 112 7 146t-55 34h-116l-142 -568h115l-10 -40h-298zM170 -275l-10 27q76 29 93 83l-2 2q-8 -4 -17 -4q-35 0 -35 37q0 20 13.5 36.5t35.5 16.5q23 0 35 -15.5t12 -41.5
q0 -41 -31.5 -81t-93.5 -60z" />
    <glyph glyph-name="tcommaaccent" unicode="&#x163;" horiz-adv-x="335" 
d="M336 403h-134l-66 -243q-14 -54 -14 -74q0 -22 11.5 -32.5t28.5 -10.5q55 0 107 122l28 -9q-63 -165 -154 -165q-41 0 -63.5 24.5t-22.5 59.5q0 33 17 92l64 236h-91l9 35h91l35 129l67 10l-38 -139h134zM23 -275l-10 27q76 29 93 83l-2 2q-8 -4 -17 -4q-35 0 -35 37
q0 20 13.5 36.5t35.5 16.5q23 0 35 -15.5t12 -41.5q0 -41 -31.5 -81t-93.5 -60z" />
    <glyph glyph-name="Tcaron" unicode="&#x164;" horiz-adv-x="650" 
d="M122 0l10 40h113l142 568h-118q-47 0 -67 -29t-67 -151h-32l55 220h548l-55 -220h-30q14 112 7 146t-55 34h-116l-142 -568h115l-10 -40h-298zM617 925l-151 -179h-34l-61 179h28l63 -108l121 108h34z" />
    <glyph glyph-name="tcaron" unicode="&#x165;" horiz-adv-x="335" 
d="M336 403h-134l-66 -243q-14 -54 -14 -74q0 -22 11.5 -32.5t28.5 -10.5q55 0 107 122l28 -9q-63 -165 -154 -165q-41 0 -63.5 24.5t-22.5 59.5q0 33 17 92l64 236h-91l9 35h91l35 129l67 10l-38 -139h134zM388 647l-55 -108h-26l38 156q13 56 43 56q11 0 19.5 -8t8.5 -22
q0 -20 -28 -74z" />
    <glyph glyph-name="Umacron" unicode="&#x16a;" horiz-adv-x="708" 
d="M315 -16q-98 0 -151 46t-53 117q0 39 15 100l89 361h-96l10 40h266l-10 -40h-100l-83 -333q-21 -87 -21 -127q0 -55 39.5 -85t113.5 -30q90 0 146 56q46 46 69 135l95 384h-98l10 40h232l-10 -40h-88l-100 -404q-22 -86 -78 -142q-78 -78 -197 -78zM359 755l13 53h251
l-13 -53h-251z" />
    <glyph glyph-name="umacron" unicode="&#x16b;" horiz-adv-x="544" 
d="M406 -9q-28 0 -46 20t-18 60q0 42 21 117l-7 3q-98 -200 -198 -200q-36 0 -59 25.5t-23 70.5q0 46 38 150.5t38 138.5q0 28 -22 28q-10 0 -19 -7t-21 -25.5t-19 -31.5t-24 -46l-26 12q21 43 31 61.5t26.5 42.5t33 33t36.5 9q29 0 48.5 -23t18.5 -63q0 -40 -37 -137.5
t-37 -140.5q0 -44 42 -44q53 0 118 100t120 302h67l-74 -277q-18 -66 -18 -96q0 -34 25 -34q37 0 80 118l27 -9q-32 -89 -60.5 -123t-61.5 -34zM205 542l13 53h251l-13 -53h-251z" />
    <glyph glyph-name="Ubreve" unicode="&#x16c;" horiz-adv-x="708" 
d="M315 -16q-98 0 -151 46t-53 117q0 39 15 100l89 361h-96l10 40h266l-10 -40h-100l-83 -333q-21 -87 -21 -127q0 -55 39.5 -85t113.5 -30q90 0 146 56q46 46 69 135l95 384h-98l10 40h232l-10 -40h-88l-100 -404q-22 -86 -78 -142q-78 -78 -197 -78zM482 743
q-54 0 -80.5 39t-13.5 104h24q3 -89 77 -89q70 0 119 89h24q-20 -67 -59 -105t-91 -38z" />
    <glyph glyph-name="ubreve" unicode="&#x16d;" horiz-adv-x="544" 
d="M406 -9q-28 0 -46 20t-18 60q0 42 21 117l-7 3q-98 -200 -198 -200q-36 0 -59 25.5t-23 70.5q0 46 38 150.5t38 138.5q0 28 -22 28q-10 0 -19 -7t-21 -25.5t-19 -31.5t-24 -46l-26 12q21 43 31 61.5t26.5 42.5t33 33t36.5 9q29 0 48.5 -23t18.5 -63q0 -40 -37 -137.5
t-37 -140.5q0 -44 42 -44q53 0 118 100t120 302h67l-74 -277q-18 -66 -18 -96q0 -34 25 -34q37 0 80 118l27 -9q-32 -89 -60.5 -123t-61.5 -34zM328 530q-54 0 -80.5 39t-13.5 104h24q3 -89 77 -89q70 0 119 89h24q-20 -67 -59 -105t-91 -38z" />
    <glyph glyph-name="Uring" unicode="&#x16e;" horiz-adv-x="708" 
d="M315 -16q-98 0 -151 46t-53 117q0 39 15 100l89 361h-96l10 40h266l-10 -40h-100l-83 -333q-21 -87 -21 -127q0 -55 39.5 -85t113.5 -30q90 0 146 56q46 46 69 135l95 384h-98l10 40h232l-10 -40h-88l-100 -404q-22 -86 -78 -142q-78 -78 -197 -78zM608 844
q0 -44 -32 -79t-85 -35q-38 0 -65 22.5t-27 63.5q0 44 32 79t85 35q38 0 65 -22.5t27 -63.5zM442 813q0 -24 13.5 -38.5t37.5 -14.5q31 0 51.5 25.5t20.5 61.5q0 24 -13.5 38.5t-37.5 14.5q-31 0 -51.5 -25.5t-20.5 -61.5z" />
    <glyph glyph-name="uring" unicode="&#x16f;" horiz-adv-x="544" 
d="M406 -9q-28 0 -46 20t-18 60q0 42 21 117l-7 3q-98 -200 -198 -200q-36 0 -59 25.5t-23 70.5q0 46 38 150.5t38 138.5q0 28 -22 28q-10 0 -19 -7t-21 -25.5t-19 -31.5t-24 -46l-26 12q21 43 31 61.5t26.5 42.5t33 33t36.5 9q29 0 48.5 -23t18.5 -63q0 -40 -37 -137.5
t-37 -140.5q0 -44 42 -44q53 0 118 100t120 302h67l-74 -277q-18 -66 -18 -96q0 -34 25 -34q37 0 80 118l27 -9q-32 -89 -60.5 -123t-61.5 -34zM454 631q0 -44 -32 -79t-85 -35q-38 0 -65 22.5t-27 63.5q0 44 32 79t85 35q38 0 65 -22.5t27 -63.5zM288 600q0 -24 13.5 -38.5
t37.5 -14.5q31 0 51.5 25.5t20.5 61.5q0 24 -13.5 38.5t-37.5 14.5q-31 0 -51.5 -25.5t-20.5 -61.5z" />
    <glyph glyph-name="Uhungarumlaut" unicode="&#x170;" horiz-adv-x="708" 
d="M315 -16q-98 0 -151 46t-53 117q0 39 15 100l89 361h-96l10 40h266l-10 -40h-100l-83 -333q-21 -87 -21 -127q0 -55 39.5 -85t113.5 -30q90 0 146 56q46 46 69 135l95 384h-98l10 40h232l-10 -40h-88l-100 -404q-22 -86 -78 -142q-78 -78 -197 -78zM507 821l-90 -85h-32
l78 118q31 48 43 62t28 14q13 0 21.5 -8.5t8.5 -21.5q0 -18 -11.5 -32.5t-45.5 -46.5zM655 821l-90 -85h-32l78 118q31 48 43 62t28 14q13 0 21.5 -8.5t8.5 -21.5q0 -18 -11.5 -32.5t-45.5 -46.5z" />
    <glyph glyph-name="uhungarumlaut" unicode="&#x171;" horiz-adv-x="544" 
d="M406 -9q-28 0 -46 20t-18 60q0 42 21 117l-7 3q-98 -200 -198 -200q-36 0 -59 25.5t-23 70.5q0 46 38 150.5t38 138.5q0 28 -22 28q-10 0 -19 -7t-21 -25.5t-19 -31.5t-24 -46l-26 12q21 43 31 61.5t26.5 42.5t33 33t36.5 9q29 0 48.5 -23t18.5 -63q0 -40 -37 -137.5
t-37 -140.5q0 -44 42 -44q53 0 118 100t120 302h67l-74 -277q-18 -66 -18 -96q0 -34 25 -34q37 0 80 118l27 -9q-32 -89 -60.5 -123t-61.5 -34zM352 608l-90 -85h-32l78 118q31 48 43 62t28 14q13 0 21.5 -8.5t8.5 -21.5q0 -18 -11.5 -32.5t-45.5 -46.5zM500 608l-90 -85
h-32l78 118q31 48 43 62t28 14q13 0 21.5 -8.5t8.5 -21.5q0 -18 -11.5 -32.5t-45.5 -46.5z" />
    <glyph glyph-name="Uogonek" unicode="&#x172;" horiz-adv-x="708" 
d="M344 -201q-38 -32 -85 -32q-33 0 -57 19.5t-24 56.5q0 36 26.5 68.5t85.5 73.5q-86 6 -132.5 50.5t-46.5 111.5q0 39 15 100l89 361h-96l10 40h266l-10 -40h-100l-83 -333q-21 -87 -21 -127q0 -55 39.5 -85t113.5 -30q90 0 146 56q46 46 69 135l95 384h-98l10 40h232
l-10 -40h-88l-100 -404q-22 -86 -78 -142q-72 -72 -180 -77v-1q-58 -45 -79.5 -75.5t-21.5 -58.5q0 -20 12.5 -32.5t33.5 -12.5q25 0 55 17z" />
    <glyph glyph-name="uogonek" unicode="&#x173;" horiz-adv-x="544" 
d="M501 157l27 -9q0 -1 -4.5 -12.5t-6.5 -16.5t-6.5 -17t-8 -19t-9.5 -18.5t-11 -19.5t-12 -17t-14.5 -17t-15.5 -14q-73 -57 -94 -82q-26 -33 -26 -65q0 -20 12 -32.5t34 -12.5q25 0 55 17l12 -23q-38 -32 -85 -32q-33 0 -57 19.5t-24 56.5t28.5 71t95.5 79q-49 11 -49 78
q0 42 21 117l-7 3q-98 -200 -198 -200q-36 0 -59 25.5t-23 70.5q0 46 38 150.5t38 138.5q0 28 -22 28q-10 0 -19 -7t-21 -25.5t-19 -31.5t-24 -46l-26 12q21 43 31 61.5t26.5 42.5t33 33t36.5 9q29 0 48.5 -23t18.5 -63q0 -40 -37 -137.5t-37 -140.5q0 -44 42 -44
q53 0 118 100t120 302h67l-74 -277q-18 -66 -18 -96q0 -34 25 -34q37 0 80 118z" />
    <glyph glyph-name="Wcircumflex" unicode="&#x174;" horiz-adv-x="965" 
d="M581 -4l-35 494l-280 -494h-47l-44 612h-76l10 40h250l-10 -40h-106l32 -511h2l264 466l-3 45h-74l10 40h247l-10 -40h-106l32 -511h2l287 511h-92l10 40h214l-10 -40h-69l-351 -612h-47zM474 737l150 179h34l62 -179h-28l-64 108l-120 -108h-34z" />
    <glyph glyph-name="wcircumflex" unicode="&#x175;" horiz-adv-x="676" 
d="M148 452q31 0 50.5 -22.5t18.5 -63.5q-1 -46 -44 -143.5t-43 -133.5q0 -51 45 -51q33 0 63 31.5t56.5 94.5t46.5 126t44 155h60l-45 -185q-23 -96 -23 -147q0 -75 54 -75q47 0 89.5 55.5t65.5 129.5t22 135q-18 -6 -21 -6q-20 0 -31.5 12t-11.5 32q0 23 13.5 41t35.5 18
q52 0 52 -87q0 -54 -17.5 -119.5t-47 -123.5t-73.5 -97.5t-91 -39.5q-95 0 -95 118q0 22 4 50l-7 1q-62 -169 -157 -169q-45 0 -71 28.5t-26 72.5q0 45 45 147t45 140q0 28 -24 28q-10 0 -19 -7t-21 -25.5t-19 -31.5t-24 -46l-26 12q21 43 31 61.5t26.5 42.5t33 33t36.5 9z
M296 524l150 179h34l62 -179h-28l-64 108l-120 -108h-34z" />
    <glyph glyph-name="Ycircumflex" unicode="&#x176;" horiz-adv-x="648" 
d="M361 321l232 287h-83l10 40h217l-10 -40h-77l-280 -338l-60 -230h103l-10 -40h-272l10 40h99l62 243l-94 325h-82l10 40h247l-10 -40h-90zM328 737l150 179h34l62 -179h-28l-64 108l-120 -108h-34z" />
    <glyph glyph-name="ycircumflex" unicode="&#x177;" horiz-adv-x="507" 
d="M148 452q29 0 48.5 -23t18.5 -63q-1 -42 -34.5 -126.5t-33.5 -118.5q0 -47 45 -47q24 0 52.5 18.5t61 58t64 116.5t53.5 179h62l-77 -326q-36 -150 -97.5 -215t-153.5 -65q-43 0 -81 18.5t-38 59.5q0 22 14 38.5t35 16.5q19 0 29.5 -11t10.5 -28q0 -28 -26 -45
q19 -15 56 -15q76 0 123 64.5t78 218.5l4 20l-6 3q-97 -159 -186 -159q-38 0 -63 24t-25 68q0 39 35 133.5t35 129.5q0 28 -22 28q-10 0 -19 -7t-21 -25.5t-19 -31.5t-24 -46l-26 12q21 43 31 61.5t26.5 42.5t33 33t36.5 9zM192 524l150 179h34l62 -179h-28l-64 108
l-120 -108h-34z" />
    <glyph glyph-name="Ydieresis" unicode="&#x178;" horiz-adv-x="648" 
d="M361 321l232 287h-83l10 40h217l-10 -40h-77l-280 -338l-60 -230h103l-10 -40h-272l10 40h99l62 243l-94 325h-82l10 40h247l-10 -40h-90zM429 815q0 -23 -13.5 -39.5t-32.5 -16.5q-18 0 -28 12.5t-10 31.5q0 23 13.5 39.5t32.5 16.5q18 0 28 -12.5t10 -31.5zM595 815
q0 -23 -13.5 -39.5t-32.5 -16.5q-18 0 -28 12.5t-10 31.5q0 23 13.5 39.5t32.5 16.5q18 0 28 -12.5t10 -31.5z" />
    <glyph glyph-name="Zacute" unicode="&#x179;" horiz-adv-x="570" 
d="M-18 0l6 25l542 583h-270q-32 0 -50 -26.5t-66 -145.5h-30l52 212h469l-7 -25l-539 -583h290q30 0 48.5 28t68.5 151h30l-54 -219h-490zM494 821l-92 -85h-32l80 118q31 46 45 61t30 15q13 0 21.5 -8.5t8.5 -21.5q0 -4 -0.5 -8t-2.5 -8.5t-4 -7.5t-6 -8t-6.5 -8
t-8.5 -8.5t-9.5 -8.5t-11.5 -10.5t-12 -11.5z" />
    <glyph glyph-name="zacute" unicode="&#x17a;" horiz-adv-x="421" 
d="M90 102q35 -7 85 -27t74 -20q35 0 56.5 25t51.5 96l30 -14q-32 -87 -66.5 -129t-88.5 -42q-57 0 -124 67l-30 30l-9 -2q-6 -95 -52 -95q-14 0 -25 9t-11 25q0 20 18 39t55 30q95 129 279 247q-35 7 -85 27t-74 20q-34 0 -55 -24.5t-53 -96.5l-30 14q32 87 66.5 129
t88.5 42q57 0 124 -67l30 -30l9 2q6 95 52 95q14 0 25 -9t11 -25q0 -20 -18 -39t-55 -30q-95 -129 -279 -247zM366 608l-92 -85h-32l80 118q31 46 45 61t30 15q13 0 21.5 -8.5t8.5 -21.5q0 -4 -0.5 -8t-2.5 -8.5t-4 -7.5t-6 -8t-6.5 -8t-8.5 -8.5t-9.5 -8.5t-11.5 -10.5
t-12 -11.5z" />
    <glyph glyph-name="Zdotaccent" unicode="&#x17b;" horiz-adv-x="570" 
d="M-18 0l6 25l542 583h-270q-32 0 -50 -26.5t-66 -145.5h-30l52 212h469l-7 -25l-539 -583h290q30 0 48.5 28t68.5 151h30l-54 -219h-490zM454 795q0 -20 -14 -38t-36 -18q-15 0 -26 10.5t-11 29.5q0 22 13.5 39.5t35.5 17.5q17 0 27.5 -11t10.5 -30z" />
    <glyph glyph-name="zdotaccent" unicode="&#x17c;" horiz-adv-x="421" 
d="M90 102q35 -7 85 -27t74 -20q35 0 56.5 25t51.5 96l30 -14q-32 -87 -66.5 -129t-88.5 -42q-57 0 -124 67l-30 30l-9 -2q-6 -95 -52 -95q-14 0 -25 9t-11 25q0 20 18 39t55 30q95 129 279 247q-35 7 -85 27t-74 20q-34 0 -55 -24.5t-53 -96.5l-30 14q32 87 66.5 129
t88.5 42q57 0 124 -67l30 -30l9 2q6 95 52 95q14 0 25 -9t11 -25q0 -20 -18 -39t-55 -30q-95 -129 -279 -247zM327 582q0 -20 -14 -38t-36 -18q-15 0 -26 10.5t-11 29.5q0 22 13.5 39.5t35.5 17.5q17 0 27.5 -11t10.5 -30z" />
    <glyph glyph-name="Zcaron" unicode="&#x17d;" horiz-adv-x="570" 
d="M-18 0l6 25l542 583h-270q-32 0 -50 -26.5t-66 -145.5h-30l52 212h469l-7 -25l-539 -583h290q30 0 48.5 28t68.5 151h30l-54 -219h-490zM560 925l-151 -179h-34l-61 179h28l63 -108l121 108h34z" />
    <glyph glyph-name="zcaron" unicode="&#x17e;" horiz-adv-x="421" 
d="M90 102q35 -7 85 -27t74 -20q35 0 56.5 25t51.5 96l30 -14q-32 -87 -66.5 -129t-88.5 -42q-57 0 -124 67l-30 30l-9 -2q-6 -95 -52 -95q-14 0 -25 9t-11 25q0 20 18 39t55 30q95 129 279 247q-35 7 -85 27t-74 20q-34 0 -55 -24.5t-53 -96.5l-30 14q32 87 66.5 129
t88.5 42q57 0 124 -67l30 -30l9 2q6 95 52 95q14 0 25 -9t11 -25q0 -20 -18 -39t-55 -30q-95 -129 -279 -247zM433 712l-151 -179h-34l-61 179h28l63 -108l121 108h34z" />
    <glyph glyph-name="Aringacute" unicode="&#x1fa;" horiz-adv-x="672" 
d="M563 755q0 -41 -27.5 -74t-73.5 -39l76 -602h79l-10 -40h-250l10 40h102l-24 198h-239l-119 -198h92l-10 -40h-216l10 40h69l375 607q-53 21 -53 80q0 44 32 79t85 35q38 0 65 -22.5t27 -63.5zM229 276h211l-34 290h-2zM397 724q0 -24 13.5 -38.5t37.5 -14.5
q31 0 51.5 25.5t20.5 61.5q0 24 -13.5 38.5t-37.5 14.5q-31 0 -51.5 -25.5t-20.5 -61.5zM592 970l-92 -85h-32l80 118q31 46 45 61t30 15q13 0 21.5 -8.5t8.5 -21.5q0 -4 -0.5 -8t-2.5 -8.5t-4 -7.5t-6 -8t-6.5 -8t-8.5 -8.5t-9.5 -8.5t-11.5 -10.5t-12 -11.5z" />
    <glyph glyph-name="aringacute" unicode="&#x1fb;" 
d="M447 446l-75 -277q-18 -66 -18 -96q0 -34 25 -34q37 0 80 118l27 -9q-32 -89 -60.5 -123t-61.5 -34q-28 0 -46 20t-18 60q0 16 3 28l-7 3q-73 -111 -148 -111q-51 0 -83 39.5t-32 108.5q0 70 28.5 137.5t74.5 113.5q62 62 127 62q36 0 62.5 -23.5t35.5 -71.5l24 89h62z
M168 38q62 0 119 92t57 174q0 40 -18.5 75.5t-59.5 35.5q-62 0 -115 -90t-53 -188q0 -49 19 -74t51 -25zM444 631q0 -44 -32 -79t-85 -35q-38 0 -65 22.5t-27 63.5q0 44 32 79t85 35q38 0 65 -22.5t27 -63.5zM278 600q0 -24 13.5 -38.5t37.5 -14.5q31 0 51.5 25.5t20.5 61.5
q0 24 -13.5 38.5t-37.5 14.5q-31 0 -51.5 -25.5t-20.5 -61.5zM472 847l-92 -85h-32l80 118q31 46 45 61t30 15q13 0 21.5 -8.5t8.5 -21.5q0 -4 -0.5 -8t-2.5 -8.5t-4 -7.5t-6 -8t-6.5 -8t-8.5 -8.5t-9.5 -8.5t-11.5 -10.5t-12 -11.5z" />
    <glyph glyph-name="AEacute" unicode="&#x1fc;" horiz-adv-x="921" 
d="M283 40h109l51 208h-206l-167 -208h93l-10 -40h-225l10 40h77l458 568h-102l10 40h579l-49 -196h-34q4 41 6.5 63t2 42.5t-2.5 28.5t-9 14t-15.5 7t-23.5 1h-232l-64 -257h112q36 0 50 16t39 83h31l-59 -238h-31q10 71 4.5 87t-40.5 16h-114l-69 -275h223q50 0 73.5 29.5
t68.5 146.5h34l-54 -216h-534zM268 286h185l81 325h-4zM714 821l-92 -85h-32l80 118q31 46 45 61t30 15q13 0 21.5 -8.5t8.5 -21.5q0 -4 -0.5 -8t-2.5 -8.5t-4 -7.5t-6 -8t-6.5 -8t-8.5 -8.5t-9.5 -8.5t-11.5 -10.5t-12 -11.5z" />
    <glyph glyph-name="aeacute" unicode="&#x1fd;" horiz-adv-x="675" 
d="M551 452q49 0 77 -25.5t28 -62.5q0 -143 -302 -179q-1 -9 -1 -27q0 -62 25.5 -95t69.5 -33q79 0 152 102l24 -17q-86 -124 -188 -124q-105 0 -132 98q-72 -96 -175 -96q-55 0 -86.5 28t-31.5 73q0 144 305 157q17 66 17 83q0 38 -28.5 61t-74.5 23q-44 0 -70 -17
q15 -13 15 -39q0 -21 -13 -37.5t-37 -16.5q-18 0 -29.5 12t-11.5 31q0 46 46 72.5t110 26.5q53 0 92 -24t49 -64q77 90 170 90zM297 151q0 37 9 72q-225 -13 -225 -119q0 -32 18 -51.5t53 -19.5q42 0 81 26t65 63q-1 9 -1 29zM537 419q-60 0 -110.5 -63t-67.5 -142
q236 31 236 148q0 27 -16 42t-42 15zM526 608l-92 -85h-32l80 118q31 46 45 61t30 15q13 0 21.5 -8.5t8.5 -21.5q0 -4 -0.5 -8t-2.5 -8.5t-4 -7.5t-6 -8t-6.5 -8t-8.5 -8.5t-9.5 -8.5t-11.5 -10.5t-12 -11.5z" />
    <glyph glyph-name="Oslashacute" unicode="&#x1fe;" horiz-adv-x="685" 
d="M74 256q0 103 43.5 195.5t123.5 151.5t176 59q110 0 180 -78l97 101l29 -25l-103 -107q43 -70 43 -163q0 -103 -43.5 -195.5t-123.5 -151.5t-176 -59q-112 0 -180 77l-97 -100l-29 25l103 107q-43 68 -43 163zM591 400q0 64 -17 110l-396 -408q45 -76 144 -76
q66 0 120 37t85 95t47.5 121t16.5 121zM415 620q-67 0 -120.5 -37.5t-84.5 -95.5t-47.5 -120.5t-16.5 -121.5q0 -66 16 -110l396 409q-46 76 -143 76zM554 821l-92 -85h-32l80 118q31 46 45 61t30 15q13 0 21.5 -8.5t8.5 -21.5q0 -4 -0.5 -8t-2.5 -8.5t-4 -7.5t-6 -8
t-6.5 -8t-8.5 -8.5t-9.5 -8.5t-11.5 -10.5t-12 -11.5z" />
    <glyph glyph-name="oslashacute" unicode="&#x1ff;" horiz-adv-x="459" 
d="M14 -39l-24 23l71 79q-26 44 -26 108q0 112 69.5 196.5t162.5 84.5q68 0 110 -45l68 75l24 -23l-71 -79q26 -46 26 -108q0 -112 -69 -196.5t-162 -84.5q-70 0 -112 44zM360 297q0 24 -4 40l-242 -266q24 -47 77 -47q50 0 90.5 45.5t59.5 107t19 120.5zM99 146
q0 -22 3 -40l243 265q-24 48 -77 48q-50 0 -90.5 -45.5t-59.5 -107t-19 -120.5zM401 608l-92 -85h-32l80 118q31 46 45 61t30 15q13 0 21.5 -8.5t8.5 -21.5q0 -4 -0.5 -8t-2.5 -8.5t-4 -7.5t-6 -8t-6.5 -8t-8.5 -8.5t-9.5 -8.5t-11.5 -10.5t-12 -11.5z" />
    <glyph glyph-name="Scommaaccent" unicode="&#x218;" horiz-adv-x="553" 
d="M-1 -13l55 224h31q35 -190 203 -190q60 0 102.5 37t42.5 97q0 47 -33.5 77.5t-110.5 66.5q-80 38 -121.5 76t-41.5 100q0 78 59 132.5t150 54.5q109 0 176 -80l40 77h35l-51 -211h-32q-16 102 -61.5 140t-111.5 38q-56 0 -97.5 -35.5t-41.5 -92.5q0 -25 9 -44.5
t30.5 -36.5t39.5 -27.5t54 -28.5q46 -23 70.5 -37t53 -37t40.5 -49.5t12 -60.5q0 -82 -62.5 -137.5t-153.5 -55.5q-129 0 -204 94l-45 -91h-36zM116 -275l-10 27q76 29 93 83l-2 2q-8 -4 -17 -4q-35 0 -35 37q0 20 13.5 36.5t35.5 16.5q23 0 35 -15.5t12 -41.5
q0 -41 -31.5 -81t-93.5 -60z" />
    <glyph glyph-name="scommaaccent" unicode="&#x219;" horiz-adv-x="408" 
d="M343 128q0 -64 -48.5 -100.5t-115.5 -36.5q-59 0 -108 28.5t-49 71.5q0 23 13.5 40.5t35.5 17.5q17 0 27.5 -11t10.5 -29q0 -30 -26 -50q12 -16 38.5 -26.5t57.5 -10.5q47 0 76 25t29 63q0 28 -18.5 45.5t-78.5 45.5q-23 11 -37 19t-31.5 22t-26 33t-8.5 42q0 61 46.5 98
t113.5 37q56 0 99 -24.5t43 -65.5q0 -21 -12.5 -37t-32.5 -16q-17 0 -28 10.5t-11 28.5q0 28 24 46q-9 10 -32.5 18.5t-49.5 8.5q-46 0 -73.5 -23.5t-27.5 -59.5q0 -28 19 -47.5t69 -41.5q58 -26 85 -51.5t27 -69.5zM54 -275l-10 27q76 29 93 83l-2 2q-8 -4 -17 -4
q-35 0 -35 37q0 20 13.5 36.5t35.5 16.5q23 0 35 -15.5t12 -41.5q0 -41 -31.5 -81t-93.5 -60z" />
    <glyph glyph-name="schwa" unicode="&#x259;" horiz-adv-x="419" 
d="M20 79q0 141 301 179q2 18 2 27q0 62 -25.5 95t-69.5 33q-79 0 -152 -102l-24 17q86 124 190 124q67 0 107 -42t40 -117q0 -114 -85.5 -208t-178.5 -94q-49 0 -77 25.5t-28 62.5zM139 24q60 0 110 62.5t67 142.5q-235 -33 -235 -148q0 -27 16 -42t42 -15z" />
    <glyph glyph-name="circumflex" unicode="&#x2c6;" horiz-adv-x="299" 
d="M103 524l150 179h34l62 -179h-28l-64 108l-120 -108h-34z" />
    <glyph glyph-name="caron" unicode="&#x2c7;" horiz-adv-x="299" 
d="M396 712l-151 -179h-34l-61 179h28l63 -108l121 108h34z" />
    <glyph glyph-name="breve" unicode="&#x2d8;" horiz-adv-x="336" 
d="M248 530q-54 0 -80.5 39t-13.5 104h24q3 -89 77 -89q70 0 119 89h24q-20 -67 -59 -105t-91 -38z" />
    <glyph glyph-name="dotaccent" unicode="&#x2d9;" horiz-adv-x="192" 
d="M227 582q0 -20 -14 -38t-36 -18q-15 0 -26 10.5t-11 29.5q0 22 13.5 39.5t35.5 17.5q17 0 27.5 -11t10.5 -30z" />
    <glyph glyph-name="ring" unicode="&#x2da;" horiz-adv-x="258" 
d="M332 631q0 -44 -32 -79t-85 -35q-38 0 -65 22.5t-27 63.5q0 44 32 79t85 35q38 0 65 -22.5t27 -63.5zM166 600q0 -24 13.5 -38.5t37.5 -14.5q31 0 51.5 25.5t20.5 61.5q0 24 -13.5 38.5t-37.5 14.5q-31 0 -51.5 -25.5t-20.5 -61.5z" />
    <glyph glyph-name="ogonek" unicode="&#x2db;" horiz-adv-x="269" 
d="M88 -201q-38 -32 -85 -32q-33 0 -57 19.5t-24 56.5t28 70.5t91 75.5l37 25h36l-38 -30q-58 -45 -79.5 -75.5t-21.5 -58.5q0 -20 12.5 -32.5t33.5 -12.5q25 0 55 17z" />
    <glyph glyph-name="tilde" unicode="&#x2dc;" horiz-adv-x="331" 
d="M194 598q-35 0 -60 -69h-30q21 68 43 95t54 27q28 0 66 -33t55 -33q35 0 60 69h30q-21 -68 -43 -95t-54 -27q-28 0 -66 33t-55 33z" />
    <glyph glyph-name="hungarumlaut" unicode="&#x2dd;" horiz-adv-x="288" 
d="M193 608l-90 -85h-32l78 118q31 48 43 62t28 14q13 0 21.5 -8.5t8.5 -21.5q0 -18 -11.5 -32.5t-45.5 -46.5zM341 608l-90 -85h-32l78 118q31 48 43 62t28 14q13 0 21.5 -8.5t8.5 -21.5q0 -18 -11.5 -32.5t-45.5 -46.5z" />
    <glyph glyph-name="commaaccent" unicode="&#x326;" horiz-adv-x="225" 
d="M-67 -275l-10 27q76 29 93 83l-2 2q-8 -4 -17 -4q-35 0 -35 37q0 20 13.5 36.5t35.5 16.5q23 0 35 -15.5t12 -41.5q0 -41 -31.5 -81t-93.5 -60z" />
    <glyph glyph-name="Wgrave" unicode="&#x1e80;" horiz-adv-x="965" 
d="M581 -4l-35 494l-280 -494h-47l-44 612h-76l10 40h250l-10 -40h-106l32 -511h2l264 466l-3 45h-74l10 40h247l-10 -40h-106l32 -511h2l287 511h-92l10 40h214l-10 -40h-69l-351 -612h-47zM585 853l20 -117h-26l-37 79q-4 9 -14.5 30t-14 31.5t-3.5 20.5q0 15 9 24t23 9
q19 0 27.5 -18t15.5 -59z" />
    <glyph glyph-name="wgrave" unicode="&#x1e81;" horiz-adv-x="676" 
d="M148 452q31 0 50.5 -22.5t18.5 -63.5q-1 -46 -44 -143.5t-43 -133.5q0 -51 45 -51q33 0 63 31.5t56.5 94.5t46.5 126t44 155h60l-45 -185q-23 -96 -23 -147q0 -75 54 -75q47 0 89.5 55.5t65.5 129.5t22 135q-18 -6 -21 -6q-20 0 -31.5 12t-11.5 32q0 23 13.5 41t35.5 18
q52 0 52 -87q0 -54 -17.5 -119.5t-47 -123.5t-73.5 -97.5t-91 -39.5q-95 0 -95 118q0 22 4 50l-7 1q-62 -169 -157 -169q-45 0 -71 28.5t-26 72.5q0 45 45 147t45 140q0 28 -24 28q-10 0 -19 -7t-21 -25.5t-19 -31.5t-24 -46l-26 12q21 43 31 61.5t26.5 42.5t33 33t36.5 9z
M407 640l20 -117h-26l-37 79q-4 9 -14.5 30t-14 31.5t-3.5 20.5q0 15 9 24t23 9q19 0 27.5 -18t15.5 -59z" />
    <glyph glyph-name="Wacute" unicode="&#x1e82;" horiz-adv-x="965" 
d="M581 -4l-35 494l-280 -494h-47l-44 612h-76l10 40h250l-10 -40h-106l32 -511h2l264 466l-3 45h-74l10 40h247l-10 -40h-106l32 -511h2l287 511h-92l10 40h214l-10 -40h-69l-351 -612h-47zM704 821l-92 -85h-32l80 118q31 46 45 61t30 15q13 0 21.5 -8.5t8.5 -21.5
q0 -4 -0.5 -8t-2.5 -8.5t-4 -7.5t-6 -8t-6.5 -8t-8.5 -8.5t-9.5 -8.5t-11.5 -10.5t-12 -11.5z" />
    <glyph glyph-name="wacute" unicode="&#x1e83;" horiz-adv-x="676" 
d="M148 452q31 0 50.5 -22.5t18.5 -63.5q-1 -46 -44 -143.5t-43 -133.5q0 -51 45 -51q33 0 63 31.5t56.5 94.5t46.5 126t44 155h60l-45 -185q-23 -96 -23 -147q0 -75 54 -75q47 0 89.5 55.5t65.5 129.5t22 135q-18 -6 -21 -6q-20 0 -31.5 12t-11.5 32q0 23 13.5 41t35.5 18
q52 0 52 -87q0 -54 -17.5 -119.5t-47 -123.5t-73.5 -97.5t-91 -39.5q-95 0 -95 118q0 22 4 50l-7 1q-62 -169 -157 -169q-45 0 -71 28.5t-26 72.5q0 45 45 147t45 140q0 28 -24 28q-10 0 -19 -7t-21 -25.5t-19 -31.5t-24 -46l-26 12q21 43 31 61.5t26.5 42.5t33 33t36.5 9z
M526 608l-92 -85h-32l80 118q31 46 45 61t30 15q13 0 21.5 -8.5t8.5 -21.5q0 -4 -0.5 -8t-2.5 -8.5t-4 -7.5t-6 -8t-6.5 -8t-8.5 -8.5t-9.5 -8.5t-11.5 -10.5t-12 -11.5z" />
    <glyph glyph-name="Wdieresis" unicode="&#x1e84;" horiz-adv-x="965" 
d="M581 -4l-35 494l-280 -494h-47l-44 612h-76l10 40h250l-10 -40h-106l32 -511h2l264 466l-3 45h-74l10 40h247l-10 -40h-106l32 -511h2l287 511h-92l10 40h214l-10 -40h-69l-351 -612h-47zM574 815q0 -23 -13.5 -39.5t-32.5 -16.5q-18 0 -28 12.5t-10 31.5q0 23 13.5 39.5
t32.5 16.5q18 0 28 -12.5t10 -31.5zM740 815q0 -23 -13.5 -39.5t-32.5 -16.5q-18 0 -28 12.5t-10 31.5q0 23 13.5 39.5t32.5 16.5q18 0 28 -12.5t10 -31.5z" />
    <glyph glyph-name="wdieresis" unicode="&#x1e85;" horiz-adv-x="676" 
d="M148 452q31 0 50.5 -22.5t18.5 -63.5q-1 -46 -44 -143.5t-43 -133.5q0 -51 45 -51q33 0 63 31.5t56.5 94.5t46.5 126t44 155h60l-45 -185q-23 -96 -23 -147q0 -75 54 -75q47 0 89.5 55.5t65.5 129.5t22 135q-18 -6 -21 -6q-20 0 -31.5 12t-11.5 32q0 23 13.5 41t35.5 18
q52 0 52 -87q0 -54 -17.5 -119.5t-47 -123.5t-73.5 -97.5t-91 -39.5q-95 0 -95 118q0 22 4 50l-7 1q-62 -169 -157 -169q-45 0 -71 28.5t-26 72.5q0 45 45 147t45 140q0 28 -24 28q-10 0 -19 -7t-21 -25.5t-19 -31.5t-24 -46l-26 12q21 43 31 61.5t26.5 42.5t33 33t36.5 9z
M562 602q0 -23 -13.5 -39.5t-32.5 -16.5q-18 0 -28 12.5t-10 31.5q0 23 13.5 39.5t32.5 16.5q18 0 28 -12.5t10 -31.5zM396 602q0 -23 -13.5 -39.5t-32.5 -16.5q-18 0 -28 12.5t-10 31.5q0 23 13.5 39.5t32.5 16.5q18 0 28 -12.5t10 -31.5z" />
    <glyph glyph-name="Ygrave" unicode="&#x1ef2;" horiz-adv-x="648" 
d="M361 321l232 287h-83l10 40h217l-10 -40h-77l-280 -338l-60 -230h103l-10 -40h-272l10 40h99l62 243l-94 325h-82l10 40h247l-10 -40h-90zM440 853l20 -117h-26l-37 79q-4 9 -14.5 30t-14 31.5t-3.5 20.5q0 15 9 24t23 9q19 0 27.5 -18t15.5 -59z" />
    <glyph glyph-name="ygrave" unicode="&#x1ef3;" horiz-adv-x="507" 
d="M148 452q29 0 48.5 -23t18.5 -63q-1 -42 -34.5 -126.5t-33.5 -118.5q0 -47 45 -47q24 0 52.5 18.5t61 58t64 116.5t53.5 179h62l-77 -326q-36 -150 -97.5 -215t-153.5 -65q-43 0 -81 18.5t-38 59.5q0 22 14 38.5t35 16.5q19 0 29.5 -11t10.5 -28q0 -28 -26 -45
q19 -15 56 -15q76 0 123 64.5t78 218.5l4 20l-6 3q-97 -159 -186 -159q-38 0 -63 24t-25 68q0 39 35 133.5t35 129.5q0 28 -22 28q-10 0 -19 -7t-21 -25.5t-19 -31.5t-24 -46l-26 12q21 43 31 61.5t26.5 42.5t33 33t36.5 9zM304 640l20 -117h-26l-37 79q-4 9 -14.5 30
t-14 31.5t-3.5 20.5q0 15 9 24t23 9q19 0 27.5 -18t15.5 -59z" />
    <glyph glyph-name="enspace" unicode="&#x2002;" horiz-adv-x="500" 
 />
    <glyph glyph-name="emspace" unicode="&#x2003;" horiz-adv-x="1000" 
 />
    <glyph glyph-name="threeperemspace" unicode="&#x2004;" horiz-adv-x="333" 
 />
    <glyph glyph-name="fourperemspace" unicode="&#x2005;" horiz-adv-x="250" 
 />
    <glyph glyph-name="thinspace" unicode="&#x2009;" horiz-adv-x="133" 
 />
    <glyph glyph-name="hairspace" unicode="&#x200a;" horiz-adv-x="75" 
 />
    <glyph glyph-name="endash" unicode="&#x2013;" horiz-adv-x="540" 
d="M52 211l12 47h430l-12 -47h-430z" />
    <glyph glyph-name="emdash" unicode="&#x2014;" horiz-adv-x="790" 
d="M52 211l12 47h680l-12 -47h-680z" />
    <glyph glyph-name="quoteleft" unicode="&#x2018;" horiz-adv-x="200" 
d="M273 662l9 -28q-97 -37 -116 -95l2 -2q8 4 17 4q16 0 26 -10.5t10 -29.5q0 -21 -14 -38t-37 -17t-36 16.5t-13 42.5q0 44 36.5 87t115.5 70z" />
    <glyph glyph-name="quoteright" unicode="&#x2019;" horiz-adv-x="200" 
d="M93 446l-9 28q97 37 116 95l-2 2q-8 -4 -17 -4q-16 0 -26 10.5t-10 29.5q0 21 14 38t37 17t36 -16.5t13 -42.5q0 -44 -36.5 -87t-115.5 -70z" />
    <glyph glyph-name="quotesinglbase" unicode="&#x201a;" horiz-adv-x="200" 
d="M-53 -130l-9 28q97 37 116 95l-2 2q-8 -4 -17 -4q-16 0 -26 10.5t-10 29.5q0 21 14 38t37 17t36 -16.5t13 -42.5q0 -44 -36.5 -87t-115.5 -70z" />
    <glyph glyph-name="quotedblleft" unicode="&#x201c;" horiz-adv-x="364" 
d="M273 662l9 -28q-97 -37 -116 -95l2 -2q8 4 17 4q16 0 26 -10.5t10 -29.5q0 -21 -14 -38t-37 -17t-36 16.5t-13 42.5q0 44 36.5 87t115.5 70zM437 662l9 -28q-97 -37 -116 -95l2 -2q8 4 17 4q16 0 26 -10.5t10 -29.5q0 -21 -14 -38t-37 -17t-36 16.5t-13 42.5
q0 44 36.5 87t115.5 70z" />
    <glyph glyph-name="quotedblright" unicode="&#x201d;" horiz-adv-x="364" 
d="M93 446l-9 28q97 37 116 95l-2 2q-8 -4 -17 -4q-16 0 -26 10.5t-10 29.5q0 21 14 38t37 17t36 -16.5t13 -42.5q0 -44 -36.5 -87t-115.5 -70zM257 446l-9 28q97 37 116 95l-2 2q-8 -4 -17 -4q-16 0 -26 10.5t-10 29.5q0 21 14 38t37 17t36 -16.5t13 -42.5q0 -44 -36.5 -87
t-115.5 -70z" />
    <glyph glyph-name="quotedblbase" unicode="&#x201e;" horiz-adv-x="364" 
d="M-53 -130l-9 28q97 37 116 95l-2 2q-8 -4 -17 -4q-16 0 -26 10.5t-10 29.5q0 21 14 38t37 17t36 -16.5t13 -42.5q0 -44 -36.5 -87t-115.5 -70zM111 -130l-9 28q97 37 116 95l-2 2q-8 -4 -17 -4q-16 0 -26 10.5t-10 29.5q0 21 14 38t37 17t36 -16.5t13 -42.5
q0 -44 -36.5 -87t-115.5 -70z" />
    <glyph glyph-name="dagger" unicode="&#x2020;" horiz-adv-x="518" 
d="M401 630l-72 -184q49 -27 95 -27q8 0 12 1q-10 26 3 50t39 24q18 0 29 -11.5t11 -31.5q0 -23 -19 -43.5t-61 -20.5q-57 0 -116 31l-56 -287l-36 -146q-5 -22 -16 -42.5t-20.5 -31t-13.5 -9.5t-8 15.5t-4.5 36t5.5 45.5l36 146l88 285q-49 27 -95 27q-8 0 -12 -1
q10 -26 -3 -50t-39 -24q-18 0 -29 11.5t-11 31.5q0 23 19 43.5t61 20.5q57 0 116 -31l21 191l13 18q1 2 5 7t6 7t5.5 6t5.5 5.5t5.5 3t6.5 1.5q10 0 15.5 -8.5t7 -14.5t3.5 -22z" />
    <glyph glyph-name="daggerdbl" unicode="&#x2021;" horiz-adv-x="518" 
d="M261 169q49 -27 95 -27q8 0 12 1q-10 26 3 50t39 24q18 0 29 -11.5t11 -31.5q0 -23 -19 -43.5t-61 -20.5q-57 0 -116 31l-21 -191l-13 -18q-1 -2 -5 -7t-6 -7t-5.5 -6t-5.5 -5.5t-5.5 -3t-6.5 -1.5q-10 0 -15.5 8.5t-7 14.5t-3.5 22l-3 22l72 184q-49 27 -95 27
q-8 0 -12 -1q10 -26 -3 -50t-39 -24q-18 0 -29 11.5t-11 31.5q0 23 19 43.5t61 20.5q57 0 116 -31l16 127l45 122q-49 27 -95 27q-8 0 -12 -1q10 -26 -3 -50t-39 -24q-18 0 -29 11.5t-11 31.5q0 23 19 43.5t61 20.5q57 0 116 -31l21 191l13 18q1 2 5 7t6 7t5.5 6t5.5 5.5
t5.5 3t6.5 1.5q10 0 15.5 -8.5t7 -14.5t3.5 -22l3 -22l-72 -184q49 -27 95 -27q8 0 12 1q-10 26 3 50t39 24q18 0 29 -11.5t11 -31.5q0 -23 -19 -43.5t-61 -20.5q-57 0 -116 31l-16 -127z" />
    <glyph glyph-name="bullet" unicode="&#x2022;" horiz-adv-x="436" 
d="M232 205q-42 0 -68.5 27t-26.5 70q0 48 33.5 83.5t79.5 35.5q42 0 68.5 -27t26.5 -70q0 -48 -33.5 -83.5t-79.5 -35.5z" />
    <glyph glyph-name="ellipsis" unicode="&#x2026;" horiz-adv-x="600" 
d="M51 -14q-19 0 -31.5 14t-12.5 34q0 23 14.5 39.5t35.5 16.5q19 0 31.5 -14t12.5 -34q0 -23 -14.5 -39.5t-35.5 -16.5zM251 -14q-19 0 -31.5 14t-12.5 34q0 23 14.5 39.5t35.5 16.5q19 0 31.5 -14t12.5 -34q0 -23 -14.5 -39.5t-35.5 -16.5zM451 -14q-19 0 -31.5 14
t-12.5 34q0 23 14.5 39.5t35.5 16.5q19 0 31.5 -14t12.5 -34q0 -23 -14.5 -39.5t-35.5 -16.5z" />
    <glyph glyph-name="guilsinglleft" unicode="&#x2039;" horiz-adv-x="297" 
d="M173 33l-109 156q-18 25 -18 35q0 14 38 45l184 146l23 -23l-178 -172l90 -169z" />
    <glyph glyph-name="guilsinglright" unicode="&#x203a;" horiz-adv-x="297" 
d="M124 415l109 -156q18 -25 18 -35q0 -14 -38 -45l-184 -146l-23 23l178 172l-90 169z" />
    <glyph glyph-name="Euro" unicode="&#x20ac;" horiz-adv-x="638" 
d="M433 351h-212q-11 -48 -14 -88h205l-9 -39h-196q3 -88 44 -138t113 -50q56 0 102.5 38t73.5 106l37 -11q-29 -81 -89.5 -133t-139.5 -52q-100 0 -154 67t-55 173h-94l9 39h86q4 44 15 88h-80l9 39h83q39 109 120.5 178.5t180.5 69.5q76 0 125.5 -41t49.5 -95
q0 -33 -17 -55t-44 -22q-22 0 -35 13.5t-13 33.5q0 44 47 66q-34 58 -113 58q-83 0 -143.5 -58t-91.5 -148h209z" />
    <glyph glyph-name="published" unicode="&#x2117;" horiz-adv-x="787" 
d="M431 -32q-150 0 -253.5 104.5t-103.5 257.5q0 152 103.5 256t253.5 104t254 -104t104 -256q0 -153 -104 -257.5t-254 -104.5zM431 -1q136 0 229 95.5t93 235.5q0 138 -93 233.5t-229 95.5q-134 0 -227.5 -95.5t-93.5 -233.5q0 -139 93.5 -235t227.5 -96zM288 153v26h61
v308h-61v26h170q137 0 137 -102q0 -48 -36 -79t-101 -31h-63v-122h67v-26h-174zM395 327h56q47 0 71 23.5t24 61.5q0 75 -93 75h-58v-160z" />
    <glyph glyph-name="servicemark" unicode="&#x2120;" horiz-adv-x="767" 
d="M86 349l26 106h22q16 -84 90 -84q28 0 46.5 15.5t18.5 39.5q0 21 -14.5 33.5t-51.5 28.5q-38 17 -58.5 34.5t-20.5 47.5q0 36 29.5 60.5t73.5 24.5q49 0 80 -33l15 32h24l-24 -100h-21q-7 46 -27 62t-49 16q-25 0 -43.5 -14.5t-18.5 -37.5q0 -14 9 -25t19.5 -17t32.5 -16
q44 -20 64 -38t20 -48q0 -38 -30.5 -63t-76.5 -25q-58 0 -93 41l-17 -40h-25zM358 355l6 25h46l61 244h-46l6 24h114l23 -238h1l150 238h112l-6 -24h-45l-61 -244h45l-6 -25h-126l6 25h37l59 236h-5l-167 -261h-28l-30 261h-6l-59 -236h40l-6 -25h-115z" />
    <glyph glyph-name="trademark" unicode="&#x2122;" horiz-adv-x="804" 
d="M395 355l6 24h46l61 245h-46l6 24h114l23 -238h1l150 238h112l-6 -24h-45l-61 -245h45l-6 -24h-126l6 24h37l59 237h-5l-167 -261h-28l-30 261h-6l-59 -237h40l-6 -24h-115zM135 355l6 24h58l62 245h-50q-23 0 -31.5 -12.5t-30.5 -68.5h-22l27 105h270l-27 -105h-20
q6 51 2.5 66t-26.5 15h-48l-62 -245h58l-6 -24h-160z" />
    <glyph glyph-name="minus" unicode="&#x2212;" horiz-adv-x="524" 
d="M454 254h-368l11 42h368z" />
    <glyph glyph-name="registered.alt" horiz-adv-x="787" 
d="M431 -32q-150 0 -253.5 104.5t-103.5 257.5q0 152 103.5 256t253.5 104t254 -104t104 -256q0 -153 -104 -257.5t-254 -104.5zM431 -1q136 0 229 95.5t93 235.5q0 138 -93 233.5t-229 95.5q-134 0 -227.5 -95.5t-93.5 -233.5q0 -139 93.5 -235t227.5 -96zM373 315v-136h62
v-26h-169v26h61v307h-61v27h185q60 0 92.5 -25.5t32.5 -68.5q0 -31 -22 -56t-66 -33v-1q37 -10 53 -28t18 -52l4 -46q3 -25 21 -25q17 0 27 24l18 -7q-17 -49 -61 -49q-26 0 -39.5 14.5t-14.5 50.5l-2 44q-2 33 -17 46.5t-55 13.5h-67zM373 340h66q87 0 87 80q0 66 -80 66
h-73v-146z" />
    <glyph glyph-name="zero.osf" horiz-adv-x="544" 
d="M55 211q0 135 83 240t192 105q85 0 134 -60t49 -167q0 -135 -83 -240t-192 -105q-85 0 -134 60t-49 167zM444 352q0 86 -32 125t-85 39q-48 0 -88.5 -33.5t-64.5 -85t-37 -106.5t-13 -103q0 -86 32 -125t85 -39q48 0 88.5 33.5t64.5 85t37 106.5t13 103z" />
    <glyph glyph-name="one.osf" horiz-adv-x="413" 
d="M-11 0l10 40h143l101 406q-38 -17 -97 -17q-30 0 -51 6l9 33q130 0 194 81h38l-127 -509h133l-10 -40h-343z" />
    <glyph glyph-name="two.osf" horiz-adv-x="515" 
d="M173 466q36 -18 36 -52q0 -21 -14 -37t-37 -16q-22 0 -36.5 17t-14.5 43q0 52 57.5 93.5t138.5 41.5t130.5 -41.5t49.5 -105.5q0 -143 -211 -194q-108 -26 -150 -60t-53 -76l2 -1q39 22 76 22q41 0 95 -26.5t78 -26.5q35 0 61.5 31.5t51.5 101.5l29 -5
q-39 -191 -152 -191q-39 0 -94.5 40t-89.5 40q-22 0 -37 -6q9 -11 9 -28q0 -21 -10 -33.5t-27 -12.5q-20 0 -32.5 17t-12.5 42q0 130 223 205q93 32 134.5 71t41.5 95q0 47 -33.5 75t-85.5 28q-83 0 -123 -51z" />
    <glyph glyph-name="three.osf" horiz-adv-x="494" 
d="M66 -6q8 -12 38 -25.5t75 -13.5q71 0 115.5 41t44.5 104q0 50 -36.5 81t-112.5 31h-12l10 42h21q102 0 157 55q39 39 39 102q0 50 -29 78t-84 28q-41 0 -72 -14t-44 -33q31 -20 31 -51q0 -20 -14 -35t-34 -15q-23 0 -37 15t-14 39q0 51 57 92t136 41q84 0 129.5 -41
t45.5 -106q0 -74 -53.5 -118t-132.5 -61v-2q57 -13 88.5 -49.5t31.5 -83.5q0 -75 -62 -128t-158 -53q-74 0 -132.5 32t-58.5 87q0 30 17.5 49.5t41.5 19.5q21 0 34 -13.5t13 -34.5q0 -37 -39 -60z" />
    <glyph glyph-name="four.osf" horiz-adv-x="529" 
d="M293 153l79 318h-2l-302 -318h225zM312 -36h86l-10 -39h-235l10 39h83l36 147h-285l11 42l381 398h69l-99 -398h129l-11 -42h-129z" />
    <glyph glyph-name="five.osf" horiz-adv-x="480" 
d="M199 476l-66 -209q59 33 116 33q71 0 114 -40.5t43 -107.5q0 -89 -66.5 -163.5t-170.5 -74.5q-74 0 -123 33.5t-49 86.5q0 31 17 52t43 21q23 0 35.5 -13.5t12.5 -33.5q0 -44 -49 -62q7 -15 36 -30t69 -15q82 0 128.5 63.5t46.5 142.5q0 53 -29.5 77.5t-75.5 24.5
q-65 0 -120 -47l-33 15l98 314l13 8q75 -36 149 -36t142 34l10 -19q-72 -81 -164 -81q-64 0 -127 27z" />
    <glyph glyph-name="six.osf" horiz-adv-x="504" 
d="M374 626q54 0 95.5 -26.5t41.5 -77.5q0 -28 -16 -48t-41 -20q-22 0 -35 13.5t-13 33.5q0 41 42 61q-25 25 -71 25q-81 0 -144 -73t-95 -200q59 66 148 66q73 0 118 -46t45 -120q0 -90 -61.5 -160t-150.5 -70q-85 0 -133 59.5t-48 156.5q0 105 42 203t116 160.5t160 62.5z
M235 24q67 0 105.5 57.5t38.5 133.5q0 57 -30.5 90.5t-81.5 33.5q-62 0 -105 -49t-43 -131q0 -59 30 -97t86 -38z" />
    <glyph glyph-name="seven.osf" horiz-adv-x="494" 
d="M174 -25q-9 -32 -18 -44t-25 -13t-27.5 10.5t-11.5 29.5q0 61 76.5 183t206.5 226q83 67 107 100l-2 2q-42 -31 -82 -31q-33 0 -84 22t-77 22q-37 0 -67 -36.5t-59 -128.5h-38l56 226h40l-18 -83h2q29 46 53 67t60 21q24 0 46.5 -12t36.5 -26.5t33.5 -26.5t39.5 -12
q26 0 48 16q-7 14 -7 28q0 18 12 30.5t30 12.5q19 0 29.5 -12t10.5 -27q0 -31 -26.5 -62.5t-100.5 -94.5q-94 -80 -150 -167.5t-94 -219.5z" />
    <glyph glyph-name="eight.osf" horiz-adv-x="507" 
d="M497 478q0 -59 -38.5 -102t-106.5 -66q103 -58 103 -141q0 -80 -64.5 -132.5t-155.5 -52.5q-90 0 -143.5 46t-53.5 114q0 56 39 103.5t125 71.5q-82 55 -82 133q0 71 58 122.5t142 51.5q79 0 128 -42t49 -106zM387 156q0 40 -34 71.5t-114 70.5q-69 -16 -105 -57t-36 -99
q0 -51 38 -85t102 -34t106.5 37t42.5 96zM188 466q0 -76 125 -137q63 21 95 60t32 88q0 48 -32 79t-88 31q-57 0 -94.5 -35t-37.5 -86z" />
    <glyph glyph-name="nine.osf" horiz-adv-x="504" 
d="M294 516q-68 0 -107 -59t-39 -139q0 -57 30.5 -90.5t81.5 -33.5q62 0 105.5 50t44.5 137q1 58 -29.5 96.5t-86.5 38.5zM389 219q-59 -66 -148 -66q-73 0 -118 46.5t-45 120.5q0 94 62 165t152 71q85 0 133 -59.5t48 -156.5q0 -105 -42 -203t-116 -160.5t-160 -62.5
q-58 0 -98 30.5t-40 79.5q0 30 16 50.5t41 20.5q22 0 35 -13.5t13 -33.5q0 -41 -44 -62q23 -33 74 -33q81 0 144 72t93 194z" />
    <glyph glyph-name="dollar.osf" horiz-adv-x="501" 
d="M340 619l38 -7l-17 -68q58 -13 96.5 -48t38.5 -76q0 -29 -15.5 -49t-38.5 -20q-20 0 -31.5 12.5t-11.5 28.5q0 21 13 36t31 20q-27 44 -91 60l-50 -205q74 -30 105.5 -63.5t31.5 -78.5q0 -65 -57 -113t-144 -48h-12l-21 -82l-38 7l20 80q-66 12 -112.5 49t-46.5 83
q0 29 15 49.5t43 20.5q19 0 32 -13t13 -32q0 -44 -43 -61q28 -44 108 -60l52 210q-74 31 -106.5 61.5t-32.5 74.5q0 63 55 113t144 50q10 0 15 -1zM377 140q0 53 -92 95l-50 -199h10q55 0 93.5 29.5t38.5 74.5zM171 410q0 -52 94 -92l49 196h-8q-63 0 -99 -32.5t-36 -71.5z
" />
    <glyph glyph-name="sterling.osf" horiz-adv-x="560" 
d="M426 243h-169v-8q0 -51 -42 -117q14 -5 63 -30q74 -39 102 -39q29 0 48.5 23.5t39.5 75.5l29 -8q-22 -82 -53 -118.5t-78 -36.5q-24 0 -50 10t-42 20t-43 30q-34 24 -40 27q-48 -88 -111 -88q-30 0 -50.5 19t-20.5 51q0 35 29 60.5t77 25.5q33 0 68 -10q13 39 13 76
q0 13 -4 37h-135l10 41h113q-13 39 -13 77q0 89 65.5 142t153.5 53q80 0 123.5 -37.5t43.5 -85.5q0 -32 -17.5 -54t-44.5 -22q-21 0 -34.5 13.5t-13.5 34.5t15.5 37t38.5 21q-24 54 -111 54q-67 0 -108.5 -37t-41.5 -99q0 -29 15 -97h185zM87 21q37 0 75 67q-30 14 -53 14
q-29 0 -44 -14t-15 -33q0 -15 10.5 -24.5t26.5 -9.5z" />
    <glyph glyph-name="Euro.osf" horiz-adv-x="650" 
d="M420 304h-212q-12 -43 -13 -76h206l-9 -39h-196q6 -74 47.5 -113.5t111.5 -39.5q62 0 108 36t73 101l37 -11q-29 -78 -89.5 -128t-141.5 -50q-97 0 -153 58.5t-62 146.5h-95l9 39h87q1 38 12 76h-80l9 39h84q39 94 119.5 153.5t175.5 59.5q79 0 130 -39.5t51 -92.5
q0 -33 -17 -55t-44 -22q-22 0 -35 13.5t-13 33.5q0 42 47 64q-18 29 -53 42.5t-65 13.5q-80 0 -138.5 -48t-89.5 -123h208z" />
    <glyph glyph-name="yen.osf" horiz-adv-x="647" 
d="M125 299h128l-71 203h-77l10 38h242l-10 -38h-87l84 -242l211 242h-84l10 38h209l-10 -38h-70l-180 -203h121l-9 -39h-146l-47 -53l-6 -21h183l-9 -39h-183l-26 -106h115l-10 -41h-296l10 41h116l26 106h-178l9 39h179l6 24l-18 50h-151z" />
    <glyph glyph-name="hfjslug" horiz-adv-x="694" 
d="M644 -200h-208l-8 14h-163l-8 -14h-207v303q14 0 23 9.5t9 22.5t-9.5 22.5t-22.5 9.5v554h100l30 79h334l29 -79h101v-921zM400 563v-172h15v78h38v14h-38v66h43v14h-58zM184 563v-172h15v79h47v-79h15v172h-15v-79h-47v79h-15zM460 394q8 -4 21 -4q31 0 31 36v137h-16
v-137q0 -22 -16 -22q-10 0 -20 6v-16zM349 438l-16 31q23 21 23 42q0 12 -7 21.5t-20 9.5q-12 0 -20 -9.5t-8 -21.5q0 -13 14 -39q-23 -18 -23 -45q0 -17 9 -28t22 -11q17 0 27 24h1l12 -24l11 8l-16 30q10 23 13 39l-13 3q-2 -9 -9 -30zM523 323v-46h8v13l7 7l16 -20h9
l-19 26l18 20h-10l-21 -24v24h-8zM488 292l10 -15h9l-12 17q10 3 10 15q0 5 -4.5 9.5t-11.5 4.5h-21v-46h8v15h12zM426 276q11 0 17.5 7t6.5 17q0 9 -7 16.5t-17 7.5t-16.5 -7.5t-6.5 -16.5q0 -10 6.5 -17t16.5 -7zM370 301l-13 22h-9l18 -29v-17h8v17l18 29h-9zM193 323
v-46h33v7h-25v13h22v7h-22v12h25v7h-33zM132 323v-46h8v32l25 -32h7v46h-8v-32l-25 32h-7zM241 323l15 -47h8l10 34h1l11 -34h8l14 47h-8l-10 -35h-1l-10 35h-8l-11 -35h-1l-10 35h-8zM327 479q-12 22 -12 32q0 19 14 19q13 0 13 -19q0 -15 -15 -32zM342 423q-6 -21 -18 -21
q-17 0 -17 27q0 18 15 33zM488 299h-12v17h11q10 0 10 -8q0 -9 -9 -9zM426 283q-15 0 -15 17q0 6 4.5 11.5t10.5 5.5q7 0 11.5 -5.5t4.5 -11.5q0 -7 -4.5 -12t-11.5 -5z" />
    <glyph glyph-name="i.dot" horiz-adv-x="306" 
d="M279 597q0 -21 -14.5 -39.5t-37.5 -18.5q-16 0 -27.5 11t-11.5 31q0 22 14 40.5t37 18.5q18 0 29 -11.5t11 -31.5zM227 364q0 -47 -44 -156.5t-44 -140.5q0 -28 24 -28q38 0 81 118l27 -9q-32 -88 -61.5 -122.5t-62.5 -34.5t-52 22t-18 61q0 42 45 151t45 154
q0 31 -22 31q-21 0 -43.5 -30t-52.5 -87l-26 12q36 74 66.5 110.5t68.5 36.5q32 0 50.5 -23.5t18.5 -64.5z" />
    <glyph glyph-name="caron.alt" horiz-adv-x="238" 
d="M236 647l-55 -108h-26l38 156q13 56 43 56q11 0 19.5 -8t8.5 -22q0 -20 -28 -74z" />
    </font>
</defs>
</svg>
