<?xml version="1.0" standalone="no"?>
<!DOCTYPE svg PUBLIC "-//W3C//DTD SVG 1.1//EN" "http://www.w3.org/Graphics/SVG/1.1/DTD/svg11.dtd" >
<svg>
<metadata>
Created by FontForge 20120731 at Thu Feb 28 12:32:06 2013
 By Jenkins
</metadata>
<defs>
<font id="VoyagerGrotesqueBold" horiz-adv-x="670" >
  <font-face 
    font-family="Voyager Grotesque Bold"
    font-weight="700"
    font-stretch="normal"
    units-per-em="1000"
    panose-1="0 0 0 0 0 0 0 0 0 0"
    ascent="750"
    descent="-250"
    cap-height="731"
    bbox="-0.5 -80 849 858"
    underline-thickness="50"
    underline-position="-50"
    unicode-range="U+0020-201D"
  />
<missing-glyph horiz-adv-x="500" 
 />
    <glyph glyph-name=".notdef" horiz-adv-x="500" 
 />
    <glyph glyph-name=".null" horiz-adv-x="0" 
 />
    <glyph glyph-name="nonmarkingreturn" horiz-adv-x="500" 
 />
    <glyph glyph-name="space" unicode=" " horiz-adv-x="273" 
 />
    <glyph glyph-name="space" unicode="&#xa0;" horiz-adv-x="273" 
 />
    <glyph glyph-name="E" unicode="E" horiz-adv-x="646" 
d="M79 718q7 13 23 13h454v-141h-373q-6 0 -12.5 -4t-9.5 -9l-12 -21q-4 -5 -6 -13.5t-2 -14.5v-54q0 -6 4.5 -10.5t10.5 -4.5h366q6 0 8 -3.5t-1 -8.5l-76 -116q-7 -13 -23 -13h-274q-6 0 -10.5 -4.5t-4.5 -10.5v-147q0 -6 4.5 -10.5t10.5 -4.5h400v-141h-541
q-6 0 -10.5 4.5t-4.5 10.5v551q0 14 7 28l72 124v0z" />
    <glyph glyph-name="F" unicode="F" horiz-adv-x="589" 
d="M79 718q3 5 9.5 9t12.5 4h418v-141h-336q-7 0 -13.5 -3.5t-9.5 -9.5l-12 -21q-7 -12 -7 -28v-46q0 -15 15 -15h248q6 0 12.5 -4t9.5 -10l60 -114q3 -5 0.5 -9t-8.5 -4h-322q-7 0 -11 -4.5t-4 -10.5v-311h-141v566q0 6 2 14.5t5 13.5l72 124v0z" />
    <glyph glyph-name="G" unicode="G" horiz-adv-x="678" 
d="M573 458q7 0 11 -4.5t4 -10.5v-278q0 -6 -2 -14.5t-5 -13.5l-71 -124q-4 -5 -10.5 -9t-12.5 -4h-386q-6 0 -12.5 4t-9.5 9l-72 124q-3 5 -5 13.5t-2 14.5v401q0 16 7 28l72 124q3 5 9.5 9t12.5 4h386q6 0 12.5 -4t10.5 -9l71 -124q7 -12 7 -28v-45h-140v19q0 3 -2 7
l-22 38q-3 4 -10 6h-240q-7 -2 -10 -7l-22 -38q-2 -2 -2 -5v-350q0 -2 2 -6l22 -38q3 -6 10 -6h240q7 0 10 5l22 38q2 4 2 7v112q0 6 -4.5 10.5t-10.5 4.5h-114q-14 0 -23 12l-77 116q-7 12 7 12h347v0z" />
    <glyph glyph-name="A" unicode="A" horiz-adv-x="687" 
d="M590 392q7 -14 7 -29v-363h-142v148q0 7 -4.5 11t-10.5 4h-252q-15 0 -8 14l66 116q7 13 23 13h171q6 0 10.5 4.5t4.5 10.5v4q0 6 -2.5 14.5t-5.5 13.5l-141 244q-3 6 -7.5 6t-7.5 -6l-141 -244q-3 -5 -5.5 -13.5t-2.5 -14.5v-325h-142v363q0 16 8 29l188 326q3 5 10 9
t13 4h159q16 0 23 -13l189 -326v0z" />
    <glyph glyph-name="B" unicode="B" horiz-adv-x="666" 
d="M578 297q3 -5 5.5 -13t2.5 -14v-106q0 -6 -2.5 -14t-5.5 -14l-71 -123q-3 -5 -9.5 -9t-12.5 -4h-470q-6 0 -10.5 4.5t-4.5 10.5v701q0 7 4.5 11t10.5 4h452q16 0 23 -13l71 -123q3 -5 5 -13.5t2 -14.5v-79q0 -16 -7 -28l-31 -54q-7 -13 0 -25zM446 232q0 6 -2 14.5
t-5 13.5l-30 51q-3 5 -9.5 8.5t-12.5 3.5h-90q-7 0 -13.5 4t-10.5 9l-76 115q-4 5 -2 8.5t8 3.5h191q7 0 11 7l22 37q1 2 1 6v28q0 4 -1 6l-21 37q-5 7 -13 7h-238q-15 0 -15 -15v-421q0 -6 4 -10.5t11 -4.5h249q6 0 12.5 4t9.5 9l13 21q7 12 7 28v30z" />
    <glyph glyph-name="C" unicode="C" horiz-adv-x="626" 
d="M588 259v-94q0 -6 -2.5 -14.5t-5.5 -13.5l-71 -124q-3 -5 -9.5 -9t-12.5 -4h-386q-6 0 -12.5 4t-9.5 9l-72 124q-3 5 -5 13.5t-2 14.5v402q0 6 2 14t5 13l72 124q3 5 9.5 9t12.5 4h386q6 0 12.5 -4t9.5 -9l71 -124q3 -5 5.5 -13t2.5 -14v-99h-141v73q0 4 -1 6l-22 38
q-5 5 -10 6h-240q-7 -2 -10 -6l-22 -38q-2 -4 -2 -7v-349q0 -2 2 -6l22 -40q4 -4 11 -4h239q7 0 10 6l22 38q1 2 1 5v69h141z" />
    <glyph glyph-name="D" unicode="D" horiz-adv-x="604" 
d="M580 594q3 -5 5.5 -13t2.5 -14v-402q0 -6 -2.5 -14.5t-5.5 -13.5l-71 -124q-3 -5 -9.5 -9t-12.5 -4h-472q-6 0 -10.5 4.5t-4.5 10.5v701q0 7 4.5 11t10.5 4h472q6 0 12.5 -4t9.5 -9zM447 541q0 4 -1 6l-22 38q-5 5 -10 6h-259q-6 0 -10.5 -4.5t-4.5 -10.5v-421
q0 -6 4.5 -10t10.5 -4h259q7 0 10 6l22 38q1 2 1 5v351z" />
    <glyph glyph-name="H" unicode="H" horiz-adv-x="673" 
d="M583 731v-731h-139v731h139zM415 336q7 -13 -7 -13h-254q-6 0 -10.5 -4t-4.5 -10v-309h-139v731h139v-254q0 -6 4.5 -10t10.5 -4h173q16 0 23 -13z" />
    <glyph glyph-name="I" unicode="I" horiz-adv-x="403" 
d="M244 156q0 -6 4.5 -10.5t10.5 -4.5h94v-141h-353v141h89q6 0 10 4.5t4 10.5v419q0 15 -14 15h-88l-1 141h353v-141h-94q-6 0 -10.5 -4t-4.5 -11v-419v0z" />
    <glyph glyph-name="J" unicode="J" horiz-adv-x="573" 
d="M468 731q6 0 10.5 -4t4.5 -10v-554q0 -6 -2 -14t-5 -13l-71 -123q-3 -5 -9.5 -9t-12.5 -4h-283q-6 0 -12.5 4t-9.5 9l-71 123q-3 5 -5 13t-2 14v73h139v-36q0 -6 2 -14t5 -13l12 -21q3 -5 9.5 -9t12.5 -4h123q6 0 12.5 4t9.5 9l12 21q3 5 5 13t2 14v378q0 6 -4.5 10.5
t-10.5 4.5h-63q-6 0 -12.5 3.5t-9.5 8.5l-65 113q-7 13 7 13h282v0z" />
    <glyph glyph-name="K" unicode="K" horiz-adv-x="647" 
d="M141 730v-730h-141v730h141zM570 113q7 -14 7 -28v-85l-141 1v46q0 6 -2.5 14.5t-5.5 13.5l-183 309q-7 12 0 26l146 243q3 5 5.5 13.5t2.5 14.5v50h141v-88q0 -6 -2.5 -14t-5.5 -14l-119 -206q-7 -13 0 -26z" />
    <glyph glyph-name="L" unicode="L" horiz-adv-x="536" 
d="M337 259h139v-244q0 -6 -4 -10.5t-11 -4.5h-361q-6 0 -12.5 4t-9.5 9l-71 123q-3 5 -5 13t-2 14v568h139v-531q0 -6 2 -14t6 -13l11 -21q7 -12 23 -12h141q6 0 10.5 4t4.5 10v105z" />
    <glyph glyph-name="M" unicode="M" horiz-adv-x="761" 
d="M646 731q6 0 10.5 -4t4.5 -11v-716h-141v510q0 13 -8 2l-93 -161q-7 -13 0 -26l40 -70q7 -13 -7 -13h-133q-6 0 -12.5 4t-10.5 9l-148 257q-7 12 -7 -2v-510h-141v716q0 7 4.5 11t10.5 4h154q16 0 23 -13l131 -227q3 -5 7.5 -5t7.5 5l131 227q3 5 9.5 9t12.5 4h155v0z
" />
    <glyph glyph-name="N" unicode="N" horiz-adv-x="690" 
d="M582 622q4 -6 6 -14t2 -14v-579q0 -6 -4.5 -10.5t-10.5 -4.5h-135q-16 0 -23 13l-269 466q-7 12 -7 -2v-477h-141v716q0 7 4.5 11t10.5 4h135q6 0 12.5 -4t10.5 -9l269 -466q7 -12 7 2v302q0 6 -2 14.5t-5 13.5l-78 134q-7 13 7 13h133q6 0 12.5 -4t10.5 -9z" />
    <glyph glyph-name="Ntilde" unicode="&#xd1;" horiz-adv-x="691" 
d="M583 622l-56 97q-3 5 -9.5 9t-12.5 4h-133q-6 0 -8.5 -4t0.5 -9l78 -134q3 -6 5.5 -14t2.5 -14v-302q0 -7 -2.5 -7t-5.5 5l-269 466q-7 13 -23 13h-135q-6 0 -10.5 -4.5t-4.5 -10.5v-717h141v478q0 14 7 2l270 -467q3 -5 9.5 -9t12.5 -4h136q6 0 10.5 4.5t4.5 10.5v579
q0 7 -2.5 15t-5.5 13zM141 778q-6 0 -12.5 4t-9.5 9l-31 54q-3 5 -0.5 9t8.5 4h193q6 0 12.5 -4t9.5 -9l31 -54q7 -13 -8 -13h-193z" />
    <glyph glyph-name="O" unicode="O" horiz-adv-x="682" 
d="M584 594q3 -5 5.5 -13t2.5 -14v-402q0 -6 -2.5 -14.5t-5.5 -13.5l-71 -124q-3 -5 -9.5 -9t-12.5 -4h-386q-6 0 -12.5 4t-9.5 9l-72 124q-3 5 -5 13.5t-2 14.5v402q0 6 2 14t5 13l72 124q3 5 9.5 9t12.5 4h386q6 0 12.5 -4t9.5 -9zM451 541q0 4 -1 6l-22 38q-5 5 -10 6
h-240q-7 -2 -10 -6l-22 -38q-2 -4 -2 -7v-349q0 -2 2 -6l22 -40q4 -4 11 -4h239q7 0 10 6l22 38q1 2 1 5v351z" />
    <glyph glyph-name="P" unicode="P" horiz-adv-x="658" 
d="M588 486q0 -6 -2 -14.5t-6 -13.5l-71 -124q-3 -5 -9.5 -9t-12.5 -4h-191q-6 0 -12.5 4t-10.5 9l-73 113q-4 5 -2 9t8 4h207q8 0 11 6l22 37q2 4 2 7v30q0 3 -2 7l-21 37q-5 7 -12 7h-258q-6 0 -10.5 -4.5t-4.5 -10.5v-576h-140v716q0 7 4.5 11t10.5 4h472q6 0 12.5 -4
t9.5 -9l71 -124q3 -5 5.5 -13t2.5 -14v-81z" />
    <glyph glyph-name="R" unicode="R" 
d="M582 115q3 -5 5.5 -13.5t2.5 -14.5v-87h-141v49q0 6 -2 14.5t-5 13.5l-218 377q-7 13 7 13h184q8 0 11 6l22 38q1 2 1 6v23q0 4 -1 6l-22 37q-4 7 -12 7h-258q-15 0 -15 -15v-575h-141v716q0 7 4.5 11t10.5 4h474q6 0 12.5 -4t9.5 -9l71 -124q4 -5 6 -13.5t2 -14.5v-75
q0 -6 -2 -14.5t-5 -13.5l-72 -124q-3 -5 -9.5 -9t-12.5 -4h-14q-14 0 -7 -13z" />
    <glyph glyph-name="S" unicode="S" horiz-adv-x="628" 
d="M580 316q3 -5 5.5 -13.5t2.5 -14.5v-123q0 -6 -2.5 -14.5t-5.5 -13.5l-71 -124q-3 -5 -9.5 -9t-12.5 -4h-386q-6 0 -12.5 4t-9.5 9l-71 124q-3 5 -5.5 13.5t-2.5 14.5v63h140v-37q0 -2 2 -6l22 -38q3 -6 11 -6h237q9 0 12 6l22 38q1 2 1 6v71q0 5 -1 7l-22 37q-3 6 -11 6
l-312 1q-6 0 -12.5 3.5t-9.5 9.5l-72 123q-7 14 -7 28v90q0 14 7 28l72 123q3 5 9.5 9t12.5 4h351q6 0 12.5 -4t9.5 -9l71 -123q3 -6 5.5 -14t2.5 -14v-61h-140v35q-1 2 -1 3t-1 3l-22 37q-4 7 -11 7h-203q-9 0 -12 -7l-21 -38q-2 -4 -2 -5v-38q0 -3 2 -5l21 -39q6 -6 12 -6
h312q6 0 12.5 -4t9.5 -9l71 -124v0z" />
    <glyph glyph-name="T" unicode="T" horiz-adv-x="658" 
d="M600 608q3 -5 5.5 -13.5t2.5 -14.5v-112h-141v58q0 7 -2.5 15t-5.5 13l-13 24q-3 5 -9.5 9t-12.5 4h-40q-6 0 -10 -4.5t-4 -10.5v-576h-141v576q0 6 -4.5 10.5t-10.5 4.5h-30q-6 0 -12.5 -4t-9.5 -9l-14 -24q-7 -12 -7 -28v-58h-141v112q0 6 2 14.5t5 13.5l64 110
q3 5 10 9t13 4h420q6 0 12.5 -4t9.5 -9l64 -110v0z" />
    <glyph glyph-name="U" unicode="U" horiz-adv-x="678" 
d="M448 731h140v-566q0 -6 -2 -14.5t-6 -13.5l-71 -124q-3 -5 -9.5 -9t-12.5 -4h-386q-6 0 -12.5 4t-9.5 9l-72 124q-3 5 -5 13.5t-2 14.5v566h140v-529q0 -6 2.5 -14t5.5 -13l12 -21q3 -6 9.5 -9.5t12.5 -3.5h224q6 0 12.5 3.5t9.5 9.5l12 21q3 5 5.5 13t2.5 14v529z" />
    <glyph glyph-name="V" unicode="V" horiz-adv-x="680" 
d="M449 731h141v-346q0 -6 -2 -14.5t-6 -13.5l-199 -344q-3 -5 -9.5 -9t-12.5 -4h-133q-6 0 -12.5 4t-9.5 9l-199 344q-3 5 -5 13.5t-2 14.5v346h141v-308q0 -6 2 -14.5t5 -13.5l139 -241q8 -12 15 0l140 241q3 5 5 13.5t2 14.5v308z" />
    <glyph glyph-name="W" unicode="W" horiz-adv-x="919" 
d="M707 731h142v-346q0 -7 -2.5 -15t-5.5 -13l-222 -344q-3 -5 -10 -9t-13 -4h-87q-6 0 -12.5 4t-9.5 9l-55 95q-3 5 -7.5 5t-7.5 -5l-55 -95q-3 -5 -9.5 -9t-12.5 -4h-87q-6 0 -13 4t-10 9l-222 344q-3 5 -5.5 13t-2.5 15v346h141v-308q0 -7 2.5 -15t5.5 -14l140 -242
q3 -5 7.5 -5t7.5 5l31 55q3 5 7 11.5t6 11.5q2 4 4 15t2 43v443h141v-477q0 -6 2 -13t4 -11q2 -5 5.5 -11.5t7.5 -11.5l31 -55q3 -5 7.5 -5t7.5 5l140 242q7 14 7 29v308z" />
    <glyph glyph-name="X" unicode="X" horiz-adv-x="668" 
d="M578 148q4 -5 7 -12.5t3 -13.5v-122h-141v69q0 6 -2.5 13.5t-6.5 12.5l-134 152q-5 5 -10.5 5t-9.5 -5l-134 -152q-4 -5 -7 -12.5t-3 -13.5v-69h-140v122q0 6 2.5 13.5t7.5 12.5l181 205q9 12 0 23l-181 205q-5 5 -7.5 12.5t-2.5 13.5v124h140v-71q0 -6 3 -13.5t7 -12.5
l134 -152q4 -5 9.5 -5t10.5 5l134 152q4 5 6.5 12.5t2.5 13.5v71h141v-124q0 -6 -3 -13.5t-7 -12.5l-181 -205q-9 -11 0 -23l181 -205v0z" />
    <glyph glyph-name="Y" unicode="Y" horiz-adv-x="619" 
d="M379 0q4 1 5.5 0.5t-0.5 -0.5h-5zM569 731v-161q0 -6 -3 -13.5t-7 -12.5l-195 -221q-2 -2 -3.5 -6t-3 -12.5t-2.5 -22t-1 -34.5l1 -248h-141v297q0 6 -2.5 13.5t-7.5 12.5l-194 221q-5 5 -7.5 12.5t-2.5 13.5v161h140v-108q0 -6 3 -13.5t7 -12.5l124 -141q5 -5 10.5 -5
t9.5 5l124 141q5 5 7.5 12.5t2.5 13.5v108h141z" />
    <glyph glyph-name="Z" unicode="Z" horiz-adv-x="649" 
d="M0 162q0 6 3 13t8 12l411 393q11 11 -4 11h-176q-15 0 -26 -11l-23 -24q-4 -5 -11.5 -8t-13.5 -3h-157q-14 0 -5 11l147 164q4 5 11 8t13 3h397q6 0 10.5 -4t4.5 -11v-146q0 -6 -3 -13.5t-8 -11.5l-411 -394q-10 -10 4 -10l165 -1q6 0 13.5 3t11.5 8l23 25q11 11 26 11
h156q15 0 5 -12l-146 -164q-4 -5 -11.5 -8t-13.5 -3h-385q-6 0 -10.5 4.5t-4.5 10.5v147z" />
    <glyph glyph-name="Q" unicode="Q" horiz-adv-x="690" 
d="M404 -80q-6 0 -12.5 4t-9.5 9l-30 53q-7 13 -23 13h-228q-6 0 -12.5 3.5t-9.5 9.5l-72 124q-3 5 -5 13.5t-2 14.5v402q0 6 2 14.5t5 13.5l72 124q3 5 9.5 9t12.5 4h388q6 0 12.5 -4t9.5 -9l72 -124q3 -5 5 -13.5t2 -14.5v-402q0 -6 -2 -14.5t-5 -13.5l-70 -122
q-7 -13 0 -26l31 -55q7 -13 -8 -13h-132zM249 140q14 0 7 13l-48 85q-7 13 7 13h132q16 0 23 -13l47 -82q3 -6 7.5 -6t7.5 6l10 18q3 5 5.5 13.5t2.5 14.5v326q0 6 -2.5 14.5t-5.5 13.5l-12 21q-3 5 -9.5 9t-12.5 4h-225q-6 0 -12.5 -4t-10.5 -9l-12 -21q-3 -5 -5 -13.5
t-2 -14.5v-326q0 -6 2 -14.5t5 -13.5l12 -21q4 -5 10.5 -9t12.5 -4h66z" />
    <glyph glyph-name="zero" unicode="0" 
d="M583 594q3 -5 5 -13.5t2 -14.5v-401q0 -6 -2 -14t-5 -13l-72 -125q-3 -5 -9.5 -9t-12.5 -4h-388q-6 0 -12.5 4t-9.5 9l-72 125q-3 5 -5 13t-2 14v401q0 6 2 14.5t5 13.5l72 124q3 6 9.5 9.5t12.5 3.5h388q6 0 12.5 -3.5t9.5 -9.5zM141 270q0 -14 8 -3l201 311q7 12 -7 12
h-175l-27 -47v-273zM235 154q-4 -5 -2 -9t8 -4h181l27 47v280q0 13 -8 3z" />
    <glyph glyph-name="one" unicode="1" horiz-adv-x="416" 
d="M341 731q6 0 10.5 -4.5t4.5 -10.5v-716h-141v575q0 7 -4.5 11t-10.5 4h-25q-8 0 -11 -6l-22 -38q-1 -2 -1 -6v-55h-141v81q0 6 2 14.5t6 13.5l71 124q3 6 9.5 9.5t12.5 3.5h240v0z" />
    <glyph glyph-name="two" unicode="2" horiz-adv-x="650" 
d="M590 141v-141h-489q-6 0 -12.5 4t-9.5 9l-71 124q-4 6 -6 14t-2 14v136q0 16 7 28l72 125q3 5 9.5 9t12.5 4h321l27 47v29l-26 47h-249q-16 0 -23 13l-66 115q-7 13 8 13h396q6 0 12.5 -3.5t9.5 -9.5l72 -124q3 -5 5 -13.5t2 -14.5v-75q0 -6 -2 -14.5t-5 -13.5l-72 -124
q-3 -5 -9.5 -9t-12.5 -4h-321l-27 -48v-90l27 -47h422z" />
    <glyph glyph-name="three" unicode="3" horiz-adv-x="630" 
d="M583 299q3 -5 5 -13t2 -14v-107q0 -14 -7 -28l-72 -124q-3 -5 -9.5 -9t-12.5 -4h-489v141h422l27 47v61l-44 77h-264v141h264l27 47v29l-27 47h-233q-6 0 -12.5 4t-9.5 9l-66 115q-7 13 7 13h380q6 0 12.5 -3.5t9.5 -9.5l72 -124q3 -5 5 -13.5t2 -14.5v-75
q1 -6 -1.5 -14.5t-5.5 -13.5l-31 -54q-7 -12 0 -26l49 -84v0z" />
    <glyph glyph-name="four" unicode="4" horiz-adv-x="665" 
d="M575 731v-731h-141v311q0 6 -4.5 10.5t-10.5 4.5h-350q-6 0 -13 4t-10 9l-43 75q-7 13 0 26l161 278q3 6 9.5 9.5t13.5 3.5h132q14 0 8 -13l-138 -238q-7 -13 7 -13h223q6 0 10.5 4t4.5 11v249h141z" />
    <glyph glyph-name="five" unicode="5" horiz-adv-x="660" 
d="M583 329q7 -12 7 -28v-136q0 -14 -7 -28l-72 -124q-3 -5 -9.5 -9t-12.5 -4h-387q-16 0 -23 13l-71 124q-3 6 -5.5 14t-2.5 14v55h141v-32l27 -47h254l27 47v91l-27 47h-407q-6 0 -10.5 4t-4.5 11v225q0 6 2 14.5t6 13.5l71 124q3 6 9.5 9.5t13.5 3.5h414q14 0 8 -13
l-67 -115q-3 -5 -9.5 -9t-12.5 -4h-267l-27 -47v-61q0 -6 4.5 -10.5t10.5 -4.5h333q6 0 12.5 -4t9.5 -9l72 -125v0z" />
    <glyph glyph-name="six" unicode="6" horiz-adv-x="650" 
d="M583 329q7 -12 7 -28v-136q0 -6 -2 -14t-6 -14l-71 -124q-3 -5 -9.5 -9t-12.5 -4h-387q-16 0 -23 13l-71 124q-3 6 -5.5 14t-2.5 14v401q0 6 2 14.5t5 13.5l72 124q3 6 9.5 9.5t12.5 3.5h399q14 0 7 -13l-66 -115q-3 -5 -10 -9t-13 -4h-250l-27 -47v-61q0 -6 4.5 -10.5
t10.5 -4.5h333q6 0 12.5 -4t9.5 -9zM157 326q-6 0 -10.5 -4.5t-4.5 -10.5l-1 -123l27 -47h254l27 47v90l-27 48h-265z" />
    <glyph glyph-name="seven" unicode="7" horiz-adv-x="642" 
d="M15 591q-6 0 -10.5 4.5t-4.5 10.5v110q0 7 4.5 11t10.5 4h472q6 0 12.5 -3.5t9.5 -8.5l80 -135q7 -13 0 -25l-317 -546q-3 -5 -9.5 -9t-12.5 -4h-135q-14 0 -7 13l317 545q3 5 3.5 11.5t-2.5 11.5q-2 5 -8 7.5t-12 2.5h-391z" />
    <glyph glyph-name="eight" unicode="8" 
d="M583 299q3 -5 5 -13t2 -14v-107q0 -6 -2 -14t-6 -14l-71 -124q-3 -5 -9.5 -9t-12.5 -4h-388q-6 0 -12.5 4t-9.5 9l-72 124q-7 14 -7 28v107q0 6 2 14t5 13l49 84q7 14 0 26l-31 54q-3 5 -5 13.5t-2 14.5v75q0 6 2 14.5t5 13.5l72 124q3 6 9.5 9.5t12.5 3.5h352
q6 0 12.5 -3.5t9.5 -9.5l72 -124q3 -5 5 -13.5t2 -14.5v-75q0 -6 -2 -14.5t-5 -13.5l-31 -54q-7 -12 0 -26zM405 326h-220l-44 -77v-61l28 -47h253l27 48v60zM186 467h219l27 47v29l-28 47h-218l-28 -47v-29z" />
    <glyph glyph-name="nine" unicode="9" 
d="M590 165q0 -6 -2 -14t-5 -13l-72 -125q-3 -5 -9.5 -9t-12.5 -4l-461 1q-14 0 -7 13l66 114q4 5 10.5 9t12.5 4h312l27 47v110q0 7 -4.5 11t-10.5 4l-333 1q-6 0 -12.5 3.5t-9.5 9.5l-72 124q-3 5 -5 13.5t-2 14.5v87q0 6 2 14.5t6 13.5l71 124q3 6 9.5 9.5t12.5 3.5h387
q16 0 23 -13l71 -124q3 -5 5.5 -13.5t2.5 -14.5v-401zM433 454q6 0 10.5 4.5t4.5 10.5l1 75l-27 46h-254l-27 -47v-41l27 -48h265z" />
    <glyph glyph-name="dollar" unicode="$" horiz-adv-x="628" 
d="M588 334q3 -5 5 -13t2 -14v-119q0 -5 -2 -13t-5 -13l-69 -119q-7 -13 -21 -13h-127v-73h-134v73h-109q-14 0 -21 13l-69 119q-3 5 -5 13t-2 13v61h135v-35q0 -5 1 -7l21 -35q3 -7 11 -7h38v165h-109q-6 0 -12.5 4t-9.5 9l-68 119q-3 5 -5 12.5t-2 13.5v86q0 6 2 14t5 13
l69 119q2 5 8.5 8.5t12.5 3.5h109v74h134v-74h93q6 0 12.5 -3.5t9.5 -8.5l68 -119q3 -5 5 -13t2 -14v-58h-134v33q0 2 -2 6l-20 36q-5 6 -12 6h-22v-132h127q6 0 12.5 -4t9.5 -9zM237 465v132h-38q-8 0 -12 -6l-20 -37q-1 -1 -1 -4v-37q0 -4 1 -5l21 -37q4 -6 11 -6h38z
M460 282q0 4 -1 6l-21 36q-3 6 -10 6h-57v-165h56q7 0 11 7l21 36q1 1 1 5v69z" />
    <glyph glyph-name="exclam" unicode="!" horiz-adv-x="190" 
d="M47 196q-6 0 -10.5 4.5t-4.5 10.5l-8 197v31v277q0 7 4.5 11t10.5 4h112q16 0 16 -15v-277q0 -7 -0.5 -15.5t-0.5 -15.5l-6 -197q-1 -6 -5.5 -10.5t-10.5 -4.5h-97zM53 0q-6 0 -10.5 4.5t-4.5 10.5v85q0 6 4.5 10.5t10.5 4.5h84q7 0 11.5 -4.5t4.5 -10.5v-85
q0 -6 -4.5 -10.5t-11.5 -4.5h-84z" />
    <glyph glyph-name="parenright" unicode=")" horiz-adv-x="351" 
d="M0 590v141h212q6 0 12.5 -3.5t10.5 -9.5l71 -124q3 -5 5.5 -13.5t2.5 -14.5v-401q0 -6 -2.5 -14t-5.5 -13l-71 -125q-4 -5 -10.5 -9t-12.5 -4h-212v141h131q6 0 12.5 4t9.5 9l12 21q3 5 5.5 13.5t2.5 14.5v325q0 7 -2.5 15t-5.5 13l-12 21q-3 6 -9.5 9.5t-12.5 3.5h-131z
" />
    <glyph glyph-name="parenleft" unicode="(" horiz-adv-x="351" 
d="M314 141v-141h-213q-6 0 -12.5 4t-9.5 9l-72 125q-3 5 -5 13t-2 14v401q0 6 2 14.5t5 13.5l72 124q3 6 9.5 9.5t12.5 3.5h213v-141h-131q-6 0 -13 -3.5t-10 -9.5l-12 -21q-7 -12 -7 -28v-325q0 -6 2 -14.5t5 -13.5l12 -21q3 -5 10 -9t13 -4h131z" />
    <glyph glyph-name="slash" unicode="/" horiz-adv-x="638" 
d="M8 0q-8 0 -4 7l439 717q3 7 13 7h144q9 0 4 -7l-436 -717q-4 -7 -13 -7h-147z" />
    <glyph glyph-name="ampersand" unicode="&#x26;" horiz-adv-x="688" 
d="M658 419q15 0 8 -12l-66 -114q-3 -5 -9.5 -9t-12.5 -4h-26q-7 0 -11 -4.5t-4 -10.5v-101q0 -7 -2.5 -15t-5.5 -13l-70 -123q-7 -13 -23 -13h-336q-6 0 -12.5 4t-9.5 9l-71 123q-7 12 -7 28v62q0 6 2 14.5t5 13.5l46 80q4 5 3.5 12t-4.5 12l-43 56q-9 11 -9 27v127
q0 6 2 14.5t5 13.5l71 123q3 5 9.5 8.5t12.5 3.5h291q16 0 23 -12l74 -123q3 -5 5.5 -13t2.5 -14v-94h-131v41q0 6 -2.5 14t-5.5 13l-22 36q-3 5 -10 9t-13 4h-131q-6 0 -12.5 -4t-9.5 -9l-12 -21q-3 -5 -5.5 -13t-2.5 -14v-47q0 -6 2.5 -13.5t6.5 -12.5l22 -27
q4 -5 11 -8.5t13 -3.5h464zM396 265q0 6 -4.5 10.5t-10.5 4.5h-183q-6 0 -12.5 -3.5t-10.5 -8.5l-28 -43q-3 -5 -5.5 -11t-2.5 -10q0 -10 7 -22l14 -29q2 -6 8.5 -10t12.5 -4h175q6 0 12.5 4t9.5 9l11 19q3 5 5 13t2 14v67z" />
    <glyph glyph-name="question" unicode="?" horiz-adv-x="589" 
d="M38 718q-7 13 7 13h395q6 0 12.5 -3.5t9.5 -9.5l71 -124q3 -5 5.5 -13.5t2.5 -14.5v-71q0 -6 -2.5 -14.5t-5.5 -13.5l-71 -126q-4 -5 -10.5 -9t-12.5 -4l-124 1q-6 0 -10.5 -4.5t-4.5 -10.5v-115h-140v166q0 15 3 20q1 2 4 7t6 11l31 54q3 6 9.5 9.5t13.5 3.5h132
q6 0 12.5 4t10.5 9l11 20q3 5 5 13t2 14t-2.5 14t-5.5 13l-12 21q-3 5 -9.5 9t-12.5 4h-231q-16 0 -23 13zM297 0h-134v134h119h15v-15v-119z" />
    <glyph glyph-name="questiondown" unicode="&#xbf;" horiz-adv-x="589" 
d="M503 13q7 -13 -7 -13h-395q-6 0 -12.5 4t-9.5 9l-72 125q-7 12 -7 28v71q0 6 2 14.5t5 13.5l72 125q7 13 23 13h124q14 0 14 14v116h141v-167q0 -6 -0.5 -11.5t-2.5 -7.5q-1 -2 -4 -7.5t-6 -10.5l-31 -55q-4 -5 -10.5 -9t-12.5 -4h-132q-16 0 -23 -13l-11 -19
q-7 -14 -7 -27q0 -6 2 -14t6 -14l11 -20q3 -6 9.5 -9.5t13.5 -3.5h231q6 0 13 -4t10 -9zM244 731h134v-133h-119h-15v15v118z" />
    <glyph glyph-name="equal" unicode="=" horiz-adv-x="581" 
d="M143 387q-8 0 -4 8l32 58q5 7 13 7h252q10 0 4 -8l-33 -57q-4 -8 -13 -8h-251zM143 271q-8 0 -4 8l32 58q5 7 13 7h252q10 0 4 -8l-33 -57q-4 -8 -13 -8h-251z" />
    <glyph glyph-name="quotedbl" unicode="&#x22;" horiz-adv-x="328" 
d="M301 532h-139v112q0 6 2.5 14.5t5.5 13.5l27 47q3 5 10 8.5t13 3.5h84q6 0 8.5 -3.5t-0.5 -8.5l-33 -56q-3 -5 -0.5 -8.5t8.5 -3.5t10 -4.5t4 -10.5v-104zM139 532h-139v112q0 6 2 14.5t5 13.5l28 47q3 5 9.5 8.5t12.5 3.5h85q14 0 7 -12l-32 -56q-7 -12 7 -12
q7 0 11 -4.5t4 -10.5v-104z" />
    <glyph glyph-name="comma" unicode="," horiz-adv-x="190" 
d="M15 63h61v-63q0 -6 -2 -14.5t-6 -13.5l-10 -18q-4 -5 -10.5 -9t-12.5 -4h-23q-6 0 -8.5 4t1.5 9l20 35q7 13 -1 13q-9 0 -9 15v46z" />
    <glyph glyph-name="period" unicode="." horiz-adv-x="178" 
d="M64 5q0 -5 -5 -5h-51q-5 0 -5 5v53q0 5 5 5h51q5 0 5 -5v-53z" />
    <glyph glyph-name="quotedblleft" unicode="&#x201c;" horiz-adv-x="833" 
d="M145 609h-61v63q0 6 2 14.5t6 13.5l10 18q4 5 10.5 9t12.5 4h23q6 0 8.5 -4t-0.5 -9l-21 -35q-7 -13 1 -13q9 0 9 -15v-46zM64 609h-61v63q0 6 2 14.5t5 13.5l11 18q3 5 10 9t13 4h23q14 0 7 -13l-20 -35q-7 -13 1 -13q9 0 9 -15v-46z" />
    <glyph glyph-name="quotedblright" unicode="&#x201d;" horiz-adv-x="833" 
d="M15 731h61v-62q0 -7 -2 -15t-6 -13l-10 -19q-4 -5 -10.5 -9t-12.5 -4h-23q-6 0 -8.5 4t1.5 9l20 35q7 13 -1 13q-4 0 -6.5 4.5t-2.5 10.5v46zM96 731h61v-62q0 -16 -7 -28l-11 -19q-7 -13 -23 -13h-23q-14 0 -7 13l20 35q7 13 -1 13q-4 0 -6.5 4.5t-2.5 10.5v46z" />
    </font>
</defs>
</svg>
